<svg width="687" height="54" viewBox="0 0 687 54" fill="none" xmlns="http://www.w3.org/2000/svg">
<path d="M34.28 24L33.64 24.88C32.8933 25.84 32.3867 26.88 32.12 28C31.9067 29.12 31.8 30.8267 31.8 33.12V40L31 40.32L26.84 38.16C24.2267 39.8667 21.2933 40.72 18.04 40.72C12.7067 40.72 8.46667 38.9867 5.32 35.52C2.22667 32.0533 0.68 27.3867 0.68 21.52C0.68 15.4933 2.36 10.72 5.72 7.2C9.13333 3.68 13.72 1.92 19.48 1.92C23.16 1.92 26.1467 2.64 28.44 4.08C30.7867 5.46667 31.96 7.30667 31.96 9.6C31.96 11.84 31.0267 13.6 29.16 14.88C27.2933 16.16 24.9467 16.8 22.12 16.8C22.8667 15.8933 23.4533 14.9333 23.88 13.92C24.3067 12.8533 24.52 11.4933 24.52 9.84C24.52 8.02667 23.9867 6.58667 22.92 5.52C21.8533 4.4 20.52 3.84 18.92 3.84C15.9333 3.84 13.5333 5.46666 11.72 8.72C9.96 11.92 9.08 16.1867 9.08 21.52C9.08 24.6667 9.53333 27.4933 10.44 30C11.4 32.4533 12.7067 34.3733 14.36 35.76C16.0133 37.1467 17.9067 37.84 20.04 37.84C21.64 37.84 23.1867 37.5467 24.68 36.96V29.76C24.68 28.5333 24.5733 27.6533 24.36 27.12C24.1467 26.5333 23.7467 26.08 23.16 25.76C22.5733 25.3867 21.6133 25.0133 20.28 24.64L20.76 23.12H33.64L34.28 24ZM38.1113 38.56C39.4446 38.1867 40.4046 37.84 40.9913 37.52C41.5779 37.1467 41.9779 36.6667 42.1913 36.08C42.4046 35.4933 42.5113 34.5867 42.5113 33.36V11.68C42.5113 9.81333 42.3513 8.45333 42.0313 7.6C41.7646 6.74666 41.0979 6 40.0313 5.36L39.0713 4.8L39.3913 3.76C41.1513 3.22666 43.3379 2.8 45.9513 2.48C48.5646 2.10667 50.9646 1.92 53.1513 1.92C59.9246 1.92 65.0713 3.6 68.5913 6.96C72.1646 10.2667 73.9513 15.0667 73.9513 21.36C73.9513 27.0667 72.2979 31.6 68.9913 34.96C65.7379 38.32 61.2846 40 55.6313 40H38.6712L38.1113 38.56ZM54.9113 38.4C62.1113 38.4 65.7113 32.72 65.7113 21.36C65.7113 16.1333 64.6713 11.9467 62.5913 8.8C60.5646 5.6 57.8713 4 54.5113 4C53.1246 4 52.0579 4.21333 51.3113 4.64C50.5646 5.06667 50.1913 5.68 50.1913 6.48V30.96C50.1913 33.4667 50.5646 35.3333 51.3113 36.56C52.1113 37.7867 53.3113 38.4 54.9113 38.4ZM85.8006 8.8C85.8006 10.9333 86.5473 12.6933 88.0406 14.08C89.534 15.4133 91.774 16.9333 94.7606 18.64C96.9473 19.8667 98.6806 20.9333 99.9606 21.84C101.241 22.7467 102.334 23.8933 103.241 25.28C104.147 26.6667 104.601 28.2667 104.601 30.08C104.601 33.3867 103.267 36 100.601 37.92C97.9873 39.7867 94.4673 40.72 90.0406 40.72C86.254 40.72 83.1873 40 80.8406 38.56C78.5473 37.12 77.4006 35.1733 77.4006 32.72C77.4006 31.12 77.934 29.8667 79.0006 28.96C80.1206 28 81.5073 27.52 83.1606 27.52C84.4406 27.52 85.6673 27.84 86.8406 28.48C85.1873 29.3333 84.3606 31.0133 84.3606 33.52C84.3606 35.0133 84.894 36.2933 85.9606 37.36C87.0806 38.3733 88.574 38.88 90.4406 38.88C92.3606 38.88 93.854 38.3467 94.9206 37.28C96.0406 36.2133 96.6006 34.88 96.6006 33.28C96.6006 31.4133 95.9073 29.8933 94.5206 28.72C93.1873 27.4933 91.134 26.08 88.3606 24.48C86.174 23.3067 84.3606 22.2133 82.9206 21.2C81.534 20.1867 80.3606 18.9333 79.4006 17.44C78.4406 15.9467 77.9606 14.1867 77.9606 12.16C77.9606 9.12 79.2406 6.66666 81.8006 4.8C84.414 2.88 87.8006 1.92 91.9606 1.92C95.534 1.92 98.4406 2.61333 100.681 4C102.921 5.33333 104.041 7.12 104.041 9.36C104.041 10.8 103.561 11.9467 102.601 12.8C101.641 13.6 100.334 14 98.6806 14C97.5073 14 96.2806 13.7067 95.0006 13.12C95.694 12.5867 96.2273 11.92 96.6006 11.12C96.974 10.32 97.1606 9.49333 97.1606 8.64C97.1606 7.30666 96.6806 6.18666 95.7206 5.28C94.7606 4.32 93.3473 3.84 91.4806 3.84C89.6673 3.84 88.254 4.32 87.2406 5.28C86.2806 6.24 85.8006 7.41333 85.8006 8.8ZM125.936 40.72C120.23 40.72 115.856 38.9067 112.816 35.28C109.83 31.6533 108.336 27.0133 108.336 21.36C108.336 15.7067 109.856 11.0667 112.896 7.44C115.936 3.76 120.336 1.92 126.096 1.92C129.776 1.92 132.763 2.64 135.056 4.08C137.403 5.46667 138.576 7.30667 138.576 9.6C138.576 11.84 137.643 13.6 135.776 14.88C133.91 16.16 131.563 16.8 128.736 16.8C130.336 15.0933 131.136 12.7733 131.136 9.84C131.136 8.13333 130.603 6.72 129.536 5.6C128.523 4.42667 127.19 3.84 125.536 3.84C122.496 3.84 120.256 5.57333 118.816 9.04C117.43 12.5067 116.736 16.6133 116.736 21.36C116.736 24.4 117.163 27.1733 118.016 29.68C118.923 32.1867 120.203 34.1867 121.856 35.68C123.563 37.12 125.51 37.84 127.696 37.84C130.203 37.84 132.283 37.3333 133.936 36.32C135.643 35.2533 137.19 33.7867 138.576 31.92L139.536 32.64C138.096 35.04 136.23 36.9867 133.936 38.48C131.696 39.9733 129.03 40.72 125.936 40.72ZM155.457 38.56C156.684 38.24 157.564 37.92 158.097 37.6C158.684 37.2267 159.057 36.7467 159.217 36.16C159.43 35.52 159.537 34.5867 159.537 33.36V12.56C159.537 10 159.324 8.21333 158.897 7.2C158.524 6.13333 157.564 4.96 156.017 3.68L156.737 2.64H170.257L170.817 3.92C169.27 4.82666 168.284 5.68 167.857 6.48C167.43 7.22666 167.217 8.58666 167.217 10.56V30.24C167.217 32.7467 167.404 34.5333 167.777 35.6C168.204 36.6133 169.164 37.76 170.657 39.04L170.017 40H156.017L155.457 38.56ZM203.133 35.44C203.133 37.04 203.64 37.84 204.653 37.84C205.666 37.84 206.653 37.44 207.613 36.64L208.253 37.44C206.28 39.6267 203.96 40.72 201.293 40.72C199.373 40.72 197.986 40.24 197.133 39.28C196.333 38.2667 195.933 36.64 195.933 34.4V22.16C195.933 19.0667 194.946 17.52 192.973 17.52C191.053 17.52 189.48 18.8267 188.253 21.44C187.08 24.0533 186.493 27.4667 186.493 31.68C186.493 33.28 186.626 34.5867 186.893 35.6C187.16 36.56 187.586 37.4933 188.173 38.4L188.813 39.2L188.173 40H176.573L176.093 38.64L177.213 38.4C178.066 38.1867 178.626 37.8667 178.893 37.44C179.16 36.96 179.293 36.0533 179.293 34.72V19.12C179.293 18.1067 178.946 17.6 178.253 17.6H175.693L175.453 16.72C176.52 15.8133 177.853 15.0667 179.453 14.48C181.053 13.8933 182.653 13.6 184.253 13.6C184.946 13.6 185.48 13.76 185.853 14.08C186.28 14.4 186.493 14.8267 186.493 15.36V22.24C187.24 19.7333 188.573 17.6533 190.493 16C192.413 14.2933 194.44 13.44 196.573 13.44C198.866 13.44 200.52 14.1867 201.533 15.68C202.6 17.1733 203.133 19.5467 203.133 22.8V35.44ZM241.166 37.44C239.192 39.6267 236.872 40.72 234.206 40.72C232.552 40.72 231.326 40.3733 230.526 39.68C229.726 38.9333 229.192 37.7333 228.926 36.08C227.539 37.68 226.099 38.8533 224.606 39.6C223.112 40.3467 221.459 40.72 219.646 40.72C216.979 40.72 214.792 39.5467 213.086 37.2C211.432 34.8533 210.606 31.8133 210.606 28.08C210.606 23.6 211.779 20.0533 214.126 17.44C216.472 14.7733 219.672 13.44 223.726 13.44C225.592 13.44 227.299 13.8667 228.846 14.72V5.84C228.846 5.09333 228.499 4.72 227.806 4.72H225.086L224.766 3.92C225.832 2.96 227.192 2.21333 228.846 1.68C230.499 1.09333 232.126 0.799999 233.726 0.799999C234.419 0.799999 234.979 0.959999 235.406 1.28C235.832 1.54666 236.046 1.94666 236.046 2.48V35.44C236.046 37.04 236.552 37.84 237.566 37.84C238.579 37.84 239.566 37.44 240.526 36.64L241.166 37.44ZM223.806 36.88C225.832 36.88 227.512 35.76 228.846 33.52V16.32C227.779 15.7867 226.606 15.52 225.326 15.52C220.846 15.52 218.606 19.3867 218.606 27.12C218.606 30.2667 219.032 32.6933 219.886 34.4C220.792 36.0533 222.099 36.88 223.806 36.88ZM253.342 35.44C253.342 37.04 253.849 37.84 254.862 37.84C255.875 37.84 256.862 37.44 257.822 36.64L258.462 37.44C256.489 39.6267 254.169 40.72 251.502 40.72C249.582 40.72 248.195 40.24 247.342 39.28C246.489 38.2667 246.062 36.64 246.062 34.4V18.56C246.062 17.8133 245.715 17.44 245.022 17.44H242.542L242.302 16.56C243.369 15.6533 244.702 14.9067 246.302 14.32C247.902 13.7333 249.502 13.44 251.102 13.44C251.742 13.44 252.275 13.6 252.702 13.92C253.129 14.24 253.342 14.6667 253.342 15.2V35.44ZM245.262 5.76C245.262 4.8 245.795 3.73333 246.862 2.56C247.929 1.38667 248.915 0.799999 249.822 0.799999C250.782 0.799999 251.795 1.38667 252.862 2.56C253.982 3.73333 254.542 4.8 254.542 5.76C254.542 6.77333 253.982 7.86667 252.862 9.04C251.795 10.16 250.782 10.72 249.822 10.72C248.915 10.72 247.929 10.16 246.862 9.04C245.795 7.86667 245.262 6.77333 245.262 5.76ZM269.415 22.32C268.295 22.96 266.962 23.28 265.415 23.28C264.295 23.28 263.415 22.96 262.775 22.32C262.135 21.6267 261.815 20.6667 261.815 19.44C261.815 17.6267 262.695 16.1867 264.455 15.12C266.268 14 268.615 13.44 271.495 13.44C274.908 13.44 277.575 14.1867 279.495 15.68C281.468 17.1733 282.455 19.2 282.455 21.76V35.6C282.455 37.0933 282.988 37.84 284.055 37.84C285.068 37.84 286.055 37.44 287.015 36.64L287.655 37.44C285.682 39.6267 283.335 40.72 280.615 40.72C279.015 40.72 277.788 40.32 276.935 39.52C276.135 38.72 275.655 37.4667 275.495 35.76H275.175C274.322 37.3067 273.175 38.5333 271.735 39.44C270.348 40.2933 268.748 40.72 266.935 40.72C264.908 40.72 263.282 40.1067 262.055 38.88C260.828 37.6 260.215 35.9467 260.215 33.92C260.215 31.6267 261.308 29.8133 263.495 28.48C265.682 27.1467 268.642 26.48 272.375 26.48C273.068 26.48 274.055 26.5333 275.335 26.64V22.64C275.335 20.0267 275.015 18.16 274.375 17.04C273.735 15.8667 272.695 15.28 271.255 15.28C270.242 15.28 269.442 15.6 268.855 16.24C268.268 16.88 267.975 17.7067 267.975 18.72C267.975 20.32 268.455 21.52 269.415 22.32ZM270.615 36.72C273.762 36.72 275.335 33.8667 275.335 28.16C272.668 28.16 270.668 28.6133 269.335 29.52C268.002 30.3733 267.335 31.6 267.335 33.2C267.335 34.2667 267.628 35.12 268.215 35.76C268.802 36.4 269.602 36.72 270.615 36.72ZM357.511 3.52C356.178 4.53333 355.191 5.49333 354.551 6.4C353.911 7.25333 353.325 8.4 352.791 9.84L342.711 40H335.831L329.031 17.52L322.311 40H315.351L305.111 9.84C304.578 8.34666 303.991 7.2 303.351 6.4C302.765 5.54667 301.805 4.58666 300.471 3.52L301.111 2.64H315.671L316.151 4.08L315.031 4.4C314.231 4.66666 313.645 5.01333 313.271 5.44C312.951 5.81333 312.791 6.34667 312.791 7.04C312.791 7.57333 312.978 8.42667 313.351 9.6L321.351 33.44L327.511 12.64L326.631 9.84C326.098 8.34666 325.511 7.2 324.871 6.4C324.285 5.54667 323.325 4.58666 321.991 3.52L322.631 2.64H337.191L337.751 4.08L336.551 4.4C335.698 4.61333 335.111 4.93333 334.791 5.36C334.471 5.73333 334.311 6.29333 334.311 7.04C334.311 7.57333 334.498 8.42667 334.871 9.6L341.911 33.52L349.831 9.76C350.205 8.58667 350.391 7.70667 350.391 7.12C350.391 6.48 350.205 5.97333 349.831 5.6C349.511 5.17333 348.951 4.85333 348.151 4.64L346.711 4.08L347.191 2.64H356.871L357.511 3.52ZM374.245 38.08C375.792 38.08 377.152 37.8133 378.325 37.28C379.498 36.6933 380.645 35.7333 381.765 34.4L382.725 35.12C381.498 36.88 379.925 38.2667 378.005 39.28C376.138 40.24 374.085 40.72 371.845 40.72C369.392 40.72 367.178 40.1333 365.205 38.96C363.285 37.7867 361.765 36.1867 360.645 34.16C359.525 32.08 358.965 29.7333 358.965 27.12C358.965 22.96 360.218 19.6533 362.725 17.2C365.285 14.6933 368.672 13.44 372.885 13.44C375.872 13.44 378.298 14.16 380.165 15.6C382.085 16.9867 383.045 18.8 383.045 21.04C383.045 23.6 381.952 25.6533 379.765 27.2C377.632 28.6933 374.698 29.44 370.965 29.44C369.472 29.44 368.112 29.3333 366.885 29.12C367.152 31.8933 367.952 34.08 369.285 35.68C370.618 37.28 372.272 38.08 374.245 38.08ZM372.005 15.36C370.352 15.36 369.045 16.3733 368.085 18.4C367.178 20.3733 366.725 23.1467 366.725 26.72V28C367.312 28 368.032 27.9467 368.885 27.84C371.125 27.5733 372.832 26.8533 374.005 25.68C375.232 24.4533 375.845 22.8533 375.845 20.88C375.845 19.28 375.472 17.9733 374.725 16.96C374.032 15.8933 373.125 15.36 372.005 15.36ZM403.023 13.44C405.156 13.44 407.076 14 408.783 15.12C410.543 16.1867 411.903 17.68 412.863 19.6C413.876 21.52 414.383 23.68 414.383 26.08C414.383 28.8533 413.716 31.36 412.383 33.6C411.103 35.7867 409.316 37.52 407.023 38.8C404.73 40.08 402.17 40.72 399.343 40.72C397.423 40.72 395.503 40.4267 393.583 39.84C391.663 39.2533 390.09 38.4533 388.863 37.44V5.84C388.863 5.41333 388.783 5.12 388.623 4.96C388.463 4.8 388.196 4.72 387.823 4.72H385.343L385.103 3.92C386.116 2.96 387.423 2.21333 389.023 1.68C390.676 1.09333 392.303 0.799999 393.903 0.799999C394.596 0.799999 395.13 0.959999 395.503 1.28C395.93 1.54666 396.143 1.94666 396.143 2.48V15.92C396.943 15.12 397.93 14.5067 399.103 14.08C400.33 13.6533 401.636 13.44 403.023 13.44ZM399.743 38.88C404.17 38.88 406.383 35.0667 406.383 27.44C406.383 23.6533 405.823 20.7733 404.703 18.8C403.636 16.7733 402.036 15.76 399.903 15.76C398.57 15.76 397.316 16.16 396.143 16.96V38.08C397.316 38.6133 398.516 38.88 399.743 38.88ZM448.983 40.72C443.276 40.72 438.903 38.9067 435.863 35.28C432.876 31.6533 431.383 27.0133 431.383 21.36C431.383 15.7067 432.903 11.0667 435.943 7.44C438.983 3.76 443.383 1.92 449.143 1.92C452.823 1.92 455.81 2.64 458.103 4.08C460.45 5.46667 461.623 7.30667 461.623 9.6C461.623 11.84 460.69 13.6 458.823 14.88C456.956 16.16 454.61 16.8 451.783 16.8C453.383 15.0933 454.183 12.7733 454.183 9.84C454.183 8.13333 453.65 6.72 452.583 5.6C451.57 4.42667 450.236 3.84 448.583 3.84C445.543 3.84 443.303 5.57333 441.863 9.04C440.476 12.5067 439.783 16.6133 439.783 21.36C439.783 24.4 440.21 27.1733 441.063 29.68C441.97 32.1867 443.25 34.1867 444.903 35.68C446.61 37.12 448.556 37.84 450.743 37.84C453.25 37.84 455.33 37.3333 456.983 36.32C458.69 35.2533 460.236 33.7867 461.623 31.92L462.583 32.64C461.143 35.04 459.276 36.9867 456.983 38.48C454.743 39.9733 452.076 40.72 448.983 40.72ZM473.946 22.32C472.826 22.96 471.493 23.28 469.946 23.28C468.826 23.28 467.946 22.96 467.306 22.32C466.666 21.6267 466.346 20.6667 466.346 19.44C466.346 17.6267 467.226 16.1867 468.986 15.12C470.8 14 473.146 13.44 476.026 13.44C479.44 13.44 482.106 14.1867 484.026 15.68C486 17.1733 486.986 19.2 486.986 21.76V35.6C486.986 37.0933 487.52 37.84 488.586 37.84C489.6 37.84 490.586 37.44 491.546 36.64L492.186 37.44C490.213 39.6267 487.866 40.72 485.146 40.72C483.546 40.72 482.32 40.32 481.466 39.52C480.666 38.72 480.186 37.4667 480.026 35.76H479.706C478.853 37.3067 477.706 38.5333 476.266 39.44C474.88 40.2933 473.28 40.72 471.466 40.72C469.44 40.72 467.813 40.1067 466.586 38.88C465.36 37.6 464.746 35.9467 464.746 33.92C464.746 31.6267 465.84 29.8133 468.026 28.48C470.213 27.1467 473.173 26.48 476.906 26.48C477.6 26.48 478.586 26.5333 479.866 26.64V22.64C479.866 20.0267 479.546 18.16 478.906 17.04C478.266 15.8667 477.226 15.28 475.786 15.28C474.773 15.28 473.973 15.6 473.386 16.24C472.8 16.88 472.506 17.7067 472.506 18.72C472.506 20.32 472.986 21.52 473.946 22.32ZM475.146 36.72C478.293 36.72 479.866 33.8667 479.866 28.16C477.2 28.16 475.2 28.6133 473.866 29.52C472.533 30.3733 471.866 31.6 471.866 33.2C471.866 34.2667 472.16 35.12 472.746 35.76C473.333 36.4 474.133 36.72 475.146 36.72ZM520.685 22.24C520.632 19.2 520.098 16.9867 519.085 15.6C518.072 14.16 516.472 13.44 514.285 13.44C512.205 13.44 510.338 14.2933 508.685 16C507.032 17.7067 505.858 19.7867 505.165 22.24V15.68C505.165 15.1467 504.952 14.7467 504.525 14.48C504.152 14.16 503.618 14 502.925 14C501.325 14 499.725 14.2933 498.125 14.88C496.525 15.4667 495.192 16.2133 494.125 17.12L494.365 17.92H496.925C497.618 17.92 497.965 18.32 497.965 19.12V34.72C497.965 36.0533 497.832 36.96 497.565 37.44C497.298 37.8667 496.738 38.1867 495.885 38.4L494.765 38.64L495.245 40H506.845L507.485 39.2L506.845 38.4C506.205 37.4933 505.752 36.56 505.485 35.6C505.272 34.64 505.165 33.3333 505.165 31.68C505.165 27.9467 505.645 24.6667 506.605 21.84C507.565 18.96 508.898 17.52 510.605 17.52C512.632 17.52 513.645 19.0667 513.645 22.16V40H522.525L523.165 39.2L522.525 38.4C521.938 37.4933 521.512 36.56 521.245 35.6C521.032 34.64 520.898 33.3333 520.845 31.68C520.845 27.9467 521.325 24.6667 522.285 21.84C523.245 18.96 524.578 17.52 526.285 17.52C528.312 17.52 529.325 19.0667 529.325 22.16V33.68C529.325 36.2933 529.725 38.1333 530.525 39.2C531.325 40.2133 532.712 40.72 534.685 40.72C537.352 40.72 539.672 39.6267 541.645 37.44L541.005 36.64C540.045 37.44 539.058 37.84 538.045 37.84C537.032 37.84 536.525 37.04 536.525 35.44V22.8C536.525 19.6 535.992 17.2533 534.925 15.76C533.912 14.2133 532.258 13.44 529.965 13.44C528.045 13.44 526.232 14.2667 524.525 15.92C522.818 17.5733 521.592 19.68 520.845 22.24H520.685ZM563.085 13.44C565.805 13.44 567.992 14.64 569.645 17.04C571.352 19.3867 572.205 22.48 572.205 26.32C572.205 29.04 571.698 31.4933 570.685 33.68C569.725 35.8133 568.338 37.4933 566.525 38.72C564.765 39.8933 562.765 40.48 560.525 40.48C559.245 40.48 558.018 40.2933 556.845 39.92C555.725 39.4933 554.765 38.9067 553.965 38.16V47.28C553.965 48.56 554.125 49.4133 554.445 49.84C554.818 50.32 555.645 50.6933 556.925 50.96L557.965 51.2L557.485 52.56H545.085L544.445 51.76L545.085 50.96C545.725 50.1067 546.152 49.1733 546.365 48.16C546.632 47.2 546.765 45.8933 546.765 44.24V19.12C546.765 18.16 546.418 17.68 545.725 17.68H543.245L543.005 16.8C544.018 15.8933 545.325 15.1467 546.925 14.56C548.578 13.9733 550.178 13.68 551.725 13.68C552.418 13.68 552.952 13.84 553.325 14.16C553.752 14.48 553.965 14.9067 553.965 15.44V18.96C555.298 17.04 556.685 15.6533 558.125 14.8C559.618 13.8933 561.272 13.44 563.085 13.44ZM557.485 38.16C559.672 38.16 561.325 37.2267 562.445 35.36C563.618 33.4933 564.205 30.7467 564.205 27.12C564.205 23.9733 563.778 21.5733 562.925 19.92C562.072 18.2133 560.845 17.36 559.245 17.36C557.112 17.36 555.352 18.7733 553.965 21.6V37.12C554.978 37.8133 556.152 38.16 557.485 38.16ZM585.118 22.32C583.998 22.96 582.665 23.28 581.118 23.28C579.998 23.28 579.118 22.96 578.478 22.32C577.838 21.6267 577.518 20.6667 577.518 19.44C577.518 17.6267 578.398 16.1867 580.158 15.12C581.971 14 584.318 13.44 587.198 13.44C590.611 13.44 593.278 14.1867 595.198 15.68C597.171 17.1733 598.158 19.2 598.158 21.76V35.6C598.158 37.0933 598.691 37.84 599.758 37.84C600.771 37.84 601.758 37.44 602.718 36.64L603.358 37.44C601.385 39.6267 599.038 40.72 596.318 40.72C594.718 40.72 593.491 40.32 592.638 39.52C591.838 38.72 591.358 37.4667 591.198 35.76H590.878C590.025 37.3067 588.878 38.5333 587.438 39.44C586.051 40.2933 584.451 40.72 582.638 40.72C580.611 40.72 578.985 40.1067 577.758 38.88C576.531 37.6 575.918 35.9467 575.918 33.92C575.918 31.6267 577.011 29.8133 579.198 28.48C581.385 27.1467 584.345 26.48 588.078 26.48C588.771 26.48 589.758 26.5333 591.038 26.64V22.64C591.038 20.0267 590.718 18.16 590.078 17.04C589.438 15.8667 588.398 15.28 586.958 15.28C585.945 15.28 585.145 15.6 584.558 16.24C583.971 16.88 583.678 17.7067 583.678 18.72C583.678 20.32 584.158 21.52 585.118 22.32ZM586.318 36.72C589.465 36.72 591.038 33.8667 591.038 28.16C588.371 28.16 586.371 28.6133 585.038 29.52C583.705 30.3733 583.038 31.6 583.038 33.2C583.038 34.2667 583.331 35.12 583.918 35.76C584.505 36.4 585.305 36.72 586.318 36.72ZM615.217 35.44C615.217 37.04 615.724 37.84 616.737 37.84C617.75 37.84 618.737 37.44 619.697 36.64L620.337 37.44C618.364 39.6267 616.044 40.72 613.377 40.72C611.457 40.72 610.07 40.24 609.217 39.28C608.364 38.2667 607.937 36.64 607.937 34.4V18.56C607.937 17.8133 607.59 17.44 606.897 17.44H604.417L604.177 16.56C605.244 15.6533 606.577 14.9067 608.177 14.32C609.777 13.7333 611.377 13.44 612.977 13.44C613.617 13.44 614.15 13.6 614.577 13.92C615.004 14.24 615.217 14.6667 615.217 15.2V35.44ZM607.137 5.76C607.137 4.8 607.67 3.73333 608.737 2.56C609.804 1.38667 610.79 0.799999 611.697 0.799999C612.657 0.799999 613.67 1.38667 614.737 2.56C615.857 3.73333 616.417 4.8 616.417 5.76C616.417 6.77333 615.857 7.86667 614.737 9.04C613.67 10.16 612.657 10.72 611.697 10.72C610.79 10.72 609.804 10.16 608.737 9.04C607.67 7.86667 607.137 6.77333 607.137 5.76ZM630.97 47.52C630.97 48.6933 631.317 49.6533 632.01 50.4C632.757 51.1467 633.69 51.52 634.81 51.52C638.543 51.52 640.41 48.48 640.41 42.4V34.64C639.077 36.1867 637.69 37.3333 636.25 38.08C634.81 38.8267 633.21 39.2 631.45 39.2C628.837 39.2 626.703 38.1067 625.05 35.92C623.45 33.7333 622.65 30.8533 622.65 27.28C622.65 23.0133 623.957 19.6533 626.57 17.2C629.183 14.6933 632.703 13.44 637.13 13.44C638.303 13.44 639.583 13.5467 640.97 13.76C642.41 13.9733 643.29 14.1067 643.61 14.16C645.85 14.48 647.397 14.6933 648.25 14.8L648.89 15.44L648.25 16.4C647.77 17.04 647.53 17.7067 647.53 18.4V40C647.53 44.2133 646.303 47.4667 643.85 49.76C641.45 52.1067 638.09 53.28 633.77 53.28C631.103 53.28 628.943 52.7733 627.29 51.76C625.637 50.7467 624.81 49.4133 624.81 47.76C624.81 46.32 625.237 45.1467 626.09 44.24C626.943 43.3867 628.063 42.96 629.45 42.96C630.463 42.96 631.45 43.1733 632.41 43.6C631.45 44.56 630.97 45.8667 630.97 47.52ZM635.29 35.36C637.423 35.36 639.103 34.24 640.33 32V16.08C639.103 15.5467 637.93 15.28 636.81 15.28C634.783 15.28 633.237 16.1867 632.17 18C631.157 19.76 630.65 22.3467 630.65 25.76C630.65 28.8533 631.05 31.2267 631.85 32.88C632.65 34.5333 633.797 35.36 635.29 35.36ZM681.727 35.44C681.727 37.04 682.234 37.84 683.247 37.84C684.26 37.84 685.247 37.44 686.207 36.64L686.847 37.44C684.874 39.6267 682.554 40.72 679.887 40.72C677.967 40.72 676.58 40.24 675.727 39.28C674.927 38.2667 674.527 36.64 674.527 34.4V22.16C674.527 19.0667 673.54 17.52 671.567 17.52C669.647 17.52 668.074 18.8267 666.847 21.44C665.674 24.0533 665.087 27.4667 665.087 31.68C665.087 33.28 665.22 34.5867 665.487 35.6C665.754 36.56 666.18 37.4933 666.767 38.4L667.407 39.2L666.767 40H655.167L654.687 38.64L655.807 38.4C656.66 38.1867 657.22 37.8667 657.487 37.44C657.754 36.96 657.887 36.0533 657.887 34.72V19.12C657.887 18.1067 657.54 17.6 656.847 17.6H654.287L654.047 16.72C655.114 15.8133 656.447 15.0667 658.047 14.48C659.647 13.8933 661.247 13.6 662.847 13.6C663.54 13.6 664.074 13.76 664.447 14.08C664.874 14.4 665.087 14.8267 665.087 15.36V22.24C665.834 19.7333 667.167 17.6533 669.087 16C671.007 14.2933 673.034 13.44 675.167 13.44C677.46 13.44 679.114 14.1867 680.127 15.68C681.194 17.1733 681.727 19.5467 681.727 22.8V35.44Z" fill="#FBBC04"/>
</svg>
