<svg width="100" height="80" viewBox="0 0 182 93" fill="none" xmlns="http://www.w3.org/2000/svg">
<path d="M0.8 66.48C3.13333 65.8267 4.81333 65.22 5.84 64.66C6.86667 64.0067 7.56667 63.1667 7.94 62.14C8.31333 61.1133 8.5 59.5267 8.5 57.38V21.96C8.5 18.2267 8.22 15.2867 7.66 13.14C7.1 10.9933 6.02667 8.84666 4.44 6.7L3.32 5.16L4.44 3.62H33.84C38.9733 3.62 42.4267 3.01333 44.2 1.8L45.88 0.539997L47.28 1.8V19.3L44.48 20.28C42.8 15.24 41.12 11.7867 39.44 9.92C37.8533 8.05333 35.52 7.12 32.44 7.12H27.82C25.3933 7.12 23.8067 7.58666 23.06 8.52C22.3133 9.36 21.94 11.2267 21.94 14.12V35.12H31.88C35.52 35.12 37.9 33.72 39.02 30.92L39.72 28.96L41.54 29.94V45.62L38.46 46.74L37.9 43.8C37.5267 41.7467 36.6867 40.3933 35.38 39.74C34.0733 38.9933 31.6 38.62 27.96 38.62H21.94V50.66C21.94 54.3 22.22 57.24 22.78 59.48C23.4333 61.6267 24.5533 63.7733 26.14 65.92L27.26 67.6L26.14 69H1.78L0.8 66.48ZM107.213 56.4C108.146 59.0133 109.173 61.1133 110.293 62.7C111.413 64.1933 113.14 65.8267 115.473 67.6L114.213 69H88.8731L88.0331 66.48L90.1331 65.92C91.5331 65.4533 92.5131 64.8933 93.0731 64.24C93.7265 63.4933 94.0531 62.5133 94.0531 61.3C94.0531 60.5533 93.5398 58.64 92.5131 55.56L89.7131 47.3H68.0131L66.8931 50.8C65.4931 55 64.7931 58.1733 64.7931 60.32C64.7931 62.3733 65.1665 64.24 65.9131 65.92L66.8931 67.6L65.6331 69H50.2331L49.2531 66.48L51.3531 65.92C53.5931 65.2667 55.2731 64.38 56.3931 63.26C57.5131 62.0467 58.5865 59.9467 59.6131 56.96L73.8931 15.8C74.5465 13.4667 74.8731 11.8333 74.8731 10.9C74.8731 8.84667 73.3798 7.4 70.3931 6.56L68.8531 6.14L69.8331 3.62H88.8731L107.213 56.4ZM88.3131 43.38L78.7931 14.96L69.4131 43.38H88.3131ZM171.021 87.48C172.888 87.48 174.521 87.06 175.921 86.22C177.415 85.38 178.815 84.12 180.121 82.44L181.801 83.7C179.935 86.5933 177.881 88.74 175.641 90.14C173.495 91.54 170.835 92.24 167.661 92.24C164.021 92.24 161.035 91.4933 158.701 90C156.368 88.5067 154.315 86.2667 152.541 83.28C150.768 80.3867 148.575 76 145.961 70.12C137.375 69.28 130.608 65.8733 125.661 59.9C120.808 53.9267 118.381 46.0867 118.381 36.38C118.381 25.9267 121.228 17.6667 126.921 11.6C132.615 5.44 140.315 2.36 150.021 2.36C159.728 2.36 167.428 5.44 173.121 11.6C178.908 17.6667 181.801 25.9267 181.801 36.38C181.801 45.34 179.608 52.76 175.221 58.64C170.835 64.52 164.815 68.16 157.161 69.56C158.095 71.6133 158.748 73.1533 159.121 74.18C161.175 78.8467 162.948 82.2067 164.441 84.26C166.028 86.4067 168.221 87.48 171.021 87.48ZM132.521 37.08C132.521 46.1333 134.061 53.4133 137.141 58.92C140.221 64.3333 144.375 67.04 149.601 67.04C153.055 67.04 156.088 65.78 158.701 63.26C161.408 60.6467 163.508 57.0533 165.001 52.48C166.495 47.9067 167.241 42.6333 167.241 36.66C167.241 30.6867 166.495 25.32 165.001 20.56C163.601 15.8 161.595 12.1133 158.981 9.5C156.461 6.79333 153.568 5.44 150.301 5.44C146.848 5.44 143.768 6.79333 141.061 9.5C138.355 12.1133 136.255 15.8467 134.761 20.7C133.268 25.46 132.521 30.92 132.521 37.08Z" fill="#FBBC04"/>
</svg>
