<svg width="334" height="50" viewBox="0 0 334 50" fill="none" xmlns="http://www.w3.org/2000/svg">
<path d="M42.1 29L41.3 30.1C40.3667 31.3 39.7333 32.6 39.4 34C39.1333 35.4 39 37.5333 39 40.4V49L38 49.4L32.8 46.7C29.5333 48.8333 25.8667 49.9 21.8 49.9C15.1333 49.9 9.83333 47.7333 5.9 43.4C2.03333 39.0667 0.1 33.2333 0.1 25.9C0.1 18.3667 2.2 12.4 6.4 8C10.6667 3.6 16.4 1.4 23.6 1.4C28.2 1.4 31.9333 2.3 34.8 4.1C37.7333 5.83333 39.2 8.13333 39.2 11C39.2 13.8 38.0333 16 35.7 17.6C33.3667 19.2 30.4333 20 26.9 20C27.8333 18.8667 28.5667 17.6667 29.1 16.4C29.6333 15.0667 29.9 13.3667 29.9 11.3C29.9 9.03333 29.2333 7.23333 27.9 5.9C26.5667 4.5 24.9 3.8 22.9 3.8C19.1667 3.8 16.1667 5.83333 13.9 9.9C11.7 13.9 10.6 19.2333 10.6 25.9C10.6 29.8333 11.1667 33.3667 12.3 36.5C13.5 39.5667 15.1333 41.9667 17.2 43.7C19.2667 45.4333 21.6333 46.3 24.3 46.3C26.3 46.3 28.2333 45.9333 30.1 45.2V36.2C30.1 34.6667 29.9667 33.5667 29.7 32.9C29.4333 32.1667 28.9333 31.6 28.2 31.2C27.4667 30.7333 26.2667 30.2667 24.6 29.8L25.2 27.9H41.3L42.1 29ZM71.0891 39.9C70.1557 42.8333 68.5224 45.2333 66.1891 47.1C63.9224 48.9667 61.4891 49.9 58.8891 49.9C55.9557 49.9 53.7891 48.9667 52.3891 47.1C50.9891 45.2333 50.2891 42.3667 50.2891 38.5V22.2C50.2891 21.2667 49.8557 20.8 48.9891 20.8H45.8891L45.5891 19.7C46.9224 18.5667 48.5891 17.6333 50.5891 16.9C52.5891 16.1667 54.5557 15.8 56.4891 15.8C57.3557 15.8 58.0224 16 58.4891 16.4C59.0224 16.8 59.2891 17.3333 59.2891 18V38C59.2891 40.2667 59.6224 42.0333 60.2891 43.3C60.9557 44.5 61.8891 45.1 63.0891 45.1C65.5557 45.1 67.5224 43.6 68.9891 40.6C70.5224 37.5333 71.2891 33.5667 71.2891 28.7C71.2891 26.1 71.0891 24.1 70.6891 22.7C70.3557 21.2333 69.7224 19.9667 68.7891 18.9L67.8891 17.8L68.6891 16.9L80.1891 16V43.3C80.1891 45.3 80.7891 46.3 81.9891 46.3C83.2557 46.3 84.4891 45.8 85.6891 44.8L86.4891 45.8C84.1557 48.5333 81.2557 49.9 77.7891 49.9C75.2557 49.9 73.4891 49.1667 72.4891 47.7C71.5557 46.2333 71.0891 43.6333 71.0891 39.9ZM102.06 43.3C102.06 45.3 102.693 46.3 103.96 46.3C105.227 46.3 106.46 45.8 107.66 44.8L108.46 45.8C105.993 48.5333 103.093 49.9 99.7602 49.9C97.3602 49.9 95.6268 49.3 94.5602 48.1C93.4935 46.8333 92.9602 44.8 92.9602 42V22.2C92.9602 21.2667 92.5268 20.8 91.6602 20.8H88.5602L88.2602 19.7C89.5935 18.5667 91.2602 17.6333 93.2602 16.9C95.2602 16.1667 97.2602 15.8 99.2602 15.8C100.06 15.8 100.727 16 101.26 16.4C101.793 16.8 102.06 17.3333 102.06 18V43.3ZM91.9602 6.2C91.9602 5 92.6268 3.66667 93.9602 2.2C95.2935 0.733332 96.5268 -9.53674e-07 97.6602 -9.53674e-07C98.8602 -9.53674e-07 100.127 0.733332 101.46 2.2C102.86 3.66667 103.56 5 103.56 6.2C103.56 7.46666 102.86 8.83333 101.46 10.3C100.127 11.7 98.8602 12.4 97.6602 12.4C96.5268 12.4 95.2935 11.7 93.9602 10.3C92.6268 8.83333 91.9602 7.46666 91.9602 6.2ZM148.852 45.8C146.385 48.5333 143.485 49.9 140.152 49.9C138.085 49.9 136.552 49.4667 135.552 48.6C134.552 47.6667 133.885 46.1667 133.552 44.1C131.818 46.1 130.018 47.5667 128.152 48.5C126.285 49.4333 124.218 49.9 121.952 49.9C118.618 49.9 115.885 48.4333 113.752 45.5C111.685 42.5667 110.652 38.7667 110.652 34.1C110.652 28.5 112.118 24.0667 115.052 20.8C117.985 17.4667 121.985 15.8 127.052 15.8C129.385 15.8 131.518 16.3333 133.452 17.4V6.3C133.452 5.36667 133.018 4.9 132.152 4.9H128.752L128.352 3.9C129.685 2.7 131.385 1.76666 133.452 1.1C135.518 0.366665 137.552 -9.53674e-07 139.552 -9.53674e-07C140.418 -9.53674e-07 141.118 0.199998 141.652 0.599997C142.185 0.93333 142.452 1.43333 142.452 2.1V43.3C142.452 45.3 143.085 46.3 144.352 46.3C145.618 46.3 146.852 45.8 148.052 44.8L148.852 45.8ZM127.152 45.1C129.685 45.1 131.785 43.7 133.452 40.9V19.4C132.118 18.7333 130.652 18.4 129.052 18.4C123.452 18.4 120.652 23.2333 120.652 32.9C120.652 36.8333 121.185 39.8667 122.252 42C123.385 44.0667 125.018 45.1 127.152 45.1ZM170.572 46.6C172.505 46.6 174.205 46.2667 175.672 45.6C177.139 44.8667 178.572 43.6667 179.972 42L181.172 42.9C179.639 45.1 177.672 46.8333 175.272 48.1C172.939 49.3 170.372 49.9 167.572 49.9C164.505 49.9 161.739 49.1667 159.272 47.7C156.872 46.2333 154.972 44.2333 153.572 41.7C152.172 39.1 151.472 36.1667 151.472 32.9C151.472 27.7 153.039 23.5667 156.172 20.5C159.372 17.3667 163.605 15.8 168.872 15.8C172.605 15.8 175.639 16.7 177.972 18.5C180.372 20.2333 181.572 22.5 181.572 25.3C181.572 28.5 180.205 31.0667 177.472 33C174.805 34.8667 171.139 35.8 166.472 35.8C164.605 35.8 162.905 35.6667 161.372 35.4C161.705 38.8667 162.705 41.6 164.372 43.6C166.039 45.6 168.105 46.6 170.572 46.6ZM167.772 18.2C165.705 18.2 164.072 19.4667 162.872 22C161.739 24.4667 161.172 27.9333 161.172 32.4V34C161.905 34 162.805 33.9333 163.872 33.8C166.672 33.4667 168.805 32.5667 170.272 31.1C171.805 29.5667 172.572 27.5667 172.572 25.1C172.572 23.1 172.105 21.4667 171.172 20.2C170.305 18.8667 169.172 18.2 167.772 18.2ZM197.845 43.3C197.845 45.3 198.478 46.3 199.745 46.3C201.011 46.3 202.245 45.8 203.445 44.8L204.245 45.8C201.911 48.5333 199.011 49.9 195.545 49.9C193.211 49.9 191.511 49.3667 190.445 48.3C189.378 47.1667 188.845 45.4 188.845 43V6.3C188.845 5.36667 188.411 4.9 187.545 4.9H184.345L184.045 3.9C185.311 2.7 186.945 1.76666 188.945 1.1C191.011 0.366665 193.045 -9.53674e-07 195.045 -9.53674e-07C195.911 -9.53674e-07 196.578 0.199998 197.045 0.599997C197.578 0.93333 197.845 1.43333 197.845 2.1V43.3ZM219.052 43.3C219.052 45.3 219.686 46.3 220.952 46.3C222.219 46.3 223.452 45.8 224.652 44.8L225.452 45.8C222.986 48.5333 220.086 49.9 216.752 49.9C214.352 49.9 212.619 49.3 211.552 48.1C210.486 46.8333 209.952 44.8 209.952 42V22.2C209.952 21.2667 209.519 20.8 208.652 20.8H205.552L205.252 19.7C206.586 18.5667 208.252 17.6333 210.252 16.9C212.252 16.1667 214.252 15.8 216.252 15.8C217.052 15.8 217.719 16 218.252 16.4C218.786 16.8 219.052 17.3333 219.052 18V43.3ZM208.952 6.2C208.952 5 209.619 3.66667 210.952 2.2C212.286 0.733332 213.519 -9.53674e-07 214.652 -9.53674e-07C215.852 -9.53674e-07 217.119 0.733332 218.452 2.2C219.852 3.66667 220.552 5 220.552 6.2C220.552 7.46666 219.852 8.83333 218.452 10.3C217.119 11.7 215.852 12.4 214.652 12.4C213.519 12.4 212.286 11.7 210.952 10.3C209.619 8.83333 208.952 7.46666 208.952 6.2ZM262.444 43.3C262.444 45.3 263.077 46.3 264.344 46.3C265.61 46.3 266.844 45.8 268.044 44.8L268.844 45.8C266.377 48.5333 263.477 49.9 260.144 49.9C257.744 49.9 256.01 49.3 254.944 48.1C253.944 46.8333 253.444 44.8 253.444 42V26.7C253.444 22.8333 252.21 20.9 249.744 20.9C247.344 20.9 245.377 22.5333 243.844 25.8C242.377 29.0667 241.644 33.3333 241.644 38.6C241.644 40.6 241.81 42.2333 242.144 43.5C242.477 44.7 243.01 45.8667 243.744 47L244.544 48L243.744 49H229.244L228.644 47.3L230.044 47C231.11 46.7333 231.81 46.3333 232.144 45.8C232.477 45.2 232.644 44.0667 232.644 42.4V22.9C232.644 21.6333 232.21 21 231.344 21H228.144L227.844 19.9C229.177 18.7667 230.844 17.8333 232.844 17.1C234.844 16.3667 236.844 16 238.844 16C239.71 16 240.377 16.2 240.844 16.6C241.377 17 241.644 17.5333 241.644 18.2V26.8C242.577 23.6667 244.244 21.0667 246.644 19C249.044 16.8667 251.577 15.8 254.244 15.8C257.11 15.8 259.177 16.7333 260.444 18.6C261.777 20.4667 262.444 23.4333 262.444 27.5V43.3ZM290.884 46.6C292.818 46.6 294.518 46.2667 295.984 45.6C297.451 44.8667 298.884 43.6667 300.284 42L301.484 42.9C299.951 45.1 297.984 46.8333 295.584 48.1C293.251 49.3 290.684 49.9 287.884 49.9C284.818 49.9 282.051 49.1667 279.584 47.7C277.184 46.2333 275.284 44.2333 273.884 41.7C272.484 39.1 271.784 36.1667 271.784 32.9C271.784 27.7 273.351 23.5667 276.484 20.5C279.684 17.3667 283.918 15.8 289.184 15.8C292.918 15.8 295.951 16.7 298.284 18.5C300.684 20.2333 301.884 22.5 301.884 25.3C301.884 28.5 300.518 31.0667 297.784 33C295.118 34.8667 291.451 35.8 286.784 35.8C284.918 35.8 283.218 35.6667 281.684 35.4C282.018 38.8667 283.018 41.6 284.684 43.6C286.351 45.6 288.418 46.6 290.884 46.6ZM288.084 18.2C286.018 18.2 284.384 19.4667 283.184 22C282.051 24.4667 281.484 27.9333 281.484 32.4V34C282.218 34 283.118 33.9333 284.184 33.8C286.984 33.4667 289.118 32.5667 290.584 31.1C292.118 29.5667 292.884 27.5667 292.884 25.1C292.884 23.1 292.418 21.4667 291.484 20.2C290.618 18.8667 289.484 18.2 288.084 18.2ZM316.157 22.6C316.157 24.2667 316.79 25.6333 318.057 26.7C319.39 27.7 321.39 28.8333 324.057 30.1C326.257 31.1667 327.957 32.1 329.157 32.9C330.357 33.6333 331.39 34.6333 332.257 35.9C333.19 37.1667 333.657 38.6667 333.657 40.4C333.657 43.2667 332.29 45.5667 329.557 47.3C326.89 49.0333 323.29 49.9 318.757 49.9C315.357 49.9 312.557 49.3 310.357 48.1C308.157 46.8333 307.057 45.2 307.057 43.2C307.057 41.8667 307.557 40.7667 308.557 39.9C309.557 38.9667 310.79 38.5 312.257 38.5C313.39 38.5 314.524 38.7333 315.657 39.2C314.524 40.0667 313.957 41.4667 313.957 43.4C313.957 44.7333 314.424 45.7667 315.357 46.5C316.29 47.2333 317.424 47.6 318.757 47.6C320.29 47.6 321.59 47.2 322.657 46.4C323.79 45.6 324.357 44.4667 324.357 43C324.357 41.6 323.79 40.5 322.657 39.7C321.59 38.8333 319.89 37.8333 317.557 36.7C315.424 35.7 313.69 34.8 312.357 34C311.09 33.1333 309.99 32 309.057 30.6C308.124 29.2 307.657 27.5 307.657 25.5C307.657 22.5 308.924 20.1333 311.457 18.4C313.99 16.6667 317.19 15.8 321.057 15.8C324.457 15.8 327.224 16.4333 329.357 17.7C331.557 18.9667 332.657 20.6 332.657 22.6C332.657 24.1333 332.19 25.2667 331.257 26C330.324 26.7333 329.124 27.1 327.657 27.1C326.257 27.1 325.024 26.8 323.957 26.2C325.157 25.0667 325.757 23.6333 325.757 21.9C325.757 20.7667 325.324 19.8667 324.457 19.2C323.59 18.4667 322.457 18.1 321.057 18.1C319.524 18.1 318.324 18.5333 317.457 19.4C316.59 20.2667 316.157 21.3333 316.157 22.6Z" fill="#FBBC04"/>
<path d="M42.1 29L42.9087 29.5882L43.3365 29L42.9087 28.4118L42.1 29ZM41.3 30.1L42.0894 30.7139L42.0993 30.7012L42.1087 30.6882L41.3 30.1ZM39.4 34L38.4272 33.7684L38.4219 33.7905L38.4177 33.8129L39.4 34ZM39 49L39.3714 49.9285L40 49.677V49H39ZM38 49.4L37.5392 50.2875L37.9459 50.4987L38.3714 50.3285L38 49.4ZM32.8 46.7L33.2608 45.8125L32.7423 45.5433L32.2532 45.8627L32.8 46.7ZM5.9 43.4L5.15383 44.0658L5.15955 44.0721L5.9 43.4ZM6.4 8L5.68208 7.30383L5.67665 7.30952L6.4 8ZM34.8 4.1L34.2682 4.94689L34.2797 4.95406L34.2913 4.96092L34.8 4.1ZM35.7 17.6L36.2655 18.4247L36.2655 18.4247L35.7 17.6ZM26.9 20L26.1281 19.3643L24.781 21H26.9V20ZM29.1 16.4L30.0216 16.7881L30.0251 16.7798L30.0285 16.7714L29.1 16.4ZM27.9 5.9L27.1759 6.58965L27.1843 6.59848L27.1929 6.6071L27.9 5.9ZM13.9 9.9L13.0265 9.41313L13.0238 9.41808L13.9 9.9ZM12.3 36.5L11.3596 36.8401L11.364 36.8523L11.3688 36.8644L12.3 36.5ZM17.2 43.7L16.5574 44.4662L16.5574 44.4662L17.2 43.7ZM30.1 45.2L30.4657 46.1308L31.1 45.8815V45.2H30.1ZM29.7 32.9L28.7602 33.2417L28.7656 33.2567L28.7715 33.2714L29.7 32.9ZM28.2 31.2L27.6631 32.0437L27.6916 32.0618L27.7211 32.0779L28.2 31.2ZM24.6 29.8L23.6464 29.4989L23.3352 30.4843L24.3304 30.763L24.6 29.8ZM25.2 27.9V26.9H24.4671L24.2464 27.5989L25.2 27.9ZM41.3 27.9L42.1087 27.3118L41.8092 26.9H41.3V27.9ZM41.2913 28.4118L40.4913 29.5118L42.1087 30.6882L42.9087 29.5882L41.2913 28.4118ZM40.5107 29.4861C39.4946 30.7924 38.7955 32.2215 38.4272 33.7684L40.3728 34.2316C40.6712 32.9785 41.2388 31.8076 42.0894 30.7139L40.5107 29.4861ZM38.4177 33.8129C38.1326 35.3093 38 37.5201 38 40.4H40C40 37.5466 40.134 35.4907 40.3823 34.1871L38.4177 33.8129ZM38 40.4V49H40V40.4H38ZM38.6286 48.0715L37.6286 48.4715L38.3714 50.3285L39.3714 49.9285L38.6286 48.0715ZM38.4608 48.5125L33.2608 45.8125L32.3392 47.5875L37.5392 50.2875L38.4608 48.5125ZM32.2532 45.8627C29.1563 47.8852 25.6811 48.9 21.8 48.9V50.9C26.0522 50.9 29.9104 49.7814 33.3468 47.5373L32.2532 45.8627ZM21.8 48.9C15.372 48.9 10.3569 46.8223 6.64046 42.7279L5.15955 44.0721C9.30973 48.6443 14.8947 50.9 21.8 50.9V48.9ZM6.64614 42.7342C2.98255 38.6285 1.1 33.0545 1.1 25.9H-0.9C-0.9 33.4121 1.08412 39.5049 5.15386 44.0658L6.64614 42.7342ZM1.1 25.9C1.1 18.5593 3.14097 12.8625 7.12336 8.69047L5.67665 7.30952C1.25903 11.9375 -0.9 18.174 -0.9 25.9H1.1ZM7.1179 8.69614C11.1633 4.52428 16.6194 2.4 23.6 2.4V0.399999C16.1806 0.399999 10.17 2.67571 5.6821 7.30385L7.1179 8.69614ZM23.6 2.4C28.0772 2.4 31.6084 3.27677 34.2682 4.94689L35.3318 3.25311C32.2583 1.32323 28.3228 0.399999 23.6 0.399999V2.4ZM34.2913 4.96092C36.9878 6.55434 38.2 8.55912 38.2 11H40.2C40.2 7.70754 38.4788 5.11232 35.3087 3.23907L34.2913 4.96092ZM38.2 11C38.2 13.4662 37.1993 15.3594 35.1345 16.7753L36.2655 18.4247C38.8674 16.6406 40.2 14.1338 40.2 11H38.2ZM35.1345 16.7753C33.0049 18.2355 30.282 19 26.9 19V21C30.5847 21 33.7284 20.1645 36.2655 18.4247L35.1345 16.7753ZM27.6719 20.6357C28.6627 19.4326 29.4482 18.15 30.0216 16.7881L28.1784 16.0119C27.6851 17.1833 27.004 18.3007 26.1281 19.3643L27.6719 20.6357ZM30.0285 16.7714C30.625 15.2802 30.9 13.4426 30.9 11.3H28.9C28.9 13.2907 28.6417 14.8531 28.1715 16.0286L30.0285 16.7714ZM30.9 11.3C30.9 8.82545 30.165 6.75075 28.6071 5.19289L27.1929 6.6071C28.3017 7.71592 28.9 9.24122 28.9 11.3H30.9ZM28.6241 5.21034C27.0949 3.6046 25.1631 2.8 22.9 2.8V4.8C24.637 4.8 26.0385 5.3954 27.1759 6.58965L28.6241 5.21034ZM22.9 2.8C18.7098 2.8 15.4186 5.12153 13.0265 9.41314L14.7735 10.3869C16.9148 6.54513 19.6235 4.8 22.9 4.8V2.8ZM13.0238 9.41808C10.7137 13.6182 9.6 19.1371 9.6 25.9H11.6C11.6 19.3296 12.6863 14.1818 14.7762 10.3819L13.0238 9.41808ZM9.6 25.9C9.6 29.9289 10.1804 33.58 11.3596 36.8401L13.2404 36.1599C12.1529 33.1533 11.6 29.7378 11.6 25.9H9.6ZM11.3688 36.8644C12.6164 40.0529 14.3369 42.6039 16.5574 44.4662L17.8426 42.9338C15.9297 41.3294 14.3836 39.0804 13.2312 36.1356L11.3688 36.8644ZM16.5574 44.4662C18.8019 46.3487 21.3954 47.3 24.3 47.3V45.3C21.8713 45.3 19.7315 44.518 17.8426 42.9338L16.5574 44.4662ZM24.3 47.3C26.4255 47.3 28.4828 46.9097 30.4657 46.1308L29.7343 44.2692C27.9838 44.957 26.1745 45.3 24.3 45.3V47.3ZM31.1 45.2V36.2H29.1V45.2H31.1ZM31.1 36.2C31.1 34.651 30.9711 33.3852 30.6285 32.5286L28.7715 33.2714C28.9622 33.7481 29.1 34.6823 29.1 36.2H31.1ZM30.6398 32.5583C30.2837 31.5791 29.6096 30.8298 28.6789 30.3221L27.7211 32.0779C28.2571 32.3702 28.5829 32.7542 28.7602 33.2417L30.6398 32.5583ZM28.7369 30.3563C27.8743 29.8075 26.5567 29.3094 24.8696 28.837L24.3304 30.763C25.9767 31.2239 27.059 31.6592 27.6631 32.0437L28.7369 30.3563ZM25.5536 30.1011L26.1536 28.2011L24.2464 27.5989L23.6464 29.4989L25.5536 30.1011ZM25.2 28.9H41.3V26.9H25.2V28.9ZM40.4913 28.4882L41.2913 29.5882L42.9087 28.4118L42.1087 27.3118L40.4913 28.4882ZM71.0891 39.9H72.0891L70.1361 39.5968L71.0891 39.9ZM66.1891 47.1L65.5644 46.3191L65.5588 46.3236L65.5534 46.3281L66.1891 47.1ZM52.3891 47.1L51.5891 47.7L51.5891 47.7L52.3891 47.1ZM45.8891 20.8L44.9243 21.0631L45.1253 21.8H45.8891V20.8ZM45.5891 19.7L44.9414 18.9381L44.457 19.3498L44.6243 19.9631L45.5891 19.7ZM58.4891 16.4L57.8383 17.1593L57.863 17.1805L57.8891 17.2L58.4891 16.4ZM60.2891 43.3L59.4041 43.7657L59.4094 43.7758L59.4149 43.7856L60.2891 43.3ZM68.9891 40.6L68.0946 40.1528L68.0907 40.1608L68.9891 40.6ZM70.6891 22.7L69.7139 22.9216L69.72 22.9484L69.7275 22.9747L70.6891 22.7ZM68.7891 18.9L68.0151 19.5332L68.0256 19.546L68.0365 19.5585L68.7891 18.9ZM67.8891 17.8L67.1417 17.1356L66.575 17.7731L67.1151 18.4332L67.8891 17.8ZM68.6891 16.9L68.611 15.903L68.2093 15.9345L67.9417 16.2356L68.6891 16.9ZM80.1891 16H81.1891V14.9187L80.111 15.003L80.1891 16ZM85.6891 44.8L86.4699 44.1753L85.8326 43.3787L85.0489 44.0318L85.6891 44.8ZM86.4891 45.8L87.2496 46.4493L87.7862 45.8207L87.2699 45.1753L86.4891 45.8ZM72.4891 47.7L71.6454 48.2369L71.6539 48.2502L71.6628 48.2633L72.4891 47.7ZM70.1361 39.5968C69.2608 42.348 67.7387 44.5797 65.5644 46.3191L66.8138 47.8809C69.3061 45.887 71.0507 43.3187 72.042 40.2032L70.1361 39.5968ZM65.5534 46.3281C63.4412 48.0675 61.2272 48.9 58.8891 48.9V50.9C61.7509 50.9 64.4036 49.8658 66.8248 47.8719L65.5534 46.3281ZM58.8891 48.9C56.1809 48.9 54.3522 48.0509 53.1891 46.5L51.5891 47.7C53.2259 49.8824 55.7306 50.9 58.8891 50.9V48.9ZM53.1891 46.5C51.9796 44.8874 51.2891 42.28 51.2891 38.5H49.2891C49.2891 42.4533 49.9985 45.5793 51.5891 47.7L53.1891 46.5ZM51.2891 38.5V22.2H49.2891V38.5H51.2891ZM51.2891 22.2C51.2891 21.5968 51.1506 20.9582 50.6969 20.4695C50.2302 19.967 49.5963 19.8 48.9891 19.8V21.8C49.2485 21.8 49.2646 21.8664 49.2313 21.8305C49.2109 21.8085 49.2891 21.8698 49.2891 22.2H51.2891ZM48.9891 19.8H45.8891V21.8H48.9891V19.8ZM46.8538 20.5369L46.5538 19.4369L44.6243 19.9631L44.9243 21.0631L46.8538 20.5369ZM46.2367 20.4619C47.463 19.4196 49.0208 18.5401 50.9333 17.8389L50.2448 15.9611C48.1573 16.7265 46.3818 17.7137 44.9414 18.9381L46.2367 20.4619ZM50.9333 17.8389C52.8342 17.1419 54.6845 16.8 56.4891 16.8V14.8C54.4269 14.8 52.3439 15.1915 50.2448 15.9611L50.9333 17.8389ZM56.4891 16.8C57.2139 16.8 57.6149 16.9678 57.8383 17.1593L59.1399 15.6407C58.4299 15.0322 57.4976 14.8 56.4891 14.8V16.8ZM57.8891 17.2C58.1706 17.4111 58.2891 17.6481 58.2891 18H60.2891C60.2891 17.0186 59.8742 16.1889 59.0891 15.6L57.8891 17.2ZM58.2891 18V38H60.2891V18H58.2891ZM58.2891 38C58.2891 40.3438 58.6303 42.2954 59.4041 43.7657L61.174 42.8343C60.6145 41.7713 60.2891 40.1895 60.2891 38H58.2891ZM59.4149 43.7856C60.2273 45.2479 61.4669 46.1 63.0891 46.1V44.1C62.3113 44.1 61.6842 43.7521 61.1632 42.8144L59.4149 43.7856ZM63.0891 46.1C66.0735 46.1 68.3223 44.2406 69.8874 41.0392L68.0907 40.1608C66.7225 42.9594 65.0379 44.1 63.0891 44.1V46.1ZM69.8835 41.0472C71.5091 37.7959 72.2891 33.661 72.2891 28.7H70.2891C70.2891 33.4723 69.5357 37.2707 68.0946 40.1528L69.8835 41.0472ZM72.2891 28.7C72.2891 26.0677 72.0887 23.9585 71.6506 22.4253L69.7275 22.9747C70.0895 24.2415 70.2891 26.1323 70.2891 28.7H72.2891ZM71.6642 22.4784C71.2964 20.8601 70.591 19.4407 69.5416 18.2415L68.0365 19.5585C68.8538 20.4926 69.4151 21.6066 69.7139 22.9216L71.6642 22.4784ZM69.563 18.2668L68.663 17.1668L67.1151 18.4332L68.0151 19.5332L69.563 18.2668ZM68.6365 18.4644L69.4365 17.5644L67.9417 16.2356L67.1417 17.1356L68.6365 18.4644ZM68.7671 17.897L80.2671 16.997L80.111 15.003L68.611 15.903L68.7671 17.897ZM79.1891 16V43.3H81.1891V16H79.1891ZM79.1891 43.3C79.1891 44.3674 79.3433 45.3341 79.7816 46.0645C80.2686 46.8763 81.0503 47.3 81.9891 47.3V45.3C81.7278 45.3 81.6095 45.2237 81.4966 45.0355C81.3348 44.7659 81.1891 44.2326 81.1891 43.3H79.1891ZM81.9891 47.3C83.5404 47.3 84.9928 46.6819 86.3293 45.5682L85.0489 44.0318C83.9853 44.9181 82.971 45.3 81.9891 45.3V47.3ZM84.9082 45.4247L85.7082 46.4247L87.2699 45.1753L86.4699 44.1753L84.9082 45.4247ZM85.7285 45.1507C83.5772 47.6709 80.951 48.9 77.7891 48.9V50.9C81.5604 50.9 84.7343 49.3958 87.2496 46.4493L85.7285 45.1507ZM77.7891 48.9C75.4345 48.9 74.0572 48.2249 73.3153 47.1367L71.6628 48.2633C72.9209 50.1085 75.077 50.9 77.7891 50.9V48.9ZM73.3327 47.1631C72.5659 45.9581 72.0891 43.6164 72.0891 39.9H70.0891C70.0891 43.6503 70.5456 46.5086 71.6454 48.2369L73.3327 47.1631ZM107.66 44.8L108.441 44.1753L107.804 43.3787L107.02 44.0318L107.66 44.8ZM108.46 45.8L109.203 46.47L109.772 45.839L109.241 45.1753L108.46 45.8ZM94.5602 48.1L93.7952 48.7441L93.8039 48.7544L93.8127 48.7644L94.5602 48.1ZM88.5602 20.8L87.5954 21.0631L87.7964 21.8H88.5602V20.8ZM88.2602 19.7L87.6125 18.9381L87.1281 19.3498L87.2954 19.9631L88.2602 19.7ZM93.2602 16.9L93.6044 17.8389L93.6044 17.8389L93.2602 16.9ZM101.26 16.4L100.66 17.2L100.66 17.2L101.26 16.4ZM93.9602 2.2L93.2202 1.52732L93.2202 1.52732L93.9602 2.2ZM101.46 2.2L100.72 2.87267L100.728 2.88167L100.737 2.89047L101.46 2.2ZM101.46 10.3L100.737 9.60952L100.736 9.61034L101.46 10.3ZM93.9602 10.3L93.2202 10.9727L93.228 10.9813L93.236 10.9897L93.9602 10.3ZM101.06 43.3C101.06 44.3733 101.224 45.3492 101.69 46.0851C102.205 46.8981 103.013 47.3 103.96 47.3V45.3C103.641 45.3 103.498 45.2019 103.38 45.0149C103.213 44.7508 103.06 44.2267 103.06 43.3H101.06ZM103.96 47.3C105.512 47.3 106.964 46.6819 108.3 45.5682L107.02 44.0318C105.956 44.9181 104.942 45.3 103.96 45.3V47.3ZM106.879 45.4247L107.679 46.4247L109.241 45.1753L108.441 44.1753L106.879 45.4247ZM107.718 45.13C105.419 47.6778 102.779 48.9 99.7602 48.9V50.9C103.408 50.9 106.568 49.3889 109.203 46.47L107.718 45.13ZM99.7602 48.9C97.5033 48.9 96.1068 48.3348 95.3076 47.4356L93.8127 48.7644C95.1468 50.2652 97.217 50.9 99.7602 50.9V48.9ZM95.3251 47.4559C94.4846 46.4578 93.9602 44.7137 93.9602 42H91.9602C91.9602 44.8863 92.5024 47.2089 93.7952 48.7441L95.3251 47.4559ZM93.9602 42V22.2H91.9602V42H93.9602ZM93.9602 22.2C93.9602 21.5968 93.8217 20.9582 93.3679 20.4695C92.9013 19.967 92.2674 19.8 91.6602 19.8V21.8C91.9196 21.8 91.9357 21.8664 91.9024 21.8305C91.882 21.8085 91.9602 21.8698 91.9602 22.2H93.9602ZM91.6602 19.8H88.5602V21.8H91.6602V19.8ZM89.5249 20.5369L89.2249 19.4369L87.2954 19.9631L87.5954 21.0631L89.5249 20.5369ZM88.9078 20.4619C90.1341 19.4196 91.6919 18.5401 93.6044 17.8389L92.9159 15.9611C90.8284 16.7265 89.0529 17.7137 87.6125 18.9381L88.9078 20.4619ZM93.6044 17.8389C95.5014 17.1433 97.3851 16.8 99.2602 16.8V14.8C97.1352 14.8 95.0189 15.19 92.9159 15.9611L93.6044 17.8389ZM99.2602 16.8C99.8883 16.8 100.332 16.9542 100.66 17.2L101.86 15.6C101.121 15.0458 100.232 14.8 99.2602 14.8V16.8ZM100.66 17.2C100.942 17.4111 101.06 17.6481 101.06 18H103.06C103.06 17.0186 102.645 16.1889 101.86 15.6L100.66 17.2ZM101.06 18V43.3H103.06V18H101.06ZM92.9602 6.2C92.9602 5.36741 93.432 4.2676 94.7001 2.87267L93.2202 1.52732C91.8217 3.06573 90.9602 4.63258 90.9602 6.2H92.9602ZM94.7001 2.87267C95.9772 1.46787 96.9593 0.999999 97.6602 0.999999V-1C96.0943 -1 94.6098 -0.00120654 93.2202 1.52732L94.7001 2.87267ZM97.6602 0.999999C98.4401 0.999999 99.4574 1.48358 100.72 2.87267L102.2 1.52732C100.796 -0.0169143 99.2802 -1 97.6602 -1V0.999999ZM100.737 2.89047C102.074 4.29088 102.56 5.38519 102.56 6.2H104.56C104.56 4.61481 103.647 3.04246 102.184 1.50952L100.737 2.89047ZM102.56 6.2C102.56 7.09239 102.061 8.2221 100.737 9.60952L102.184 10.9905C103.659 9.44456 104.56 7.84094 104.56 6.2H102.56ZM100.736 9.61034C99.4799 10.9292 98.4586 11.4 97.6602 11.4V13.4C99.2617 13.4 100.774 12.4708 102.184 10.9897L100.736 9.61034ZM97.6602 11.4C96.9407 11.4 95.9545 10.9441 94.6843 9.61034L93.236 10.9897C94.6325 12.4559 96.1129 13.4 97.6602 13.4V11.4ZM94.7001 9.62732C93.4436 8.24513 92.9602 7.10996 92.9602 6.2H90.9602C90.9602 7.82337 91.8101 9.42153 93.2202 10.9727L94.7001 9.62732ZM148.852 45.8L149.594 46.47L150.163 45.839L149.632 45.1753L148.852 45.8ZM135.552 48.6L134.869 49.3311L134.883 49.3436L134.897 49.3557L135.552 48.6ZM133.552 44.1L134.539 43.9408L134.198 41.8273L132.796 43.4451L133.552 44.1ZM128.152 48.5L128.599 49.3944L128.599 49.3944L128.152 48.5ZM113.752 45.5L112.934 46.076L112.938 46.0821L112.943 46.0882L113.752 45.5ZM115.052 20.8L115.796 21.4682L115.802 21.4606L115.052 20.8ZM133.452 17.4L132.968 18.2756L134.452 19.0938V17.4H133.452ZM128.752 4.9L127.823 5.27139L128.075 5.9H128.752V4.9ZM128.352 3.9L127.683 3.1567L127.164 3.6235L127.423 4.27139L128.352 3.9ZM133.452 1.1L133.759 2.05171L133.772 2.04726L133.786 2.04242L133.452 1.1ZM141.652 0.599997L141.052 1.4L141.086 1.42548L141.122 1.448L141.652 0.599997ZM148.052 44.8L148.832 44.1753L148.195 43.3787L147.411 44.0318L148.052 44.8ZM133.452 40.9L134.311 41.4115L134.452 41.1751V40.9H133.452ZM133.452 19.4H134.452V18.782L133.899 18.5056L133.452 19.4ZM122.252 42L121.357 42.4472L121.366 42.4642L121.375 42.4808L122.252 42ZM148.109 45.13C145.81 47.6778 143.17 48.9 140.152 48.9V50.9C143.799 50.9 146.96 49.3889 149.594 46.47L148.109 45.13ZM140.152 48.9C138.197 48.9 136.947 48.4857 136.206 47.8443L134.897 49.3557C136.157 50.4476 137.973 50.9 140.152 50.9V48.9ZM136.234 47.8689C135.462 47.1487 134.855 45.8983 134.539 43.9408L132.564 44.2592C132.915 46.435 133.641 48.1846 134.869 49.3311L136.234 47.8689ZM132.796 43.4451C131.126 45.3713 129.427 46.7445 127.704 47.6056L128.599 49.3944C130.61 48.3888 132.51 46.8287 134.307 44.7549L132.796 43.4451ZM127.704 47.6056C125.988 48.4636 124.077 48.9 121.952 48.9V50.9C124.36 50.9 126.582 50.403 128.599 49.3944L127.704 47.6056ZM121.952 48.9C118.97 48.9 116.525 47.613 114.56 44.9118L112.943 46.0882C115.245 49.2537 118.267 50.9 121.952 50.9V48.9ZM114.569 44.924C112.652 42.2035 111.652 38.6221 111.652 34.1H109.652C109.652 38.9112 110.717 42.9298 112.934 46.076L114.569 44.924ZM111.652 34.1C111.652 28.6765 113.069 24.505 115.796 21.4681L114.308 20.1319C111.168 23.6283 109.652 28.3235 109.652 34.1H111.652ZM115.802 21.4606C118.518 18.3747 122.227 16.8 127.052 16.8V14.8C121.743 14.8 117.452 16.5587 114.301 20.1394L115.802 21.4606ZM127.052 16.8C129.226 16.8 131.192 17.2952 132.968 18.2756L133.935 16.5244C131.845 15.3715 129.544 14.8 127.052 14.8V16.8ZM134.452 17.4V6.3H132.452V17.4H134.452ZM134.452 6.3C134.452 5.69684 134.313 5.05815 133.859 4.56955C133.393 4.06696 132.759 3.9 132.152 3.9V5.9C132.411 5.9 132.427 5.96637 132.394 5.93045C132.373 5.90851 132.452 5.96983 132.452 6.3H134.452ZM132.152 3.9H128.752V5.9H132.152V3.9ZM129.68 4.52861L129.28 3.52861L127.423 4.27139L127.823 5.27139L129.68 4.52861ZM129.021 4.64329C130.23 3.55513 131.798 2.68407 133.759 2.05171L133.145 0.148288C130.972 0.849258 129.14 1.84486 127.683 3.1567L129.021 4.64329ZM133.786 2.04242C135.756 1.34353 137.676 0.999999 139.552 0.999999V-1C137.427 -1 135.281 -0.610198 133.117 0.157569L133.786 2.04242ZM139.552 0.999999C140.267 0.999999 140.737 1.16406 141.052 1.4L142.252 -0.200003C141.499 -0.764066 140.57 -1 139.552 -1V0.999999ZM141.122 1.448C141.342 1.58574 141.452 1.75316 141.452 2.1H143.452C143.452 1.1135 143.028 0.28092 142.182 -0.248002L141.122 1.448ZM141.452 2.1V43.3H143.452V2.1H141.452ZM141.452 43.3C141.452 44.3733 141.616 45.3492 142.082 46.0851C142.597 46.8981 143.404 47.3 144.352 47.3V45.3C144.032 45.3 143.89 45.2019 143.771 45.0149C143.604 44.7508 143.452 44.2267 143.452 43.3H141.452ZM144.352 47.3C145.903 47.3 147.355 46.6819 148.692 45.5682L147.411 44.0318C146.348 44.9181 145.334 45.3 144.352 45.3V47.3ZM147.271 45.4247L148.071 46.4247L149.632 45.1753L148.832 44.1753L147.271 45.4247ZM127.152 46.1C130.139 46.1 132.523 44.415 134.311 41.4115L132.592 40.3885C131.047 42.985 129.23 44.1 127.152 44.1V46.1ZM134.452 40.9V19.4H132.452V40.9H134.452ZM133.899 18.5056C132.417 17.7645 130.795 17.4 129.052 17.4V19.4C130.508 19.4 131.82 19.7022 133.004 20.2944L133.899 18.5056ZM129.052 17.4C125.896 17.4 123.466 18.7974 121.886 21.5237C120.355 24.1669 119.652 28.0029 119.652 32.9H121.652C121.652 28.1305 122.348 24.7164 123.617 22.5263C124.837 20.4193 126.607 19.4 129.052 19.4V17.4ZM119.652 32.9C119.652 36.8998 120.19 40.1129 121.357 42.4472L123.146 41.5528C122.18 39.6204 121.652 36.7669 121.652 32.9H119.652ZM121.375 42.4808C122.661 44.8266 124.609 46.1 127.152 46.1V44.1C125.428 44.1 124.109 43.3067 123.128 41.5192L121.375 42.4808ZM175.672 45.6L176.086 46.5104L176.103 46.5027L176.119 46.4944L175.672 45.6ZM179.972 42L180.572 41.2L179.815 40.6322L179.206 41.3568L179.972 42ZM181.172 42.9L181.992 43.4718L182.545 42.6795L181.772 42.1L181.172 42.9ZM175.272 48.1L175.729 48.9893L175.739 48.9844L175.272 48.1ZM159.272 47.7L158.75 48.5533L158.761 48.5595L159.272 47.7ZM153.572 41.7L152.691 42.1741L152.697 42.1837L153.572 41.7ZM156.172 20.5L156.871 21.2147L156.871 21.2145L156.172 20.5ZM177.972 18.5L177.361 19.2918L177.374 19.3014L177.386 19.3107L177.972 18.5ZM177.472 33L178.045 33.8192L178.049 33.8164L177.472 33ZM161.372 35.4L161.543 34.4148L160.251 34.19L160.376 35.4957L161.372 35.4ZM164.372 43.6L165.14 42.9598L165.14 42.9598L164.372 43.6ZM162.872 22L161.968 21.5719L161.963 21.5825L162.872 22ZM161.172 34H160.172V35H161.172V34ZM163.872 33.8L163.754 32.807L163.748 32.8077L163.872 33.8ZM171.172 20.2L170.333 20.745L170.349 20.7696L170.367 20.7932L171.172 20.2ZM170.572 47.6C172.62 47.6 174.466 47.2467 176.086 46.5104L175.258 44.6896C173.945 45.2866 172.391 45.6 170.572 45.6V47.6ZM176.119 46.4944C177.741 45.6835 179.277 44.382 180.738 42.6432L179.206 41.3568C177.867 42.9514 176.536 44.0498 175.225 44.7056L176.119 46.4944ZM179.372 42.8L180.572 43.7L181.772 42.1L180.572 41.2L179.372 42.8ZM180.351 42.3282C178.911 44.3957 177.066 46.0225 174.805 47.2156L175.739 48.9844C178.278 47.6442 180.367 45.8043 181.992 43.4718L180.351 42.3282ZM174.815 47.2107C172.632 48.3331 170.224 48.9 167.572 48.9V50.9C170.52 50.9 173.245 50.2669 175.729 48.9893L174.815 47.2107ZM167.572 48.9C164.672 48.9 162.084 48.2089 159.783 46.8405L158.761 48.5595C161.393 50.1245 164.338 50.9 167.572 50.9V48.9ZM159.793 46.8467C157.546 45.4732 155.766 43.6025 154.447 41.2163L152.697 42.1837C154.178 44.8642 156.198 46.9935 158.75 48.5533L159.793 46.8467ZM154.452 41.2259C153.139 38.7866 152.472 36.0191 152.472 32.9H150.472C150.472 36.3142 151.205 39.4134 152.691 42.1741L154.452 41.2259ZM152.472 32.9C152.472 27.915 153.966 24.0586 156.871 21.2147L155.472 19.7853C152.111 23.0748 150.472 27.485 150.472 32.9H152.472ZM156.871 21.2145C159.852 18.2961 163.817 16.8 168.872 16.8V14.8C163.393 14.8 158.892 16.4373 155.472 19.7855L156.871 21.2145ZM168.872 16.8C172.444 16.8 175.245 17.6592 177.361 19.2918L178.583 17.7082C176.032 15.7407 172.766 14.8 168.872 14.8V16.8ZM177.386 19.3107C179.544 20.8687 180.572 22.8421 180.572 25.3H182.572C182.572 22.1579 181.2 19.598 178.557 17.6893L177.386 19.3107ZM180.572 25.3C180.572 28.1581 179.377 30.4274 176.894 32.1836L178.049 33.8164C181.033 31.7059 182.572 28.8419 182.572 25.3H180.572ZM176.898 32.1808C174.458 33.8888 171.019 34.8 166.472 34.8V36.8C171.258 36.8 175.152 35.8445 178.045 33.8192L176.898 32.1808ZM166.472 34.8C164.652 34.8 163.01 34.6699 161.543 34.4148L161.201 36.3852C162.8 36.6634 164.559 36.8 166.472 36.8V34.8ZM160.376 35.4957C160.723 39.0962 161.771 42.0414 163.604 44.2402L165.14 42.9598C163.639 41.1586 162.688 38.6371 162.367 35.3043L160.376 35.4957ZM163.604 44.2402C165.448 46.4537 167.79 47.6 170.572 47.6V45.6C168.42 45.6 166.629 44.7463 165.14 42.9598L163.604 44.2402ZM167.772 17.2C165.18 17.2 163.264 18.8354 161.968 21.5719L163.776 22.4281C164.879 20.0979 166.231 19.2 167.772 19.2V17.2ZM161.963 21.5825C160.743 24.2382 160.172 27.8708 160.172 32.4H162.172C162.172 27.9959 162.734 24.6952 163.781 22.4175L161.963 21.5825ZM160.172 32.4V34H162.172V32.4H160.172ZM161.172 35C161.961 35 162.905 34.9286 163.996 34.7923L163.748 32.8077C162.705 32.938 161.85 33 161.172 33V35ZM163.99 34.793C166.933 34.4426 169.305 33.481 170.979 31.8071L169.565 30.3929C168.305 31.6523 166.41 32.4907 163.754 32.807L163.99 34.793ZM170.979 31.8071C172.726 30.0599 173.572 27.7922 173.572 25.1H171.572C171.572 27.3411 170.884 29.0734 169.565 30.3929L170.979 31.8071ZM173.572 25.1C173.572 22.9448 173.068 21.087 171.977 19.6068L170.367 20.7932C171.143 21.8464 171.572 23.2552 171.572 25.1H173.572ZM172.01 19.655C170.989 18.0832 169.561 17.2 167.772 17.2V19.2C168.783 19.2 169.622 19.6502 170.333 20.745L172.01 19.655ZM203.445 44.8L204.225 44.1753L203.588 43.3787L202.804 44.0318L203.445 44.8ZM204.245 45.8L205.005 46.4493L205.542 45.8207L205.025 45.1753L204.245 45.8ZM190.445 48.3L189.716 48.9854L189.727 48.9964L189.737 49.0071L190.445 48.3ZM184.345 4.9L183.387 5.18735L183.601 5.9H184.345V4.9ZM184.045 3.9L183.357 3.17404L182.91 3.59754L183.087 4.18734L184.045 3.9ZM188.945 1.1L189.261 2.04868L189.27 2.04564L189.279 2.04242L188.945 1.1ZM197.045 0.599997L196.394 1.35925L196.451 1.40816L196.515 1.448L197.045 0.599997ZM196.845 43.3C196.845 44.3733 197.009 45.3492 197.475 46.0851C197.99 46.8981 198.797 47.3 199.745 47.3V45.3C199.425 45.3 199.283 45.2019 199.164 45.0149C198.997 44.7508 198.845 44.2267 198.845 43.3H196.845ZM199.745 47.3C201.296 47.3 202.748 46.6819 204.085 45.5682L202.804 44.0318C201.741 44.9181 200.726 45.3 199.745 45.3V47.3ZM202.664 45.4247L203.464 46.4247L205.025 45.1753L204.225 44.1753L202.664 45.4247ZM203.484 45.1507C201.333 47.6709 198.706 48.9 195.545 48.9V50.9C199.316 50.9 202.49 49.3958 205.005 46.4493L203.484 45.1507ZM195.545 48.9C193.335 48.9 191.95 48.3913 191.152 47.5929L189.737 49.0071C191.072 50.342 193.088 50.9 195.545 50.9V48.9ZM191.173 47.6146C190.355 46.7454 189.845 45.279 189.845 43H187.845C187.845 45.521 188.401 47.5879 189.716 48.9854L191.173 47.6146ZM189.845 43V6.3H187.845V43H189.845ZM189.845 6.3C189.845 5.69684 189.706 5.05815 189.252 4.56955C188.786 4.06696 188.152 3.9 187.545 3.9V5.9C187.804 5.9 187.82 5.96637 187.787 5.93045C187.766 5.90851 187.845 5.96983 187.845 6.3H189.845ZM187.545 3.9H184.345V5.9H187.545V3.9ZM185.302 4.61265L185.002 3.61265L183.087 4.18734L183.387 5.18735L185.302 4.61265ZM184.732 4.62595C185.873 3.54517 187.371 2.6786 189.261 2.04868L188.628 0.151314C186.518 0.85473 184.749 1.85483 183.357 3.17404L184.732 4.62595ZM189.279 2.04242C191.249 1.34353 193.169 0.999999 195.045 0.999999V-1C192.92 -1 190.774 -0.610198 188.61 0.157569L189.279 2.04242ZM195.045 0.999999C195.769 0.999999 196.17 1.16778 196.394 1.35925L197.695 -0.15926C196.985 -0.767786 196.053 -1 195.045 -1V0.999999ZM196.515 1.448C196.735 1.58574 196.845 1.75316 196.845 2.1H198.845C198.845 1.1135 198.421 0.280921 197.575 -0.248001L196.515 1.448ZM196.845 2.1V43.3H198.845V2.1H196.845ZM224.652 44.8L225.433 44.1753L224.796 43.3787L224.012 44.0318L224.652 44.8ZM225.452 45.8L226.195 46.47L226.764 45.839L226.233 45.1753L225.452 45.8ZM211.552 48.1L210.787 48.7441L210.796 48.7544L210.805 48.7644L211.552 48.1ZM205.552 20.8L204.588 21.0631L204.789 21.8H205.552V20.8ZM205.252 19.7L204.605 18.9381L204.12 19.3498L204.288 19.9631L205.252 19.7ZM210.252 16.9L210.597 17.8389L210.597 17.8389L210.252 16.9ZM218.252 16.4L217.652 17.2L217.652 17.2L218.252 16.4ZM210.952 2.2L210.212 1.52732L210.212 1.52732L210.952 2.2ZM218.452 2.2L217.712 2.87267L217.721 2.88167L217.729 2.89047L218.452 2.2ZM218.452 10.3L217.729 9.60952L217.728 9.61034L218.452 10.3ZM210.952 10.3L210.212 10.9727L210.22 10.9813L210.228 10.9897L210.952 10.3ZM218.052 43.3C218.052 44.3733 218.216 45.3492 218.683 46.0851C219.197 46.8981 220.005 47.3 220.952 47.3V45.3C220.633 45.3 220.491 45.2019 220.372 45.0149C220.205 44.7508 220.052 44.2267 220.052 43.3H218.052ZM220.952 47.3C222.504 47.3 223.956 46.6819 225.293 45.5682L224.012 44.0318C222.949 44.9181 221.934 45.3 220.952 45.3V47.3ZM223.871 45.4247L224.671 46.4247L226.233 45.1753L225.433 44.1753L223.871 45.4247ZM224.71 45.13C222.411 47.6778 219.771 48.9 216.752 48.9V50.9C220.4 50.9 223.561 49.3889 226.195 46.47L224.71 45.13ZM216.752 48.9C214.495 48.9 213.099 48.3348 212.3 47.4356L210.805 48.7644C212.139 50.2652 214.209 50.9 216.752 50.9V48.9ZM212.317 47.4559C211.477 46.4578 210.952 44.7137 210.952 42H208.952C208.952 44.8863 209.495 47.2089 210.787 48.7441L212.317 47.4559ZM210.952 42V22.2H208.952V42H210.952ZM210.952 22.2C210.952 21.5968 210.814 20.9582 210.36 20.4695C209.893 19.967 209.26 19.8 208.652 19.8V21.8C208.912 21.8 208.928 21.8664 208.895 21.8305C208.874 21.8085 208.952 21.8698 208.952 22.2H210.952ZM208.652 19.8H205.552V21.8H208.652V19.8ZM206.517 20.5369L206.217 19.4369L204.288 19.9631L204.588 21.0631L206.517 20.5369ZM205.9 20.4619C207.126 19.4196 208.684 18.5401 210.597 17.8389L209.908 15.9611C207.821 16.7265 206.045 17.7137 204.605 18.9381L205.9 20.4619ZM210.597 17.8389C212.494 17.1433 214.377 16.8 216.252 16.8V14.8C214.127 14.8 212.011 15.19 209.908 15.9611L210.597 17.8389ZM216.252 16.8C216.88 16.8 217.325 16.9542 217.652 17.2L218.852 15.6C218.113 15.0458 217.224 14.8 216.252 14.8V16.8ZM217.652 17.2C217.934 17.4111 218.052 17.6481 218.052 18H220.052C220.052 17.0186 219.637 16.1889 218.852 15.6L217.652 17.2ZM218.052 18V43.3H220.052V18H218.052ZM209.952 6.2C209.952 5.36741 210.424 4.2676 211.692 2.87267L210.212 1.52732C208.814 3.06573 207.952 4.63258 207.952 6.2H209.952ZM211.692 2.87267C212.969 1.46787 213.952 0.999999 214.652 0.999999V-1C213.086 -1 211.602 -0.00120654 210.212 1.52732L211.692 2.87267ZM214.652 0.999999C215.432 0.999999 216.45 1.48358 217.712 2.87267L219.192 1.52732C217.788 -0.0169143 216.272 -1 214.652 -1V0.999999ZM217.729 2.89047C219.066 4.29088 219.552 5.38519 219.552 6.2H221.552C221.552 4.61481 220.639 3.04246 219.176 1.50952L217.729 2.89047ZM219.552 6.2C219.552 7.09239 219.053 8.2221 217.729 9.60952L219.176 10.9905C220.651 9.44456 221.552 7.84094 221.552 6.2H219.552ZM217.728 9.61034C216.472 10.9292 215.451 11.4 214.652 11.4V13.4C216.254 13.4 217.766 12.4708 219.176 10.9897L217.728 9.61034ZM214.652 11.4C213.933 11.4 212.947 10.9441 211.676 9.61034L210.228 10.9897C211.625 12.4559 213.105 13.4 214.652 13.4V11.4ZM211.692 9.62732C210.436 8.24513 209.952 7.10996 209.952 6.2H207.952C207.952 7.82337 208.802 9.42153 210.212 10.9727L211.692 9.62732ZM268.044 44.8L268.825 44.1753L268.187 43.3787L267.404 44.0318L268.044 44.8ZM268.844 45.8L269.586 46.47L270.156 45.839L269.625 45.1753L268.844 45.8ZM254.944 48.1L254.159 48.7196L254.177 48.7426L254.196 48.7644L254.944 48.1ZM243.844 25.8L242.939 25.3751L242.935 25.3827L242.931 25.3904L243.844 25.8ZM242.144 43.5L241.177 43.7545L241.18 43.7676L242.144 43.5ZM243.744 47L242.904 47.5433L242.931 47.5854L242.963 47.6247L243.744 47ZM244.544 48L245.325 48.6247L245.824 48L245.325 47.3753L244.544 48ZM243.744 49V50H244.224L244.525 49.6247L243.744 49ZM229.244 49L228.301 49.3328L228.536 50H229.244V49ZM228.644 47.3L228.434 46.3222L227.322 46.5605L227.701 47.6328L228.644 47.3ZM230.044 47L230.253 47.9778L230.27 47.9743L230.286 47.9701L230.044 47ZM232.144 45.8L232.992 46.33L233.005 46.3082L233.018 46.2856L232.144 45.8ZM228.144 21L227.179 21.2631L227.38 22H228.144V21ZM227.844 19.9L227.196 19.1381L226.712 19.5498L226.879 20.1631L227.844 19.9ZM232.844 17.1L233.188 18.0389L233.188 18.0389L232.844 17.1ZM240.844 16.6L240.193 17.3593L240.218 17.3805L240.244 17.4L240.844 16.6ZM241.644 26.8H240.644L242.602 27.0855L241.644 26.8ZM246.644 19L247.296 19.7578L247.302 19.7526L247.308 19.7474L246.644 19ZM260.444 18.6L259.616 19.1615L259.623 19.1715L259.63 19.1812L260.444 18.6ZM261.444 43.3C261.444 44.3733 261.608 45.3492 262.074 46.0851C262.589 46.8981 263.397 47.3 264.344 47.3V45.3C264.024 45.3 263.882 45.2019 263.764 45.0149C263.596 44.7508 263.444 44.2267 263.444 43.3H261.444ZM264.344 47.3C265.895 47.3 267.348 46.6819 268.684 45.5682L267.404 44.0318C266.34 44.9181 265.326 45.3 264.344 45.3V47.3ZM267.263 45.4247L268.063 46.4247L269.625 45.1753L268.825 44.1753L267.263 45.4247ZM268.101 45.13C265.802 47.6778 263.163 48.9 260.144 48.9V50.9C263.792 50.9 266.952 49.3889 269.586 46.47L268.101 45.13ZM260.144 48.9C257.887 48.9 256.49 48.3348 255.691 47.4356L254.196 48.7644C255.53 50.2652 257.601 50.9 260.144 50.9V48.9ZM255.729 47.4804C254.938 46.4793 254.444 44.7238 254.444 42H252.444C252.444 44.8762 252.949 47.1874 254.159 48.7196L255.729 47.4804ZM254.444 42V26.7H252.444V42H254.444ZM254.444 26.7C254.444 24.6925 254.129 23.0154 253.362 21.8122C252.545 20.5325 251.288 19.9 249.744 19.9V21.9C250.667 21.9 251.259 22.2342 251.676 22.8878C252.141 23.6179 252.444 24.8408 252.444 26.7H254.444ZM249.744 19.9C246.776 19.9 244.543 21.9569 242.939 25.3751L244.749 26.2249C246.211 23.1098 247.912 21.9 249.744 21.9V19.9ZM242.931 25.3904C241.386 28.8318 240.644 33.253 240.644 38.6H242.644C242.644 33.4136 243.368 29.3016 244.756 26.2096L242.931 25.3904ZM240.644 38.6C240.644 40.6459 240.813 42.3734 241.177 43.7545L243.111 43.2455C242.808 42.0933 242.644 40.5541 242.644 38.6H240.644ZM241.18 43.7676C241.543 45.0731 242.12 46.332 242.904 47.5433L244.583 46.4567C243.9 45.4014 243.411 44.3269 243.107 43.2324L241.18 43.7676ZM242.963 47.6247L243.763 48.6247L245.325 47.3753L244.525 46.3753L242.963 47.6247ZM243.763 47.3753L242.963 48.3753L244.525 49.6247L245.325 48.6247L243.763 47.3753ZM243.744 48H229.244V50H243.744V48ZM230.187 48.6672L229.587 46.9672L227.701 47.6328L228.301 49.3328L230.187 48.6672ZM228.853 48.2778L230.253 47.9778L229.834 46.0222L228.434 46.3222L228.853 48.2778ZM230.286 47.9701C231.431 47.6839 232.449 47.198 232.992 46.33L231.296 45.27C231.172 45.4687 230.79 45.7827 229.801 46.0299L230.286 47.9701ZM233.018 46.2856C233.27 45.8328 233.417 45.2626 233.508 44.6455C233.601 44.0144 233.644 43.2622 233.644 42.4H231.644C231.644 43.2044 231.603 43.8523 231.529 44.3545C231.453 44.8707 231.351 45.1672 231.27 45.3144L233.018 46.2856ZM233.644 42.4V22.9H231.644V42.4H233.644ZM233.644 22.9C233.644 22.1838 233.527 21.4698 233.144 20.9103C232.715 20.2826 232.057 20 231.344 20V22C231.438 22 231.473 22.017 231.475 22.0177C231.476 22.0185 231.476 22.0186 231.477 22.019C231.477 22.0198 231.483 22.0251 231.493 22.0397C231.544 22.1135 231.644 22.3496 231.644 22.9H233.644ZM231.344 20H228.144V22H231.344V20ZM229.109 20.7369L228.809 19.6369L226.879 20.1631L227.179 21.2631L229.109 20.7369ZM228.491 20.6619C229.718 19.6196 231.275 18.7401 233.188 18.0389L232.499 16.1611C230.412 16.9265 228.636 17.9137 227.196 19.1381L228.491 20.6619ZM233.188 18.0389C235.085 17.3433 236.969 17 238.844 17V15C236.719 15 234.603 15.39 232.499 16.1611L233.188 18.0389ZM238.844 17C239.569 17 239.97 17.1678 240.193 17.3593L241.495 15.8407C240.785 15.2322 239.852 15 238.844 15V17ZM240.244 17.4C240.525 17.6111 240.644 17.8481 240.644 18.2H242.644C242.644 17.2186 242.229 16.3889 241.444 15.8L240.244 17.4ZM240.644 18.2V26.8H242.644V18.2H240.644ZM242.602 27.0855C243.483 24.1294 245.046 21.6953 247.296 19.7578L245.991 18.2422C243.441 20.438 241.671 23.204 240.685 26.5145L242.602 27.0855ZM247.308 19.7474C249.564 17.7419 251.87 16.8 254.244 16.8V14.8C251.284 14.8 248.523 15.9914 245.979 18.2526L247.308 19.7474ZM254.244 16.8C256.88 16.8 258.586 17.6432 259.616 19.1615L261.271 18.0385C259.768 15.8235 257.341 14.8 254.244 14.8V16.8ZM259.63 19.1812C260.78 20.791 261.444 23.4999 261.444 27.5H263.444C263.444 23.3668 262.774 20.1423 261.257 18.0188L259.63 19.1812ZM261.444 27.5V43.3H263.444V27.5H261.444ZM295.984 45.6L296.398 46.5104L296.415 46.5027L296.432 46.4944L295.984 45.6ZM300.284 42L300.884 41.2L300.127 40.6322L299.519 41.3568L300.284 42ZM301.484 42.9L302.305 43.4718L302.857 42.6795L302.084 42.1L301.484 42.9ZM295.584 48.1L296.042 48.9893L296.051 48.9844L295.584 48.1ZM279.584 47.7L279.063 48.5533L279.073 48.5595L279.584 47.7ZM273.884 41.7L273.004 42.1741L273.009 42.1837L273.884 41.7ZM276.484 20.5L277.184 21.2147L277.184 21.2145L276.484 20.5ZM298.284 18.5L297.674 19.2918L297.686 19.3014L297.699 19.3107L298.284 18.5ZM297.784 33L298.358 33.8192L298.362 33.8164L297.784 33ZM281.684 35.4L281.856 34.4148L280.563 34.19L280.689 35.4957L281.684 35.4ZM284.684 43.6L285.453 42.9598L285.453 42.9598L284.684 43.6ZM283.184 22L282.281 21.5719L282.276 21.5825L283.184 22ZM281.484 34H280.484V35H281.484V34ZM284.184 33.8L284.066 32.807L284.06 32.8077L284.184 33.8ZM291.484 20.2L290.646 20.745L290.662 20.7696L290.679 20.7932L291.484 20.2ZM290.884 47.6C292.932 47.6 294.778 47.2467 296.398 46.5104L295.571 44.6896C294.257 45.2866 292.703 45.6 290.884 45.6V47.6ZM296.432 46.4944C298.053 45.6835 299.589 44.382 301.05 42.6432L299.519 41.3568C298.179 42.9514 296.849 44.0498 295.537 44.7056L296.432 46.4944ZM299.684 42.8L300.884 43.7L302.084 42.1L300.884 41.2L299.684 42.8ZM300.664 42.3282C299.223 44.3957 297.378 46.0225 295.118 47.2156L296.051 48.9844C298.591 47.6442 300.679 45.8043 302.305 43.4718L300.664 42.3282ZM295.127 47.2107C292.945 48.3331 290.536 48.9 287.884 48.9V50.9C290.832 50.9 293.557 50.2669 296.042 48.9893L295.127 47.2107ZM287.884 48.9C284.985 48.9 282.397 48.2089 280.095 46.8405L279.073 48.5595C281.705 50.1245 284.651 50.9 287.884 50.9V48.9ZM280.106 46.8467C277.858 45.4732 276.078 43.6025 274.76 41.2163L273.009 42.1837C274.49 44.8642 276.511 46.9935 279.063 48.5533L280.106 46.8467ZM274.765 41.2259C273.451 38.7866 272.784 36.0191 272.784 32.9H270.784C270.784 36.3142 271.517 39.4134 273.004 42.1741L274.765 41.2259ZM272.784 32.9C272.784 27.915 274.278 24.0586 277.184 21.2147L275.785 19.7853C272.424 23.0748 270.784 27.485 270.784 32.9H272.784ZM277.184 21.2145C280.165 18.2961 284.13 16.8 289.184 16.8V14.8C283.706 14.8 279.204 16.4373 275.785 19.7855L277.184 21.2145ZM289.184 16.8C292.757 16.8 295.557 17.6592 297.674 19.2918L298.895 17.7082C296.345 15.7407 293.079 14.8 289.184 14.8V16.8ZM297.699 19.3107C299.856 20.8687 300.884 22.8421 300.884 25.3H302.884C302.884 22.1579 301.513 19.598 298.87 17.6893L297.699 19.3107ZM300.884 25.3C300.884 28.1581 299.69 30.4274 297.207 32.1836L298.362 33.8164C301.346 31.7059 302.884 28.8419 302.884 25.3H300.884ZM297.211 32.1808C294.771 33.8888 291.331 34.8 286.784 34.8V36.8C291.571 36.8 295.465 35.8445 298.358 33.8192L297.211 32.1808ZM286.784 34.8C284.964 34.8 283.323 34.6699 281.856 34.4148L281.513 36.3852C283.113 36.6634 284.871 36.8 286.784 36.8V34.8ZM280.689 35.4957C281.035 39.0962 282.084 42.0414 283.916 44.2402L285.453 42.9598C283.952 41.1586 283 38.6371 282.68 35.3043L280.689 35.4957ZM283.916 44.2402C285.761 46.4537 288.103 47.6 290.884 47.6V45.6C288.733 45.6 286.941 44.7463 285.453 42.9598L283.916 44.2402ZM288.084 17.2C285.492 17.2 283.577 18.8354 282.281 21.5719L284.088 22.4281C285.192 20.0979 286.543 19.2 288.084 19.2V17.2ZM282.276 21.5825C281.056 24.2382 280.484 27.8708 280.484 32.4H282.484C282.484 27.9959 283.047 24.6952 284.093 22.4175L282.276 21.5825ZM280.484 32.4V34H282.484V32.4H280.484ZM281.484 35C282.273 35 283.218 34.9286 284.308 34.7923L284.06 32.8077C283.018 32.938 282.162 33 281.484 33V35ZM284.303 34.793C287.246 34.4426 289.618 33.481 291.291 31.8071L289.877 30.3929C288.618 31.6523 286.723 32.4907 284.066 32.807L284.303 34.793ZM291.291 31.8071C293.039 30.0599 293.884 27.7922 293.884 25.1H291.884C291.884 27.3411 291.197 29.0734 289.877 30.3929L291.291 31.8071ZM293.884 25.1C293.884 22.9448 293.38 21.087 292.289 19.6068L290.679 20.7932C291.455 21.8464 291.884 23.2552 291.884 25.1H293.884ZM292.323 19.655C291.301 18.0832 289.874 17.2 288.084 17.2V19.2C289.095 19.2 289.934 19.6502 290.646 20.745L292.323 19.655ZM318.057 26.7L317.413 27.4649L317.434 27.4831L317.457 27.5L318.057 26.7ZM324.057 30.1L324.493 29.2002L324.486 29.1967L324.057 30.1ZM329.157 32.9L328.602 33.732L328.619 33.743L328.636 33.7533L329.157 32.9ZM332.257 35.9L331.432 36.4647L331.442 36.4791L331.452 36.4932L332.257 35.9ZM329.557 47.3L329.021 46.4554L329.012 46.4616L329.557 47.3ZM310.357 48.1L309.858 48.9666L309.868 48.9724L309.878 48.9779L310.357 48.1ZM308.557 39.9L309.212 40.6557L309.226 40.6436L309.239 40.6311L308.557 39.9ZM315.657 39.2L316.264 39.9944L317.646 38.9377L316.038 38.2753L315.657 39.2ZM315.357 46.5L315.975 45.7137L315.975 45.7137L315.357 46.5ZM322.657 46.4L322.08 45.583L322.069 45.5913L322.057 45.6L322.657 46.4ZM322.657 39.7L322.026 40.4761L322.053 40.4975L322.08 40.517L322.657 39.7ZM317.557 36.7L317.994 35.8004L317.981 35.7945L317.557 36.7ZM312.357 34L311.792 34.8253L311.817 34.8421L311.843 34.8575L312.357 34ZM309.057 30.6L309.889 30.0453L309.889 30.0453L309.057 30.6ZM311.457 18.4L310.892 17.5747L310.892 17.5747L311.457 18.4ZM329.357 17.7L328.846 18.5599L328.858 18.5666L329.357 17.7ZM331.257 26L331.875 26.7863L331.875 26.7863L331.257 26ZM323.957 26.2L323.27 25.473L322.283 26.4056L323.467 27.0716L323.957 26.2ZM324.457 19.2L323.811 19.9634L323.829 19.9784L323.847 19.9926L324.457 19.2ZM317.457 19.4L318.164 20.1071L318.164 20.1071L317.457 19.4ZM315.157 22.6C315.157 24.5594 315.919 26.2068 317.413 27.4649L318.701 25.9351C317.662 25.0598 317.157 23.9739 317.157 22.6H315.157ZM317.457 27.5C318.87 28.5594 320.94 29.7263 323.628 31.0033L324.486 29.1967C321.841 27.9404 319.911 26.8406 318.657 25.9L317.457 27.5ZM323.621 30.9998C325.804 32.0582 327.457 32.9687 328.602 33.732L329.712 32.0679C328.457 31.2313 326.71 30.2751 324.493 29.2002L323.621 30.9998ZM328.636 33.7533C329.704 34.4064 330.637 35.3038 331.432 36.4647L333.082 35.3353C332.143 33.9628 331.01 32.8602 329.678 32.0467L328.636 33.7533ZM331.452 36.4932C332.246 37.5705 332.657 38.8573 332.657 40.4H334.657C334.657 38.476 334.135 36.7628 333.062 35.3068L331.452 36.4932ZM332.657 40.4C332.657 42.875 331.51 44.8776 329.021 46.4555L330.093 48.1445C333.071 46.2557 334.657 43.6583 334.657 40.4H332.657ZM329.012 46.4616C326.563 48.0536 323.175 48.9 318.757 48.9V50.9C323.405 50.9 327.218 50.0131 330.102 48.1384L329.012 46.4616ZM318.757 48.9C315.467 48.9 312.846 48.3185 310.836 47.2221L309.878 48.9779C312.268 50.2815 315.247 50.9 318.757 50.9V48.9ZM310.856 47.2334C308.869 46.0895 308.057 44.7431 308.057 43.2H306.057C306.057 45.6569 307.445 47.5772 309.858 48.9666L310.856 47.2334ZM308.057 43.2C308.057 42.1541 308.433 41.3308 309.212 40.6557L307.902 39.1443C306.681 40.2026 306.057 41.5792 306.057 43.2H308.057ZM309.239 40.6311C310.04 39.8837 311.024 39.5 312.257 39.5V37.5C310.557 37.5 309.074 38.0496 307.875 39.1689L309.239 40.6311ZM312.257 39.5C313.249 39.5 314.254 39.7037 315.276 40.1247L316.038 38.2753C314.794 37.763 313.531 37.5 312.257 37.5V39.5ZM315.05 38.4056C313.588 39.5236 312.957 41.274 312.957 43.4H314.957C314.957 41.6593 315.46 40.6097 316.264 39.9944L315.05 38.4056ZM312.957 43.4C312.957 44.9972 313.533 46.3383 314.739 47.2863L315.975 45.7137C315.315 45.195 314.957 44.4695 314.957 43.4H312.957ZM314.739 47.2863C315.87 48.1751 317.229 48.6 318.757 48.6V46.6C317.619 46.6 316.71 46.2916 315.975 45.7137L314.739 47.2863ZM318.757 48.6C320.473 48.6 321.992 48.1487 323.257 47.2L322.057 45.6C321.189 46.2513 320.108 46.6 318.757 46.6V48.6ZM323.234 47.217C324.65 46.2173 325.357 44.7696 325.357 43H323.357C323.357 44.1637 322.931 44.9827 322.08 45.583L323.234 47.217ZM325.357 43C325.357 41.2786 324.635 39.8725 323.234 38.883L322.08 40.517C322.945 41.1275 323.357 41.9214 323.357 43H325.357ZM323.288 38.9239C322.13 37.9834 320.347 36.9434 317.994 35.8005L317.12 37.5995C319.434 38.7233 321.051 39.6833 322.026 40.4761L323.288 38.9239ZM317.981 35.7945C315.865 34.8024 314.165 33.9185 312.872 33.1425L311.843 34.8575C313.216 35.6815 314.982 36.5975 317.133 37.6055L317.981 35.7945ZM312.922 33.1747C311.77 32.387 310.758 31.3491 309.889 30.0453L308.225 31.1547C309.222 32.6509 310.41 33.8797 311.792 34.8253L312.922 33.1747ZM309.889 30.0453C309.085 28.8385 308.657 27.3405 308.657 25.5H306.657C306.657 27.6595 307.163 29.5615 308.225 31.1547L309.889 30.0453ZM308.657 25.5C308.657 22.8391 309.753 20.7774 312.022 19.2253L310.892 17.5747C308.094 19.4892 306.657 22.1609 306.657 25.5H308.657ZM312.022 19.2253C314.35 17.6322 317.339 16.8 321.057 16.8V14.8C317.041 14.8 313.631 15.7012 310.892 17.5747L312.022 19.2253ZM321.057 16.8C324.341 16.8 326.915 17.4128 328.846 18.5599L329.868 16.8401C327.533 15.4539 324.573 14.8 321.057 14.8V16.8ZM328.858 18.5666C330.845 19.7105 331.657 21.0569 331.657 22.6H333.657C333.657 20.1431 332.269 18.2228 329.856 16.8334L328.858 18.5666ZM331.657 22.6C331.657 23.9239 331.264 24.7229 330.639 25.2137L331.875 26.7863C333.117 25.8104 333.657 24.3428 333.657 22.6H331.657ZM330.639 25.2137C329.92 25.7785 328.954 26.1 327.657 26.1V28.1C329.294 28.1 330.727 27.6882 331.875 26.7863L330.639 25.2137ZM327.657 26.1C326.404 26.1 325.344 25.8327 324.447 25.3284L323.467 27.0716C324.704 27.7673 326.11 28.1 327.657 28.1V26.1ZM324.644 26.927C326.055 25.5944 326.757 23.893 326.757 21.9H324.757C324.757 23.3737 324.259 24.5389 323.27 25.473L324.644 26.927ZM326.757 21.9C326.757 20.4694 326.19 19.2713 325.067 18.4074L323.847 19.9926C324.458 20.4621 324.757 21.0639 324.757 21.9H326.757ZM325.103 18.4366C324.016 17.5173 322.636 17.1 321.057 17.1V19.1C322.278 19.1 323.164 19.4161 323.811 19.9634L325.103 18.4366ZM321.057 17.1C319.329 17.1 317.849 17.5942 316.75 18.6929L318.164 20.1071C318.799 19.4724 319.719 19.1 321.057 19.1V17.1ZM316.75 18.6929C315.689 19.754 315.157 21.078 315.157 22.6H317.157C317.157 21.5886 317.492 20.7793 318.164 20.1071L316.75 18.6929Z" fill="#FBBC04"/>
</svg>
