<svg width="350" height="42" viewBox="0 0 350 42" fill="none" xmlns="http://www.w3.org/2000/svg">
<path d="M18.28 40.72C12.5733 40.72 8.2 38.9067 5.16 35.28C2.17333 31.6533 0.68 27.0133 0.68 21.36C0.68 15.7067 2.2 11.0667 5.24 7.44C8.28 3.76 12.68 1.92 18.44 1.92C22.12 1.92 25.1067 2.64 27.4 4.08C29.7467 5.46667 30.92 7.30667 30.92 9.6C30.92 11.84 29.9867 13.6 28.12 14.88C26.2533 16.16 23.9067 16.8 21.08 16.8C22.68 15.0933 23.48 12.7733 23.48 9.84C23.48 8.13333 22.9467 6.72 21.88 5.6C20.8667 4.42667 19.5333 3.84 17.88 3.84C14.84 3.84 12.6 5.57333 11.16 9.04C9.77333 12.5067 9.08 16.6133 9.08 21.36C9.08 24.4 9.50667 27.1733 10.36 29.68C11.2667 32.1867 12.5467 34.1867 14.2 35.68C15.9067 37.12 17.8533 37.84 20.04 37.84C22.5467 37.84 24.6267 37.3333 26.28 36.32C27.9867 35.2533 29.5333 33.7867 30.92 31.92L31.88 32.64C30.44 35.04 28.5733 36.9867 26.28 38.48C24.04 39.9733 21.3733 40.72 18.28 40.72ZM51.9631 40.72C46.4165 40.72 42.0165 38.9867 38.7631 35.52C35.5098 32.0533 33.8831 27.3333 33.8831 21.36C33.8831 15.3867 35.5098 10.6667 38.7631 7.2C42.0165 3.68 46.4165 1.92 51.9631 1.92C57.5098 1.92 61.9098 3.68 65.1631 7.2C68.4698 10.6667 70.1231 15.3867 70.1231 21.36C70.1231 27.28 68.4698 32 65.1631 35.52C61.9098 38.9867 57.5098 40.72 51.9631 40.72ZM51.7231 38.88C53.6965 38.88 55.4298 38.16 56.9231 36.72C58.4698 35.2267 59.6698 33.1733 60.5231 30.56C61.3765 27.9467 61.8031 24.9333 61.8031 21.52C61.8031 18.1067 61.3765 15.04 60.5231 12.32C59.7231 9.6 58.5765 7.49333 57.0831 6C55.6431 4.45333 53.9898 3.68 52.1231 3.68C50.1498 3.68 48.3898 4.45333 46.8431 6C45.2965 7.49333 44.0965 9.62667 43.2431 12.4C42.3898 15.12 41.9631 18.24 41.9631 21.76C41.9631 26.9333 42.8431 31.0933 44.6031 34.24C46.3631 37.3333 48.7365 38.88 51.7231 38.88ZM73.8144 38.56C75.1477 38.1867 76.1077 37.84 76.6944 37.52C77.281 37.1467 77.681 36.6667 77.8944 36.08C78.1077 35.4933 78.2144 34.5867 78.2144 33.36V11.68C78.2144 9.81333 78.0544 8.45333 77.7344 7.6C77.4677 6.74666 76.801 6 75.7344 5.36L74.7744 4.8L75.0944 3.76C76.8544 3.22666 79.041 2.8 81.6544 2.48C84.2677 2.10667 86.6677 1.92 88.8544 1.92C95.6277 1.92 100.774 3.6 104.294 6.96C107.868 10.2667 109.654 15.0667 109.654 21.36C109.654 27.0667 108.001 31.6 104.694 34.96C101.441 38.32 96.9877 40 91.3344 40H74.3744L73.8144 38.56ZM90.6144 38.4C97.8144 38.4 101.414 32.72 101.414 21.36C101.414 16.1333 100.374 11.9467 98.2944 8.8C96.2677 5.6 93.5744 4 90.2144 4C88.8277 4 87.761 4.21333 87.0144 4.64C86.2677 5.06667 85.8944 5.68 85.8944 6.48V30.96C85.8944 33.4667 86.2677 35.3333 87.0144 36.56C87.8144 37.7867 89.0144 38.4 90.6144 38.4ZM117.744 13.12C117.744 10.9867 117.584 9.30667 117.264 8.08C116.944 6.85333 116.33 5.62666 115.424 4.4L114.784 3.52L115.424 2.64H133.104C136.037 2.64 138.01 2.29333 139.024 1.6L139.984 0.879998L140.784 1.6V11.6L139.184 12.16C138.224 9.28 137.264 7.30667 136.304 6.24C135.397 5.17333 134.09 4.64 132.384 4.64H128.784C127.397 4.64 126.49 4.90666 126.064 5.44C125.637 5.92 125.424 6.98667 125.424 8.64V20H131.184C132.784 20 133.957 19.84 134.704 19.52C135.504 19.2 136.09 18.56 136.464 17.6L136.864 16.48L137.904 17.12V26.08L136.144 26.72L135.824 24.96C135.61 23.84 135.024 23.0667 134.064 22.64C133.104 22.2133 131.557 22 129.424 22H125.424V34.08C125.424 35.68 125.664 36.7467 126.144 37.28C126.624 37.76 127.69 38 129.344 38H133.264C134.864 38 136.117 37.44 137.024 36.32C137.984 35.2 138.89 33.2533 139.744 30.48L141.424 31.04V40.64L140.544 41.36C139.797 40.8267 138.944 40.4533 137.984 40.24C137.024 40.08 135.69 40 133.984 40H113.904L113.344 38.56C114.677 38.1867 115.637 37.84 116.224 37.52C116.81 37.1467 117.21 36.6667 117.424 36.08C117.637 35.4933 117.744 34.5867 117.744 33.36V13.12ZM167.988 8.8C167.988 10.9333 168.735 12.6933 170.228 14.08C171.721 15.4133 173.961 16.9333 176.948 18.64C179.135 19.8667 180.868 20.9333 182.148 21.84C183.428 22.7467 184.521 23.8933 185.428 25.28C186.335 26.6667 186.788 28.2667 186.788 30.08C186.788 33.3867 185.455 36 182.788 37.92C180.175 39.7867 176.655 40.72 172.228 40.72C168.441 40.72 165.375 40 163.028 38.56C160.735 37.12 159.588 35.1733 159.588 32.72C159.588 31.12 160.121 29.8667 161.188 28.96C162.308 28 163.695 27.52 165.348 27.52C166.628 27.52 167.855 27.84 169.028 28.48C167.375 29.3333 166.548 31.0133 166.548 33.52C166.548 35.0133 167.081 36.2933 168.148 37.36C169.268 38.3733 170.761 38.88 172.628 38.88C174.548 38.88 176.041 38.3467 177.108 37.28C178.228 36.2133 178.788 34.88 178.788 33.28C178.788 31.4133 178.095 29.8933 176.708 28.72C175.375 27.4933 173.321 26.08 170.548 24.48C168.361 23.3067 166.548 22.2133 165.108 21.2C163.721 20.1867 162.548 18.9333 161.588 17.44C160.628 15.9467 160.148 14.1867 160.148 12.16C160.148 9.12 161.428 6.66666 163.988 4.8C166.601 2.88 169.988 1.92 174.148 1.92C177.721 1.92 180.628 2.61333 182.868 4C185.108 5.33333 186.228 7.12 186.228 9.36C186.228 10.8 185.748 11.9467 184.788 12.8C183.828 13.6 182.521 14 180.868 14C179.695 14 178.468 13.7067 177.188 13.12C177.881 12.5867 178.415 11.92 178.788 11.12C179.161 10.32 179.348 9.49333 179.348 8.64C179.348 7.30666 178.868 6.18666 177.908 5.28C176.948 4.32 175.535 3.84 173.668 3.84C171.855 3.84 170.441 4.32 169.428 5.28C168.468 6.24 167.988 7.41333 167.988 8.8ZM221.804 14.32C221.804 16.6133 221.244 18.64 220.124 20.4C219.057 22.1067 217.617 23.4133 215.804 24.32C214.044 25.2267 212.177 25.68 210.204 25.68C208.124 25.68 206.15 25.1467 204.284 24.08L204.444 23.36L205.804 23.44L207.164 23.36C209.244 23.04 210.87 22.1067 212.044 20.56C213.217 18.96 213.804 16.8533 213.804 14.24C213.804 11.3067 213.137 8.85333 211.804 6.88C210.524 4.85333 208.737 3.84 206.444 3.84C205.217 3.84 204.31 4.18667 203.724 4.88C203.19 5.57333 202.924 6.34666 202.924 7.2V29.52C202.924 31.6533 203.084 33.3333 203.404 34.56C203.777 35.7867 204.417 37.0133 205.324 38.24L205.964 39.2L205.324 40H191.404L190.844 38.56C192.23 38.1867 193.19 37.84 193.724 37.52C194.31 37.2 194.71 36.7467 194.924 36.16C195.137 35.5733 195.244 34.64 195.244 33.36V12.08C195.244 10.2133 195.084 8.8 194.764 7.84C194.497 6.82666 193.83 6 192.764 5.36L191.804 4.8L192.124 3.76C193.67 3.28 195.67 2.85333 198.124 2.48C200.63 2.10667 203.004 1.92 205.244 1.92C210.684 1.92 214.79 3.06667 217.564 5.36C220.39 7.6 221.804 10.5867 221.804 14.32ZM259.714 37.28C257.794 39.5733 255.287 40.72 252.194 40.72C250.274 40.72 248.754 40.2933 247.634 39.44C246.567 38.5333 245.634 37.0133 244.834 34.88L242.514 27.84C241.98 26.4 241.5 25.36 241.074 24.72C240.647 24.0267 239.98 23.4933 239.074 23.12L237.714 22.4L237.874 21.6C238.3 21.6533 238.86 21.68 239.554 21.68C240.194 21.68 240.647 21.6533 240.914 21.6C242.887 21.28 244.434 20.3733 245.554 18.88C246.674 17.3867 247.234 15.4667 247.234 13.12C247.234 10.2933 246.567 8.05333 245.234 6.4C243.9 4.69333 242.14 3.84 239.954 3.84C237.554 3.84 236.354 4.96 236.354 7.2V29.52C236.354 31.6 236.514 33.28 236.834 34.56C237.207 35.7867 237.847 37.0133 238.754 38.24L239.394 39.2L238.754 40H224.834L224.274 38.56C225.607 38.1867 226.567 37.84 227.154 37.52C227.74 37.1467 228.14 36.6667 228.354 36.08C228.567 35.4933 228.674 34.5867 228.674 33.36V12.08C228.674 10.2133 228.514 8.8 228.194 7.84C227.927 6.82666 227.26 6 226.194 5.36L225.234 4.8L225.554 3.76C227.207 3.22666 229.314 2.8 231.874 2.48C234.487 2.10667 236.807 1.92 238.834 1.92C243.9 1.92 247.9 2.93333 250.834 4.96C253.767 6.98667 255.234 9.76 255.234 13.28C255.234 15.7333 254.434 17.92 252.834 19.84C251.287 21.7067 249.287 22.96 246.834 23.6C248.754 24.4533 250.087 25.8933 250.834 27.92L253.634 35.76C254.06 37.04 254.887 37.68 256.114 37.68C257.074 37.68 258.06 37.2533 259.074 36.4L259.714 37.28ZM260.769 38.56C261.996 38.24 262.876 37.92 263.409 37.6C263.996 37.2267 264.369 36.7467 264.529 36.16C264.743 35.52 264.849 34.5867 264.849 33.36V12.56C264.849 10 264.636 8.21333 264.209 7.2C263.836 6.13333 262.876 4.96 261.329 3.68L262.049 2.64H275.569L276.129 3.92C274.583 4.82666 273.596 5.68 273.169 6.48C272.743 7.22666 272.529 8.58666 272.529 10.56V30.24C272.529 32.7467 272.716 34.5333 273.089 35.6C273.516 36.6133 274.476 37.76 275.969 39.04L275.329 40H261.329L260.769 38.56ZM314.686 4.4C313.832 5.62666 313.219 6.88 312.846 8.16C312.526 9.44 312.366 11.0933 312.366 13.12V35.44C312.366 36.56 312.606 37.4933 313.086 38.24L313.806 39.2L313.086 40H304.766L287.006 9.36V29.52C287.006 31.6533 287.166 33.36 287.486 34.64C287.859 35.8667 288.472 37.0667 289.326 38.24L290.046 39.2L289.326 40H280.526L279.966 38.56C281.352 38.1867 282.312 37.84 282.846 37.52C283.432 37.2 283.832 36.7467 284.046 36.16C284.259 35.5733 284.366 34.64 284.366 33.36V12.24C284.366 9.89333 284.152 8.18666 283.726 7.12C283.299 6.05333 282.366 4.90666 280.926 3.68L281.566 2.64H291.966L309.806 33.52V9.28C309.806 7.68 309.459 6.56 308.766 5.92C308.126 5.28 306.766 4.66666 304.686 4.08L305.166 2.64H314.686L315.406 3.52L314.686 4.4ZM337.824 33.36C337.824 34.5867 337.931 35.52 338.144 36.16C338.411 36.7467 338.838 37.2 339.424 37.52C340.011 37.84 340.971 38.1867 342.304 38.56L341.744 40H327.824L327.184 39.2L327.824 38.24C328.731 37.0133 329.344 35.7867 329.664 34.56C330.038 33.28 330.198 31.6 330.144 29.52V8C330.144 6.66667 330.011 5.78667 329.744 5.36C329.531 4.88 329.078 4.64 328.384 4.64H327.504C325.691 4.64 324.331 5.2 323.424 6.32C322.518 7.38666 321.584 9.33333 320.624 12.16L319.024 11.6V1.6L319.824 0.879998L320.784 1.6C321.798 2.29333 323.771 2.64 326.704 2.64H341.344C344.278 2.64 346.251 2.29333 347.264 1.6L348.224 0.879998L349.104 1.6V11.6L347.424 12.16C346.411 9.22666 345.451 7.25333 344.544 6.24C343.691 5.17333 342.384 4.64 340.624 4.64H339.584C338.891 4.64 338.411 4.88 338.144 5.36C337.931 5.78667 337.824 6.66667 337.824 8V33.36Z" fill="#FBBC04"/>
</svg>
