<svg width="230" height="43" viewBox="0 0 230 43" fill="none" xmlns="http://www.w3.org/2000/svg">
<path d="M38.1557 39.144C36.1397 41.552 33.5077 42.756 30.2597 42.756C28.2437 42.756 26.6477 42.308 25.4717 41.412C24.3517 40.46 23.3717 38.864 22.5317 36.624L20.0957 29.232C19.5357 27.72 19.0317 26.628 18.5837 25.956C18.1357 25.228 17.4357 24.668 16.4837 24.276L15.0557 23.52L15.2237 22.68C15.6717 22.736 16.2597 22.764 16.9877 22.764C17.6597 22.764 18.1357 22.736 18.4157 22.68C20.4877 22.344 22.1117 21.392 23.2877 19.824C24.4637 18.256 25.0517 16.24 25.0517 13.776C25.0517 10.808 24.3517 8.456 22.9517 6.72C21.5517 4.928 19.7037 4.032 17.4077 4.032C14.8877 4.032 13.6277 5.208 13.6277 7.56V30.996C13.6277 33.18 13.7957 34.944 14.1317 36.288C14.5237 37.576 15.1957 38.864 16.1477 40.152L16.8197 41.16L16.1477 42H1.53169L0.943688 40.488C2.34369 40.096 3.35169 39.732 3.96769 39.396C4.58369 39.004 5.00369 38.5 5.22769 37.884C5.45169 37.268 5.56369 36.316 5.56369 35.028V12.684C5.56369 10.724 5.39569 9.24 5.05969 8.232C4.77969 7.168 4.07969 6.3 2.95969 5.628L1.95169 5.04L2.28769 3.948C4.02369 3.388 6.23569 2.94 8.92369 2.604C11.6677 2.212 14.1037 2.016 16.2317 2.016C21.5517 2.016 25.7517 3.08 28.8317 5.208C31.9117 7.336 33.4517 10.248 33.4517 13.944C33.4517 16.52 32.6117 18.816 30.9317 20.832C29.3077 22.792 27.2077 24.108 24.6317 24.78C26.6477 25.676 28.0477 27.188 28.8317 29.316L31.7717 37.548C32.2197 38.892 33.0877 39.564 34.3757 39.564C35.3837 39.564 36.4197 39.116 37.4837 38.22L38.1557 39.144ZM54.9721 39.984C56.5961 39.984 58.0241 39.704 59.2561 39.144C60.4881 38.528 61.6921 37.52 62.8681 36.12L63.8761 36.876C62.5881 38.724 60.9361 40.18 58.9201 41.244C56.9601 42.252 54.8041 42.756 52.4521 42.756C49.8761 42.756 47.5521 42.14 45.4801 40.908C43.4641 39.676 41.8681 37.996 40.6921 35.868C39.5161 33.684 38.9281 31.22 38.9281 28.476C38.9281 24.108 40.2441 20.636 42.8761 18.06C45.5641 15.428 49.1201 14.112 53.5441 14.112C56.6801 14.112 59.2281 14.868 61.1881 16.38C63.2041 17.836 64.2121 19.74 64.2121 22.092C64.2121 24.78 63.0641 26.936 60.7681 28.56C58.5281 30.128 55.4481 30.912 51.5281 30.912C49.9601 30.912 48.5321 30.8 47.2441 30.576C47.5241 33.488 48.3641 35.784 49.7641 37.464C51.1641 39.144 52.9001 39.984 54.9721 39.984ZM52.6201 16.128C50.8841 16.128 49.5121 17.192 48.5041 19.32C47.5521 21.392 47.0761 24.304 47.0761 28.056V29.4C47.6921 29.4 48.4481 29.344 49.3441 29.232C51.6961 28.952 53.4881 28.196 54.7201 26.964C56.0081 25.676 56.6521 23.996 56.6521 21.924C56.6521 20.244 56.2601 18.872 55.4761 17.808C54.7481 16.688 53.7961 16.128 52.6201 16.128ZM80.6531 42.756C77.9651 42.756 75.8651 41.888 74.3531 40.152C72.8971 38.36 71.8891 35.504 71.3291 31.584L69.5651 19.488C69.5091 19.04 69.3971 18.732 69.2291 18.564C69.0611 18.396 68.8091 18.312 68.4731 18.312H66.2051L65.9531 17.388C67.0731 16.38 68.4171 15.596 69.9851 15.036C71.5531 14.42 73.0931 14.112 74.6051 14.112C75.4451 14.112 76.0331 14.364 76.3691 14.868C76.7611 15.372 77.0691 16.352 77.2931 17.808L79.4771 32.928C79.8691 35.672 80.3171 37.548 80.8211 38.556C81.3251 39.564 82.0811 40.068 83.0891 40.068C84.6571 40.068 85.8891 39.116 86.7851 37.212C87.7371 35.252 88.2131 32.676 88.2131 29.484C88.2131 26.236 87.7931 22.904 86.9531 19.488C86.8411 19.04 86.7291 18.732 86.6171 18.564C86.5051 18.396 86.2531 18.312 85.8611 18.312H83.6771L83.4251 17.388C84.4891 16.38 85.8051 15.596 87.3731 15.036C88.9411 14.42 90.5091 14.112 92.0771 14.112C92.8611 14.112 93.4491 14.392 93.8411 14.952C94.2331 15.456 94.5131 16.408 94.6811 17.808L96.7811 32.508C97.2291 35.532 97.7051 37.548 98.2091 38.556C98.7691 39.564 99.4411 40.068 100.225 40.068C101.737 40.068 102.941 38.948 103.837 36.708C104.789 34.412 105.265 31.444 105.265 27.804C105.265 25.34 105.013 23.212 104.509 21.42C104.061 19.572 103.305 17.948 102.241 16.548L101.569 15.624L102.157 14.952L109.213 14.112C109.381 16.296 109.465 18.228 109.465 19.908C109.465 27.076 108.429 32.676 106.357 36.708C104.341 40.74 101.429 42.756 97.6211 42.756C95.3251 42.756 93.5891 42.168 92.4131 40.992C91.2371 39.816 90.2571 37.66 89.4731 34.524C88.3531 40.012 85.4131 42.756 80.6531 42.756ZM124.303 23.436C123.127 24.108 121.727 24.444 120.103 24.444C118.927 24.444 118.003 24.108 117.331 23.436C116.659 22.708 116.323 21.7 116.323 20.412C116.323 18.508 117.247 16.996 119.095 15.876C120.999 14.7 123.463 14.112 126.487 14.112C130.071 14.112 132.871 14.896 134.887 16.464C136.959 18.032 137.995 20.16 137.995 22.848V37.38C137.995 38.948 138.555 39.732 139.675 39.732C140.739 39.732 141.775 39.312 142.783 38.472L143.455 39.312C141.383 41.608 138.919 42.756 136.063 42.756C134.383 42.756 133.095 42.336 132.199 41.496C131.359 40.656 130.855 39.34 130.687 37.548H130.351C129.455 39.172 128.251 40.46 126.739 41.412C125.283 42.308 123.603 42.756 121.699 42.756C119.571 42.756 117.863 42.112 116.575 40.824C115.287 39.48 114.643 37.744 114.643 35.616C114.643 33.208 115.791 31.304 118.087 29.904C120.383 28.504 123.491 27.804 127.411 27.804C128.139 27.804 129.175 27.86 130.519 27.972V23.772C130.519 21.028 130.183 19.068 129.511 17.892C128.839 16.66 127.747 16.044 126.235 16.044C125.171 16.044 124.331 16.38 123.715 17.052C123.099 17.724 122.791 18.592 122.791 19.656C122.791 21.336 123.295 22.596 124.303 23.436ZM125.563 38.556C128.867 38.556 130.519 35.56 130.519 29.568C127.719 29.568 125.619 30.044 124.219 30.996C122.819 31.892 122.119 33.18 122.119 34.86C122.119 35.98 122.427 36.876 123.043 37.548C123.659 38.22 124.499 38.556 125.563 38.556ZM163.635 14.112C165.427 14.112 166.883 14.644 168.003 15.708C169.123 16.716 169.683 18.032 169.683 19.656C169.683 21.168 169.235 22.4 168.339 23.352C167.443 24.248 166.267 24.696 164.811 24.696C163.691 24.696 162.655 24.472 161.703 24.024C162.711 23.184 163.215 21.924 163.215 20.244C163.215 19.46 163.047 18.844 162.711 18.396C162.375 17.948 161.927 17.724 161.367 17.724C160.023 17.724 158.903 19.096 158.007 21.84C157.111 24.528 156.663 27.888 156.663 31.92C156.663 33.992 156.775 35.644 156.999 36.876C157.279 38.108 157.727 39.256 158.343 40.32L159.015 41.16L158.343 42H146.163L145.659 40.572L146.835 40.32C147.731 40.096 148.319 39.76 148.599 39.312C148.879 38.808 149.019 37.856 149.019 36.456V20.076C149.019 19.012 148.655 18.48 147.927 18.48H145.323L144.987 17.556C146.051 16.604 147.367 15.82 148.935 15.204C150.559 14.588 152.155 14.28 153.723 14.28C154.451 14.28 155.039 14.448 155.487 14.784C155.935 15.12 156.159 15.568 156.159 16.128V22.26H156.411C157.587 16.828 159.995 14.112 163.635 14.112ZM204.071 39.312C201.999 41.608 199.563 42.756 196.763 42.756C195.027 42.756 193.739 42.392 192.899 41.664C192.059 40.88 191.499 39.62 191.219 37.884C189.763 39.564 188.251 40.796 186.683 41.58C185.115 42.364 183.379 42.756 181.475 42.756C178.675 42.756 176.379 41.524 174.587 39.06C172.851 36.596 171.983 33.404 171.983 29.484C171.983 24.78 173.215 21.056 175.679 18.312C178.143 15.512 181.503 14.112 185.759 14.112C187.719 14.112 189.511 14.56 191.135 15.456V6.132C191.135 5.348 190.771 4.956 190.043 4.956H187.187L186.851 4.116C187.971 3.108 189.399 2.324 191.135 1.764C192.871 1.148 194.579 0.839999 196.259 0.839999C196.987 0.839999 197.575 1.008 198.023 1.344C198.471 1.624 198.695 2.044 198.695 2.604V37.212C198.695 38.892 199.227 39.732 200.291 39.732C201.355 39.732 202.391 39.312 203.399 38.472L204.071 39.312ZM185.843 38.724C187.971 38.724 189.735 37.548 191.135 35.196V17.136C190.015 16.576 188.783 16.296 187.439 16.296C182.735 16.296 180.383 20.356 180.383 28.476C180.383 31.78 180.831 34.328 181.727 36.12C182.679 37.856 184.051 38.724 185.843 38.724ZM214.588 19.824C214.588 21.224 215.12 22.372 216.184 23.268C217.304 24.108 218.984 25.06 221.224 26.124C223.072 27.02 224.5 27.804 225.508 28.476C226.516 29.092 227.384 29.932 228.112 30.996C228.896 32.06 229.288 33.32 229.288 34.776C229.288 37.184 228.14 39.116 225.844 40.572C223.604 42.028 220.58 42.756 216.772 42.756C213.916 42.756 211.564 42.252 209.716 41.244C207.868 40.18 206.944 38.808 206.944 37.128C206.944 36.008 207.364 35.084 208.204 34.356C209.044 33.572 210.08 33.18 211.312 33.18C212.264 33.18 213.216 33.376 214.168 33.768C213.216 34.496 212.74 35.672 212.74 37.296C212.74 38.416 213.132 39.284 213.916 39.9C214.7 40.516 215.652 40.824 216.772 40.824C218.06 40.824 219.152 40.488 220.048 39.816C221 39.144 221.476 38.192 221.476 36.96C221.476 35.784 221 34.86 220.048 34.188C219.152 33.46 217.724 32.62 215.764 31.668C213.972 30.828 212.516 30.072 211.396 29.4C210.332 28.672 209.408 27.72 208.624 26.544C207.84 25.368 207.448 23.94 207.448 22.26C207.448 19.74 208.512 17.752 210.64 16.296C212.768 14.84 215.456 14.112 218.704 14.112C221.56 14.112 223.884 14.644 225.676 15.708C227.524 16.772 228.448 18.144 228.448 19.824C228.448 21.112 228.056 22.064 227.272 22.68C226.488 23.296 225.48 23.604 224.248 23.604C223.072 23.604 222.036 23.352 221.14 22.848C222.148 21.896 222.652 20.692 222.652 19.236C222.652 18.284 222.288 17.528 221.56 16.968C220.832 16.352 219.88 16.044 218.704 16.044C217.416 16.044 216.408 16.408 215.68 17.136C214.952 17.864 214.588 18.76 214.588 19.824Z" fill="#FBBC04"/>
<path d="M38.1557 39.144L38.9224 39.7859L39.4237 39.1873L38.9644 38.5558L38.1557 39.144ZM25.4717 41.412L24.824 42.1739L24.8444 42.1912L24.8656 42.2074L25.4717 41.412ZM22.5317 36.624L21.5819 36.937L21.5883 36.9562L21.5954 36.9751L22.5317 36.624ZM20.0957 29.232L21.0454 28.919L21.0398 28.9017L21.0334 28.8847L20.0957 29.232ZM18.5837 25.956L17.732 26.4801L17.7416 26.4956L17.7516 26.5107L18.5837 25.956ZM16.4837 24.276L16.0158 25.1598L16.0584 25.1823L16.1029 25.2007L16.4837 24.276ZM15.0557 23.52L14.0751 23.3239L13.9289 24.055L14.5878 24.4038L15.0557 23.52ZM15.2237 22.68L15.3477 21.6877L14.4254 21.5724L14.2431 22.4839L15.2237 22.68ZM18.4157 22.68L18.2556 21.6929L18.2375 21.6958L18.2196 21.6994L18.4157 22.68ZM23.2877 19.824L24.0877 20.424L24.0877 20.424L23.2877 19.824ZM22.9517 6.72L22.1637 7.33564L22.1684 7.34173L22.1733 7.34775L22.9517 6.72ZM14.1317 36.288L13.1615 36.5305L13.1677 36.555L13.175 36.5792L14.1317 36.288ZM16.1477 40.152L16.9797 39.5973L16.9663 39.5771L16.9519 39.5576L16.1477 40.152ZM16.8197 41.16L17.6006 41.7847L18.0573 41.2137L17.6517 40.6053L16.8197 41.16ZM16.1477 42V43H16.6283L16.9286 42.6247L16.1477 42ZM1.53169 42L0.599683 42.3624L0.84762 43H1.53169V42ZM0.943688 40.488L0.674058 39.525L-0.388097 39.8224L0.0116829 40.8504L0.943688 40.488ZM3.96769 39.396L4.44654 40.2739L4.47613 40.2578L4.50456 40.2397L3.96769 39.396ZM5.05969 8.232L4.09261 8.48649L4.10081 8.51766L4.111 8.54823L5.05969 8.232ZM2.95969 5.628L3.47422 4.77044L3.46356 4.76422L2.95969 5.628ZM1.95169 5.04L0.995909 4.74591L0.762625 5.50408L1.44782 5.90378L1.95169 5.04ZM2.28769 3.948L1.98068 2.99629L1.48506 3.15617L1.33191 3.65391L2.28769 3.948ZM8.92369 2.604L9.04772 3.59628L9.05643 3.59519L9.06511 3.59395L8.92369 2.604ZM28.8317 5.208L29.4001 4.38527L29.4001 4.38527L28.8317 5.208ZM30.9317 20.832L30.1635 20.1918L30.1617 20.194L30.9317 20.832ZM24.6317 24.78L24.3793 23.8124L21.6149 24.5335L24.2255 25.6938L24.6317 24.78ZM28.8317 29.316L29.7735 28.9796L29.77 28.9703L28.8317 29.316ZM31.7717 37.548L32.7204 37.2318L32.717 37.2217L32.7134 37.2117L31.7717 37.548ZM37.4837 38.22L38.2924 37.6318L37.6609 36.7634L36.8396 37.4551L37.4837 38.22ZM37.3889 38.5021C35.5703 40.6743 33.2234 41.756 30.2597 41.756V43.756C33.792 43.756 36.7091 42.4297 38.9224 39.7859L37.3889 38.5021ZM30.2597 41.756C28.3841 41.756 27.026 41.339 26.0777 40.6166L24.8656 42.2074C26.2694 43.277 28.1033 43.756 30.2597 43.756V41.756ZM26.1193 40.6501C25.1861 39.8568 24.2818 38.4429 23.468 36.2729L21.5954 36.9751C22.4616 39.2851 23.5173 41.0632 24.824 42.1739L26.1193 40.6501ZM23.4814 36.311L21.0454 28.919L19.1459 29.545L21.5819 36.937L23.4814 36.311ZM21.0334 28.8847C20.4676 27.3568 19.9311 26.1743 19.4157 25.4013L17.7516 26.5107C18.1323 27.0817 18.6038 28.0832 19.1579 29.5793L21.0334 28.8847ZM19.4353 25.4319C18.8555 24.4897 17.9709 23.8069 16.8644 23.3513L16.1029 25.2007C16.9005 25.5291 17.4159 25.9663 17.732 26.4801L19.4353 25.4319ZM16.9516 23.3922L15.5236 22.6362L14.5878 24.4038L16.0158 25.1598L16.9516 23.3922ZM16.0363 23.7161L16.2043 22.8761L14.2431 22.4839L14.0751 23.3239L16.0363 23.7161ZM15.0997 23.6723C15.6059 23.7356 16.24 23.764 16.9877 23.764V21.764C16.2794 21.764 15.7375 21.7364 15.3477 21.6877L15.0997 23.6723ZM16.9877 23.764C17.6612 23.764 18.2253 23.7379 18.6118 23.6606L18.2196 21.6994C18.046 21.7341 17.6581 21.764 16.9877 21.764V23.764ZM18.5758 23.6671C20.8832 23.2929 22.7448 22.2146 24.0877 20.424L22.4877 19.224C21.4786 20.5694 20.0922 21.3951 18.2556 21.6929L18.5758 23.6671ZM24.0877 20.424C25.4237 18.6427 26.0517 16.4 26.0517 13.776H24.0517C24.0517 16.08 23.5037 17.8693 22.4877 19.224L24.0877 20.424ZM26.0517 13.776C26.0517 10.6554 25.3148 8.05722 23.7301 6.09225L22.1733 7.34775C23.3886 8.85478 24.0517 10.9606 24.0517 13.776H26.0517ZM23.7397 6.10435C22.1481 4.06704 20.008 3.032 17.4077 3.032V5.032C19.3993 5.032 20.9553 5.78895 22.1637 7.33564L23.7397 6.10435ZM17.4077 3.032C16.01 3.032 14.7756 3.35673 13.8904 4.18294C12.9921 5.02128 12.6277 6.2115 12.6277 7.56H14.6277C14.6277 6.55649 14.8932 5.98271 15.255 5.64505C15.6298 5.29526 16.2853 5.032 17.4077 5.032V3.032ZM12.6277 7.56V30.996H14.6277V7.56H12.6277ZM12.6277 30.996C12.6277 33.2206 12.7977 35.0753 13.1615 36.5305L15.1018 36.0455C14.7936 34.8127 14.6277 33.1394 14.6277 30.996H12.6277ZM13.175 36.5792C13.6058 37.9947 14.3363 39.3837 15.3435 40.7464L16.9519 39.5576C16.0551 38.3443 15.4416 37.1573 15.0884 35.9968L13.175 36.5792ZM15.3156 40.7067L15.9876 41.7147L17.6517 40.6053L16.9797 39.5973L15.3156 40.7067ZM16.0388 40.5353L15.3668 41.3753L16.9286 42.6247L17.6006 41.7847L16.0388 40.5353ZM16.1477 41H1.53169V43H16.1477V41ZM2.46369 41.6376L1.87569 40.1256L0.0116829 40.8504L0.599683 42.3624L2.46369 41.6376ZM1.21332 41.451C2.62591 41.0554 3.72569 40.6671 4.44654 40.2739L3.48884 38.5181C2.97768 38.7969 2.06147 39.1366 0.674058 39.525L1.21332 41.451ZM4.50456 40.2397C5.28416 39.7436 5.85958 39.0725 6.16748 38.2257L4.28789 37.5423C4.1478 37.9275 3.88321 38.2644 3.43081 38.5523L4.50456 40.2397ZM6.16748 38.2257C6.45349 37.4392 6.56369 36.3424 6.56369 35.028H4.56369C4.56369 36.2896 4.44988 37.0968 4.28789 37.5423L6.16748 38.2257ZM6.56369 35.028V12.684H4.56369V35.028H6.56369ZM6.56369 12.684C6.56369 10.6912 6.39587 9.07826 6.00837 7.91577L4.111 8.54823C4.39551 9.40174 4.56369 10.7568 4.56369 12.684H6.56369ZM6.02676 7.97751C5.66815 6.61477 4.77314 5.54988 3.47418 4.7705L2.44519 6.48549C3.38624 7.05012 3.89123 7.72122 4.09261 8.48649L6.02676 7.97751ZM3.46356 4.76422L2.45556 4.17622L1.44782 5.90378L2.45582 6.49178L3.46356 4.76422ZM2.90747 5.33408L3.24347 4.24209L1.33191 3.65391L0.995909 4.74591L2.90747 5.33408ZM2.59469 4.89971C4.24998 4.36574 6.39505 3.92786 9.04772 3.59628L8.79965 1.61172C6.07632 1.95214 3.7974 2.41025 1.98068 2.99629L2.59469 4.89971ZM9.06511 3.59395C11.7754 3.20676 14.1627 3.016 16.2317 3.016V1.016C14.0447 1.016 11.5599 1.21724 8.78227 1.61405L9.06511 3.59395ZM16.2317 3.016C21.4308 3.016 25.4072 4.05743 28.2633 6.03073L29.4001 4.38527C26.0962 2.10257 21.6726 1.016 16.2317 1.016V3.016ZM28.2633 6.03073C31.0772 7.97489 32.4517 10.5815 32.4517 13.944H34.4517C34.4517 9.91448 32.7462 6.6971 29.4001 4.38527L28.2633 6.03073ZM32.4517 13.944C32.4517 16.2813 31.6968 18.3519 30.1635 20.1918L31.6999 21.4722C33.5266 19.2801 34.4517 16.7587 34.4517 13.944H32.4517ZM30.1617 20.194C28.6778 21.9849 26.7624 23.1907 24.3793 23.8124L24.8841 25.7476C27.653 25.0253 29.9376 23.5991 31.7017 21.47L30.1617 20.194ZM24.2255 25.6938C25.987 26.4767 27.1998 27.7792 27.8933 29.6617L29.77 28.9703C28.8956 26.5968 27.3083 24.8753 25.0378 23.8662L24.2255 25.6938ZM27.8899 29.6523L30.8299 37.8843L32.7134 37.2117L29.7734 28.9797L27.8899 29.6523ZM30.823 37.8642C31.0916 38.6701 31.516 39.3626 32.1465 39.8507C32.7849 40.345 33.55 40.564 34.3757 40.564V38.564C33.9134 38.564 33.6005 38.447 33.3709 38.2693C33.1333 38.0854 32.8998 37.7699 32.7204 37.2318L30.823 37.8642ZM34.3757 40.564C35.6954 40.564 36.9517 39.9753 38.1278 38.9849L36.8396 37.4551C35.8877 38.2567 35.072 38.564 34.3757 38.564V40.564ZM36.675 38.8082L37.347 39.7322L38.9644 38.5558L38.2924 37.6318L36.675 38.8082ZM59.2561 39.144L59.6699 40.0544L59.6868 40.0467L59.7033 40.0384L59.2561 39.144ZM62.8681 36.12L63.4681 35.32L62.711 34.7522L62.1024 35.4768L62.8681 36.12ZM63.8761 36.876L64.6965 37.4478L65.2487 36.6555L64.4761 36.076L63.8761 36.876ZM58.9201 41.244L59.3775 42.1333L59.3869 42.1284L58.9201 41.244ZM45.4801 40.908L44.9586 41.7613L44.969 41.7675L45.4801 40.908ZM40.6921 35.868L39.8116 36.3421L39.8169 36.3517L40.6921 35.868ZM42.8761 18.06L43.5756 18.7747L43.5757 18.7745L42.8761 18.06ZM61.1881 16.38L60.5773 17.1718L60.5898 17.1814L60.6026 17.1907L61.1881 16.38ZM60.7681 28.56L61.3416 29.3792L61.3456 29.3764L60.7681 28.56ZM47.2441 30.576L47.4154 29.5908L46.1231 29.366L46.2487 30.6717L47.2441 30.576ZM49.7641 37.464L50.5323 36.8238L50.5323 36.8238L49.7641 37.464ZM48.5041 19.32L47.6003 18.8919L47.5954 18.9025L48.5041 19.32ZM47.0761 29.4H46.0761V30.4H47.0761V29.4ZM49.3441 29.232L49.2259 28.239L49.2201 28.2397L49.3441 29.232ZM55.4761 17.808L54.6377 18.353L54.6536 18.3776L54.671 18.4012L55.4761 17.808ZM54.9721 40.984C56.7108 40.984 58.2846 40.684 59.6699 40.0544L58.8423 38.2336C57.7636 38.724 56.4814 38.984 54.9721 38.984V40.984ZM59.7033 40.0384C61.0905 39.3448 62.3972 38.2353 63.6338 36.7632L62.1024 35.4768C60.987 36.8047 59.8857 37.7112 58.8089 38.2496L59.7033 40.0384ZM62.2681 36.92L63.2761 37.676L64.4761 36.076L63.4681 35.32L62.2681 36.92ZM63.0557 36.3042C61.8601 38.0197 60.33 39.3692 58.4533 40.3596L59.3869 42.1284C61.5422 40.9908 63.3161 39.4283 64.6965 37.4478L63.0557 36.3042ZM58.4627 40.3547C56.6537 41.2851 54.656 41.756 52.4521 41.756V43.756C54.9522 43.756 57.2665 43.2189 59.3774 42.1333L58.4627 40.3547ZM52.4521 41.756C50.0432 41.756 47.8979 41.1822 45.9912 40.0485L44.969 41.7675C47.2063 43.0978 49.709 43.756 52.4521 43.756V41.756ZM46.0015 40.0547C44.138 38.9159 42.662 37.3651 41.5673 35.3843L39.8169 36.3517C41.0742 38.6269 42.7902 40.4361 44.9586 41.7613L46.0015 40.0547ZM41.5726 35.3939C40.4831 33.3706 39.9281 31.0724 39.9281 28.476H37.9281C37.9281 31.3676 38.5491 33.9974 39.8116 36.3421L41.5726 35.3939ZM39.9281 28.476C39.9281 24.323 41.1712 21.1279 43.5756 18.7747L42.1766 17.3453C39.317 20.1441 37.9281 23.893 37.9281 28.476H39.9281ZM43.5757 18.7745C46.0443 16.3574 49.3323 15.112 53.5441 15.112V13.112C48.9079 13.112 45.0839 14.4986 42.1765 17.3455L43.5757 18.7745ZM53.5441 15.112C56.5189 15.112 58.8344 15.8272 60.5773 17.1718L61.7989 15.5882C59.6218 13.9087 56.8413 13.112 53.5441 13.112V15.112ZM60.6026 17.1907C62.3758 18.4713 63.2121 20.0821 63.2121 22.092H65.2121C65.2121 19.3979 64.0324 17.2007 61.7736 15.5693L60.6026 17.1907ZM63.2121 22.092C63.2121 24.4381 62.2361 26.2968 60.1906 27.7436L61.3456 29.3764C63.8921 27.5752 65.2121 25.1219 65.2121 22.092H63.2121ZM60.1946 27.7408C58.1812 29.1502 55.3283 29.912 51.5281 29.912V31.912C55.5679 31.912 58.875 31.1058 61.3416 29.3792L60.1946 27.7408ZM51.5281 29.912C50.0066 29.912 48.637 29.8032 47.4154 29.5908L47.0728 31.5612C48.4272 31.7968 49.9136 31.912 51.5281 31.912V29.912ZM46.2487 30.6717C46.5416 33.7176 47.4302 36.2254 48.9959 38.1042L50.5323 36.8238C49.298 35.3426 48.5066 33.2584 48.2395 30.4803L46.2487 30.6717ZM48.9959 38.1042C50.5738 39.9977 52.585 40.984 54.9721 40.984V38.984C53.2152 38.984 51.7544 38.2903 50.5323 36.8238L48.9959 38.1042ZM52.6201 15.128C50.3587 15.128 48.7046 16.5608 47.6004 18.8919L49.4078 19.7481C50.3196 17.8232 51.4095 17.128 52.6201 17.128V15.128ZM47.5954 18.9025C46.5566 21.1635 46.0761 24.2415 46.0761 28.056H48.0761C48.0761 24.3665 48.5476 21.6205 49.4128 19.7375L47.5954 18.9025ZM46.0761 28.056V29.4H48.0761V28.056H46.0761ZM47.0761 30.4C47.7478 30.4 48.548 30.3393 49.4681 30.2243L49.2201 28.2397C48.3481 28.3487 47.6364 28.4 47.0761 28.4V30.4ZM49.4623 30.225C51.9577 29.9279 53.988 29.1103 55.4272 27.6711L54.013 26.2569C52.9882 27.2816 51.4345 27.9761 49.2259 28.239L49.4623 30.225ZM55.4272 27.6711C56.929 26.1693 57.6521 24.2215 57.6521 21.924H55.6521C55.6521 23.7705 55.0871 25.1827 54.013 26.2569L55.4272 27.6711ZM57.6521 21.924C57.6521 20.0888 57.2225 18.4923 56.2812 17.2148L54.671 18.4012C55.2977 19.2517 55.6521 20.3992 55.6521 21.924H57.6521ZM56.3145 17.263C55.4315 15.9045 54.1853 15.128 52.6201 15.128V17.128C53.4069 17.128 54.0647 17.4715 54.6377 18.353L56.3145 17.263ZM74.3531 40.152L73.577 40.7826L73.5878 40.7959L73.599 40.8088L74.3531 40.152ZM71.3291 31.584L72.3191 31.4426L72.3187 31.4397L71.3291 31.584ZM69.5651 19.488L68.5728 19.612L68.5741 19.6222L68.5756 19.6323L69.5651 19.488ZM69.2291 18.564L68.522 19.2711L68.522 19.2711L69.2291 18.564ZM66.2051 18.312L65.2404 18.5751L65.4413 19.312H66.2051V18.312ZM65.9531 17.388L65.2842 16.6447L64.8263 17.0568L64.9884 17.6511L65.9531 17.388ZM69.9851 15.036L70.3215 15.9777L70.3362 15.9725L70.3508 15.9668L69.9851 15.036ZM76.3691 14.868L75.5371 15.4227L75.5573 15.4531L75.5798 15.4819L76.3691 14.868ZM77.2931 17.808L78.2829 17.665L78.2815 17.6559L77.2931 17.808ZM79.4771 32.928L80.4671 32.7866L80.4669 32.785L79.4771 32.928ZM80.8211 38.556L79.9267 39.0032L79.9267 39.0032L80.8211 38.556ZM86.7851 37.212L85.8855 36.7751L85.8803 36.7862L86.7851 37.212ZM86.9531 19.488L87.9242 19.2492L87.9233 19.2455L86.9531 19.488ZM86.6171 18.564L85.7851 19.1187L85.7851 19.1187L86.6171 18.564ZM83.6771 18.312L82.7124 18.5751L82.9133 19.312H83.6771V18.312ZM83.4251 17.388L82.7374 16.662L82.3029 17.0737L82.4604 17.6511L83.4251 17.388ZM87.3731 15.036L87.7095 15.9777L87.7242 15.9725L87.7388 15.9668L87.3731 15.036ZM93.8411 14.952L93.0219 15.5255L93.0363 15.5461L93.0518 15.5659L93.8411 14.952ZM94.6811 17.808L93.6882 17.9271L93.6896 17.9383L93.6912 17.9494L94.6811 17.808ZM96.7811 32.508L95.7912 32.6494L95.7919 32.6545L96.7811 32.508ZM98.2091 38.556L97.3147 39.0032L97.3244 39.0226L97.335 39.0416L98.2091 38.556ZM103.837 36.708L102.913 36.325L102.909 36.3366L103.837 36.708ZM104.509 21.42L103.537 21.6556L103.542 21.6733L103.546 21.6907L104.509 21.42ZM102.241 16.548L101.432 17.1362L101.439 17.1447L101.445 17.1531L102.241 16.548ZM101.569 15.624L100.817 14.9655L100.291 15.5664L100.76 16.2122L101.569 15.624ZM102.157 14.952L102.039 13.959L101.657 14.0044L101.405 14.2935L102.157 14.952ZM109.213 14.112L110.21 14.0353L110.13 12.9958L109.095 13.119L109.213 14.112ZM106.357 36.708L105.468 36.2509L105.463 36.2608L106.357 36.708ZM92.4131 40.992L93.1202 40.2849L93.1202 40.2849L92.4131 40.992ZM89.4731 34.524L90.4433 34.2815L88.4933 34.324L89.4731 34.524ZM80.6531 41.756C78.2008 41.756 76.3968 40.9758 75.1072 39.4952L73.599 40.8088C75.3335 42.8002 77.7295 43.756 80.6531 43.756V41.756ZM75.1292 39.5214C73.8427 37.9379 72.8695 35.2959 72.3191 31.4426L70.3392 31.7254C70.9087 35.7121 71.9516 38.7821 73.577 40.7826L75.1292 39.5214ZM72.3187 31.4397L70.5547 19.3437L68.5756 19.6323L70.3396 31.7283L72.3187 31.4397ZM70.5574 19.364C70.4952 18.8664 70.3507 18.2714 69.9362 17.8569L68.522 19.2711C68.4713 19.2204 68.4755 19.1971 68.4993 19.2627C68.5222 19.3256 68.5509 19.4366 68.5728 19.612L70.5574 19.364ZM69.9362 17.8569C69.5146 17.4352 68.9633 17.312 68.4731 17.312V19.312C68.5158 19.312 68.5469 19.3147 68.568 19.3177C68.5889 19.3207 68.598 19.3237 68.5979 19.3237C68.5975 19.3235 68.588 19.3203 68.5729 19.3112C68.5574 19.302 68.5396 19.2887 68.522 19.2711L69.9362 17.8569ZM68.4731 17.312H66.2051V19.312H68.4731V17.312ZM67.1699 18.0489L66.9179 17.1249L64.9884 17.6511L65.2404 18.5751L67.1699 18.0489ZM66.6221 18.1313C67.6355 17.2192 68.8633 16.4985 70.3215 15.9777L69.6488 14.0943C67.971 14.6935 66.5107 15.5408 65.2842 16.6447L66.6221 18.1313ZM70.3508 15.9668C71.8156 15.3913 73.2318 15.112 74.6051 15.112V13.112C72.9545 13.112 71.2907 13.4487 69.6195 14.1052L70.3508 15.9668ZM74.6051 15.112C75.252 15.112 75.4532 15.2968 75.5371 15.4227L77.2012 14.3133C76.6131 13.4312 75.6383 13.112 74.6051 13.112V15.112ZM75.5798 15.4819C75.7978 15.7623 76.081 16.5059 76.3048 17.9601L78.2815 17.6559C78.0572 16.1981 77.7245 14.9817 77.1585 14.2541L75.5798 15.4819ZM76.3034 17.951L78.4874 33.071L80.4669 32.785L78.2829 17.665L76.3034 17.951ZM78.4872 33.0694C78.8786 35.8092 79.3421 37.8339 79.9267 39.0032L81.7156 38.1088C81.2922 37.2621 80.8597 35.5348 80.4671 32.7866L78.4872 33.0694ZM79.9267 39.0032C80.238 39.6258 80.6577 40.1529 81.2114 40.5221C81.7714 40.8954 82.4101 41.068 83.0891 41.068V39.068C82.7601 39.068 82.5168 38.9886 82.3208 38.8579C82.1186 38.7231 81.9082 38.4942 81.7156 38.1088L79.9267 39.0032ZM83.0891 41.068C85.1796 41.068 86.6956 39.7508 87.6899 37.6378L85.8803 36.7862C85.0827 38.4812 84.1347 39.068 83.0891 39.068V41.068ZM87.6846 37.6489C88.7262 35.5044 89.2131 32.7625 89.2131 29.484H87.2131C87.2131 32.5895 86.748 34.9996 85.8856 36.7751L87.6846 37.6489ZM89.2131 29.484C89.2131 26.1492 88.7818 22.7369 87.9242 19.2492L85.9821 19.7268C86.8044 23.0711 87.2131 26.3228 87.2131 29.484H89.2131ZM87.9233 19.2455C87.81 18.7925 87.6656 18.334 87.4492 18.0093L85.7851 19.1187C85.7781 19.1082 85.802 19.1435 85.8453 19.2627C85.8858 19.3741 85.9323 19.5277 85.983 19.7305L87.9233 19.2455ZM87.4492 18.0093C87.0326 17.3844 86.2916 17.312 85.8611 17.312V19.312C85.9244 19.312 85.9696 19.3154 85.9995 19.3193C86.03 19.3233 86.0373 19.3268 86.0279 19.3237C86.0097 19.3176 85.8865 19.2708 85.7851 19.1187L87.4492 18.0093ZM85.8611 17.312H83.6771V19.312H85.8611V17.312ZM84.6419 18.0489L84.3899 17.1249L82.4604 17.6511L82.7124 18.5751L84.6419 18.0489ZM84.1129 18.114C85.0632 17.2137 86.2546 16.4974 87.7095 15.9777L87.0368 14.0943C85.3557 14.6946 83.9151 15.5463 82.7374 16.662L84.1129 18.114ZM87.7388 15.9668C89.199 15.3931 90.6433 15.112 92.0771 15.112V13.112C90.3749 13.112 88.6832 13.4469 87.0075 14.1052L87.7388 15.9668ZM92.0771 15.112C92.5902 15.112 92.8467 15.2751 93.0219 15.5255L94.6604 14.3785C94.0516 13.5089 93.1321 13.112 92.0771 13.112V15.112ZM93.0518 15.5659C93.2605 15.8343 93.5215 16.5378 93.6882 17.9271L95.674 17.6889C95.5047 16.2782 95.2058 15.0777 94.6305 14.3381L93.0518 15.5659ZM93.6912 17.9494L95.7912 32.6494L97.7711 32.3666L95.6711 17.6666L93.6912 17.9494ZM95.7919 32.6545C96.2375 35.6625 96.7293 37.8324 97.3147 39.0032L99.1036 38.1088C98.681 37.2636 98.2207 35.4015 97.7703 32.3615L95.7919 32.6545ZM97.335 39.0416C97.9797 40.2021 98.922 41.068 100.225 41.068V39.068C99.9603 39.068 99.5586 38.9259 99.0833 38.0704L97.335 39.0416ZM100.225 41.068C102.365 41.068 103.82 39.4434 104.766 37.0794L102.909 36.3366C102.062 38.4526 101.109 39.068 100.225 39.068V41.068ZM104.761 37.091C105.781 34.6309 106.265 31.5197 106.265 27.804H104.265C104.265 31.3683 103.797 34.1931 102.913 36.325L104.761 37.091ZM106.265 27.804C106.265 25.2761 106.007 23.0525 105.472 21.1493L103.546 21.6907C104.019 23.3715 104.265 25.4039 104.265 27.804H106.265ZM105.481 21.1844C105.003 19.2135 104.191 17.4613 103.037 15.9429L101.445 17.1531C102.419 18.4347 103.119 19.9305 103.537 21.6556L105.481 21.1844ZM103.05 15.9598L102.378 15.0358L100.76 16.2122L101.432 17.1362L103.05 15.9598ZM102.322 16.2825L102.91 15.6105L101.405 14.2935L100.817 14.9655L102.322 16.2825ZM102.275 15.945L109.331 15.105L109.095 13.119L102.039 13.959L102.275 15.945ZM108.216 14.1887C108.383 16.3544 108.465 18.2599 108.465 19.908H110.465C110.465 18.1961 110.38 16.2376 110.21 14.0353L108.216 14.1887ZM108.465 19.908C108.465 27 107.437 32.4192 105.468 36.2509L107.247 37.1651C109.421 32.9328 110.465 27.152 110.465 19.908H108.465ZM105.463 36.2608C104.51 38.1666 103.377 39.5321 102.092 40.4218C100.816 41.3052 99.3378 41.756 97.6211 41.756V43.756C99.7124 43.756 101.594 43.1988 103.23 42.0662C104.857 40.9399 106.188 39.2814 107.252 37.1552L105.463 36.2608ZM97.6211 41.756C95.4874 41.756 94.0467 41.2113 93.1202 40.2849L91.706 41.6991C93.1316 43.1247 95.1629 43.756 97.6211 43.756V41.756ZM93.1202 40.2849C92.1451 39.3097 91.2177 37.3793 90.4433 34.2815L88.503 34.7665C89.2965 37.9407 90.3292 40.3223 91.706 41.6991L93.1202 40.2849ZM88.4933 34.324C87.959 36.9421 87.0147 38.7827 85.7458 39.9669C84.4942 41.1351 82.8293 41.756 80.6531 41.756V43.756C83.2369 43.756 85.422 43.0049 87.1104 41.4291C88.7816 39.8693 89.8672 37.5939 90.4529 34.724L88.4933 34.324ZM124.303 23.436L124.799 24.3042L126.049 23.5897L124.943 22.6678L124.303 23.436ZM117.331 23.436L116.596 24.1143L116.61 24.129L116.624 24.1431L117.331 23.436ZM119.095 15.876L119.613 16.7312L119.62 16.7268L119.095 15.876ZM134.887 16.464L134.273 17.2534L134.283 17.2614L134.887 16.464ZM142.783 38.472L143.564 37.8473L142.926 37.0507L142.143 37.7038L142.783 38.472ZM143.455 39.312L144.197 39.982L144.767 39.351L144.236 38.6873L143.455 39.312ZM132.199 41.496L131.492 42.2031L131.503 42.2145L131.515 42.2255L132.199 41.496ZM130.687 37.548L131.683 37.4547L131.598 36.548H130.687V37.548ZM130.351 37.548V36.548H129.761L129.475 37.0649L130.351 37.548ZM126.739 41.412L127.263 42.2637L127.272 42.2582L126.739 41.412ZM116.575 40.824L115.853 41.5159L115.86 41.5236L115.868 41.5311L116.575 40.824ZM130.519 27.972L130.436 28.9685L131.519 29.0588V27.972H130.519ZM129.511 17.892L128.633 18.3709L128.638 18.3795L128.643 18.3881L129.511 17.892ZM123.715 17.052L124.452 17.7277L124.452 17.7277L123.715 17.052ZM130.519 29.568H131.519V28.568H130.519V29.568ZM124.219 30.996L124.758 31.8383L124.77 31.8308L124.781 31.8229L124.219 30.996ZM123.807 22.5678C122.809 23.1377 121.588 23.444 120.103 23.444V25.444C121.866 25.444 123.445 25.0783 124.799 24.3042L123.807 22.5678ZM120.103 23.444C119.125 23.444 118.48 23.1709 118.038 22.7289L116.624 24.1431C117.526 25.0451 118.728 25.444 120.103 25.444V23.444ZM118.066 22.7577C117.61 22.2645 117.323 21.5263 117.323 20.412H115.323C115.323 21.8737 115.707 23.1515 116.596 24.1143L118.066 22.7577ZM117.323 20.412C117.323 18.9104 118.016 17.6991 119.613 16.7312L118.577 15.0208C116.478 16.2929 115.323 18.1056 115.323 20.412H117.323ZM119.62 16.7268C121.32 15.6769 123.585 15.112 126.487 15.112V13.112C123.34 13.112 120.678 13.7231 118.569 15.0252L119.62 16.7268ZM126.487 15.112C129.936 15.112 132.491 15.8675 134.273 17.2534L135.501 15.6746C133.251 13.9245 130.205 13.112 126.487 13.112V15.112ZM134.283 17.2614C136.096 18.6329 136.995 20.4606 136.995 22.848H138.995C138.995 19.8594 137.822 17.4311 135.49 15.6666L134.283 17.2614ZM136.995 22.848V37.38H138.995V22.848H136.995ZM136.995 37.38C136.995 38.2528 137.145 39.0871 137.601 39.7252C138.101 40.4254 138.852 40.732 139.675 40.732V38.732C139.378 38.732 139.289 38.6466 139.229 38.5628C139.125 38.4169 138.995 38.0752 138.995 37.38H136.995ZM139.675 40.732C141.024 40.732 142.279 40.1939 143.423 39.2402L142.143 37.7038C141.271 38.4301 140.454 38.732 139.675 38.732V40.732ZM142.002 39.0967L142.674 39.9367L144.236 38.6873L143.564 37.8473L142.002 39.0967ZM142.713 38.642C140.813 40.7475 138.611 41.756 136.063 41.756V43.756C139.227 43.756 141.953 42.4685 144.197 39.982L142.713 38.642ZM136.063 41.756C134.542 41.756 133.534 41.3772 132.883 40.7665L131.515 42.2255C132.656 43.2948 134.224 43.756 136.063 43.756V41.756ZM132.906 40.7889C132.297 40.1799 131.84 39.1292 131.683 37.4547L129.691 37.6413C129.87 39.5508 130.421 41.1321 131.492 42.2031L132.906 40.7889ZM130.687 36.548H130.351V38.548H130.687V36.548ZM129.475 37.0649C128.658 38.5467 127.569 39.7074 126.206 40.5658L127.272 42.2582C128.932 41.2126 130.252 39.7973 131.227 38.0311L129.475 37.0649ZM126.215 40.5603C124.934 41.3486 123.44 41.756 121.699 41.756V43.756C123.766 43.756 125.632 43.2674 127.263 42.2637L126.215 40.5603ZM121.699 41.756C119.788 41.756 118.351 41.1858 117.282 40.1169L115.868 41.5311C117.375 43.0382 119.354 43.756 121.699 43.756V41.756ZM117.297 40.1321C116.213 39.0012 115.643 37.526 115.643 35.616H113.643C113.643 37.962 114.361 39.9588 115.853 41.5159L117.297 40.1321ZM115.643 35.616C115.643 33.6028 116.568 32.0016 118.608 30.7578L117.566 29.0502C115.014 30.6064 113.643 32.8132 113.643 35.616H115.643ZM118.608 30.7578C120.691 29.4876 123.596 28.804 127.411 28.804V26.804C123.386 26.804 120.075 27.5204 117.566 29.0502L118.608 30.7578ZM127.411 28.804C128.097 28.804 129.101 28.8573 130.436 28.9685L130.602 26.9755C129.249 26.8627 128.181 26.804 127.411 26.804V28.804ZM131.519 27.972V23.772H129.519V27.972H131.519ZM131.519 23.772C131.519 20.9986 131.189 18.8122 130.379 17.3959L128.643 18.3881C129.177 19.3238 129.519 21.0574 129.519 23.772H131.519ZM130.389 17.4131C129.974 16.653 129.407 16.0457 128.679 15.635C127.955 15.2266 127.128 15.044 126.235 15.044V17.044C126.854 17.044 127.329 17.1694 127.697 17.377C128.061 17.5823 128.376 17.899 128.633 18.3709L130.389 17.4131ZM126.235 15.044C124.942 15.044 123.815 15.4626 122.978 16.3763L124.452 17.7277C124.847 17.2974 125.4 17.044 126.235 17.044V15.044ZM122.978 16.3763C122.165 17.2631 121.791 18.3864 121.791 19.656H123.791C123.791 18.7976 124.033 18.1849 124.452 17.7277L122.978 16.3763ZM121.791 19.656C121.791 21.5429 122.366 23.1234 123.663 24.2042L124.943 22.6678C124.224 22.0686 123.791 21.1291 123.791 19.656H121.791ZM125.563 39.556C126.545 39.556 127.452 39.3316 128.249 38.85C129.043 38.3696 129.673 37.6664 130.156 36.7919C131.103 35.073 131.519 32.6231 131.519 29.568H129.519C129.519 32.5049 129.108 34.549 128.404 35.8261C128.06 36.4496 127.658 36.8699 127.214 37.1385C126.771 37.4059 126.233 37.556 125.563 37.556V39.556ZM130.519 28.568C127.637 28.568 125.299 29.0523 123.657 30.1691L124.781 31.8229C125.939 31.0357 127.801 30.568 130.519 30.568V28.568ZM123.68 30.1537C121.989 31.2359 121.119 32.8435 121.119 34.86H123.119C123.119 33.5165 123.649 32.5481 124.758 31.8383L123.68 30.1537ZM121.119 34.86C121.119 36.1702 121.484 37.3274 122.306 38.2237L123.78 36.8723C123.37 36.4246 123.119 35.7898 123.119 34.86H121.119ZM122.306 38.2237C123.143 39.1374 124.27 39.556 125.563 39.556V37.556C124.728 37.556 124.175 37.3026 123.78 36.8723L122.306 38.2237ZM168.003 15.708L167.314 16.433L167.324 16.4423L167.334 16.4513L168.003 15.708ZM168.339 23.352L169.046 24.0591L169.056 24.0484L169.067 24.0374L168.339 23.352ZM161.703 24.024L161.062 23.2558L159.857 24.2605L161.277 24.9288L161.703 24.024ZM162.711 18.396L163.511 17.796L163.511 17.796L162.711 18.396ZM158.007 21.84L158.955 22.1562L158.957 22.1504L158.007 21.84ZM156.999 36.876L156.015 37.0549L156.019 37.0763L156.023 37.0976L156.999 36.876ZM158.343 40.32L157.477 40.821L157.515 40.886L157.562 40.9447L158.343 40.32ZM159.015 41.16L159.795 41.7847L160.295 41.16L159.795 40.5353L159.015 41.16ZM158.343 42V43H158.823L159.123 42.6247L158.343 42ZM146.163 42L145.22 42.3328L145.455 43H146.163V42ZM145.659 40.572L145.449 39.5942L144.337 39.8325L144.716 40.9048L145.659 40.572ZM146.835 40.32L147.044 41.2978L147.061 41.2943L147.077 41.2901L146.835 40.32ZM148.599 39.312L149.447 39.842L149.46 39.8202L149.473 39.7976L148.599 39.312ZM145.323 18.48L144.383 18.8217L144.622 19.48H145.323V18.48ZM144.987 17.556L144.32 16.8108L143.816 17.2619L144.047 17.8977L144.987 17.556ZM148.935 15.204L148.58 14.2689L148.569 14.2732L148.935 15.204ZM155.487 14.784L154.887 15.584L154.887 15.584L155.487 14.784ZM156.159 22.26H155.159V23.26H156.159V22.26ZM156.411 22.26V23.26H157.217L157.388 22.4716L156.411 22.26ZM163.635 15.112C165.214 15.112 166.409 15.5737 167.314 16.433L168.691 14.983C167.356 13.7143 165.639 13.112 163.635 13.112V15.112ZM167.334 16.4513C168.225 17.2537 168.683 18.2907 168.683 19.656H170.683C170.683 17.7733 170.02 16.1783 168.672 14.9647L167.334 16.4513ZM168.683 19.656C168.683 20.956 168.305 21.9291 167.61 22.6666L169.067 24.0374C170.165 22.8709 170.683 21.38 170.683 19.656H168.683ZM167.632 22.6449C166.951 23.3251 166.044 23.696 164.811 23.696V25.696C166.489 25.696 167.934 25.1709 169.046 24.0591L167.632 22.6449ZM164.811 23.696C163.828 23.696 162.939 23.5005 162.128 23.1192L161.277 24.9288C162.371 25.4435 163.553 25.696 164.811 25.696V23.696ZM162.343 24.7922C163.64 23.7114 164.215 22.1309 164.215 20.244H162.215C162.215 21.7171 161.781 22.6566 161.062 23.2558L162.343 24.7922ZM164.215 20.244C164.215 19.3281 164.019 18.4743 163.511 17.796L161.911 18.996C162.074 19.2137 162.215 19.5919 162.215 20.244H164.215ZM163.511 17.796C162.986 17.0962 162.241 16.724 161.367 16.724V18.724C161.612 18.724 161.763 18.7998 161.911 18.996L163.511 17.796ZM161.367 16.724C160.305 16.724 159.429 17.2813 158.744 18.1206C158.072 18.9435 157.521 20.1048 157.056 21.5296L158.957 22.1504C159.388 20.8312 159.845 19.9345 160.293 19.3854C160.728 18.8527 161.084 18.724 161.367 18.724V16.724ZM157.058 21.5238C156.117 24.3469 155.663 27.8221 155.663 31.92H157.663C157.663 27.9539 158.104 24.7091 158.955 22.1562L157.058 21.5238ZM155.663 31.92C155.663 34.0186 155.775 35.7382 156.015 37.0549L157.982 36.6971C157.774 35.5498 157.663 33.9654 157.663 31.92H155.663ZM156.023 37.0976C156.325 38.425 156.809 39.6676 157.477 40.821L159.208 39.819C158.644 38.8444 158.232 37.791 157.974 36.6544L156.023 37.0976ZM157.562 40.9447L158.234 41.7847L159.795 40.5353L159.123 39.6953L157.562 40.9447ZM158.234 40.5353L157.562 41.3753L159.123 42.6247L159.795 41.7847L158.234 40.5353ZM158.343 41H146.163V43H158.343V41ZM147.106 41.6672L146.602 40.2392L144.716 40.9048L145.22 42.3328L147.106 41.6672ZM145.868 41.5498L147.044 41.2978L146.625 39.3422L145.449 39.5942L145.868 41.5498ZM147.077 41.2901C148.051 41.0466 148.957 40.6247 149.447 39.842L147.751 38.782C147.68 38.8953 147.41 39.1454 146.592 39.3499L147.077 41.2901ZM149.473 39.7976C149.698 39.3928 149.826 38.8919 149.903 38.3655C149.982 37.8251 150.019 37.1849 150.019 36.456H148.019C148.019 37.1271 147.985 37.6629 147.924 38.0745C147.862 38.5001 147.78 38.7272 147.724 38.8264L149.473 39.7976ZM150.019 36.456V20.076H148.019V36.456H150.019ZM150.019 20.076C150.019 19.4611 149.919 18.8232 149.571 18.3143C149.176 17.7373 148.571 17.48 147.927 17.48V19.48C147.987 19.48 147.991 19.4906 147.966 19.4787C147.955 19.4732 147.943 19.4653 147.933 19.4563C147.923 19.4475 147.919 19.4418 147.92 19.4437C147.924 19.4492 147.951 19.4914 147.975 19.6001C148 19.7087 148.019 19.8638 148.019 20.076H150.019ZM147.927 17.48H145.323V19.48H147.927V17.48ZM146.262 18.1383L145.926 17.2143L144.047 17.8977L144.383 18.8217L146.262 18.1383ZM145.653 18.3012C146.615 17.4413 147.823 16.7149 149.3 16.1348L148.569 14.2732C146.91 14.925 145.487 15.7667 144.32 16.8108L145.653 18.3012ZM149.289 16.139C150.812 15.5614 152.288 15.28 153.723 15.28V13.28C152.021 13.28 150.305 13.6146 148.58 14.269L149.289 16.139ZM153.723 15.28C154.299 15.28 154.657 15.4121 154.887 15.584L156.087 13.984C155.42 13.4839 154.602 13.28 153.723 13.28V15.28ZM154.887 15.584C155.083 15.7311 155.159 15.8828 155.159 16.128H157.159C157.159 15.2532 156.786 14.5089 156.087 13.984L154.887 15.584ZM155.159 16.128V22.26H157.159V16.128H155.159ZM156.159 23.26H156.411V21.26H156.159V23.26ZM157.388 22.4716C157.957 19.8417 158.802 17.9913 159.847 16.8124C160.86 15.6692 162.1 15.112 163.635 15.112V13.112C161.529 13.112 159.745 13.9128 158.35 15.4856C156.988 17.0227 156.04 19.2463 155.433 22.0484L157.388 22.4716ZM204.071 39.312L204.813 39.982L205.383 39.351L204.852 38.6873L204.071 39.312ZM192.899 41.664L192.216 42.3951L192.23 42.4076L192.244 42.4197L192.899 41.664ZM191.219 37.884L192.206 37.7248L191.865 35.6113L190.463 37.2291L191.219 37.884ZM186.683 41.58L187.13 42.4744L187.13 42.4744L186.683 41.58ZM174.587 39.06L173.769 39.636L173.774 39.6421L173.778 39.6482L174.587 39.06ZM175.679 18.312L176.423 18.9802L176.429 18.9726L175.679 18.312ZM191.135 15.456L190.652 16.3316L192.135 17.1498V15.456H191.135ZM187.187 4.956L186.258 5.32739L186.51 5.956H187.187V4.956ZM186.851 4.116L186.182 3.3727L185.663 3.8395L185.922 4.48739L186.851 4.116ZM191.135 1.764L191.442 2.71571L191.456 2.71126L191.469 2.70643L191.135 1.764ZM198.023 1.344L197.423 2.144L197.457 2.16948L197.493 2.192L198.023 1.344ZM203.399 38.472L204.18 37.8473L203.542 37.0507L202.759 37.7038L203.399 38.472ZM191.135 35.196L191.994 35.7075L192.135 35.4711V35.196H191.135ZM191.135 17.136H192.135V16.518L191.582 16.2416L191.135 17.136ZM181.727 36.12L180.832 36.5672L180.841 36.5842L180.85 36.6008L181.727 36.12ZM203.328 38.642C201.424 40.7524 199.248 41.756 196.763 41.756V43.756C199.877 43.756 202.574 42.4636 204.813 39.982L203.328 38.642ZM196.763 41.756C195.139 41.756 194.134 41.4111 193.554 40.9083L192.244 42.4197C193.344 43.3729 194.915 43.756 196.763 43.756V41.756ZM193.581 40.9329C192.969 40.3621 192.468 39.3517 192.206 37.7248L190.232 38.0432C190.529 39.8883 191.148 41.3979 192.216 42.3951L193.581 40.9329ZM190.463 37.2291C189.071 38.8353 187.659 39.9738 186.236 40.6856L187.13 42.4744C188.842 41.6182 190.455 40.2927 191.974 38.5389L190.463 37.2291ZM186.236 40.6856C184.818 41.3943 183.237 41.756 181.475 41.756V43.756C183.52 43.756 185.411 43.3337 187.13 42.4744L186.236 40.6856ZM181.475 41.756C179.026 41.756 177.019 40.7036 175.396 38.4718L173.778 39.6482C175.739 42.3444 178.323 43.756 181.475 43.756V41.756ZM175.404 38.484C173.818 36.2328 172.983 33.2594 172.983 29.484H170.983C170.983 33.5486 171.883 36.9592 173.769 39.636L175.404 38.484ZM172.983 29.484C172.983 24.9565 174.165 21.4944 176.423 18.9801L174.935 17.6439C172.264 20.6176 170.983 24.6035 170.983 29.484H172.983ZM176.429 18.9726C178.676 16.42 181.745 15.112 185.759 15.112V13.112C181.26 13.112 177.61 14.604 174.928 17.6514L176.429 18.9726ZM185.759 15.112C187.56 15.112 189.184 15.5219 190.652 16.3316L191.618 14.5804C189.837 13.5981 187.878 13.112 185.759 13.112V15.112ZM192.135 15.456V6.132H190.135V15.456H192.135ZM192.135 6.132C192.135 5.60351 192.014 5.02082 191.595 4.56955C191.163 4.1043 190.581 3.956 190.043 3.956V5.956C190.138 5.956 190.178 5.96909 190.183 5.97069C190.184 5.97119 190.177 5.96883 190.166 5.96129C190.154 5.95356 190.141 5.94306 190.129 5.93045C190.104 5.90307 190.103 5.88792 190.111 5.91318C190.12 5.94238 190.135 6.01022 190.135 6.132H192.135ZM190.043 3.956H187.187V5.956H190.043V3.956ZM188.115 4.58461L187.779 3.74461L185.922 4.48739L186.258 5.32739L188.115 4.58461ZM187.52 4.85929C188.515 3.96313 189.812 3.24141 191.442 2.71571L190.828 0.812289C188.985 1.40659 187.426 2.25286 186.182 3.3727L187.52 4.85929ZM191.469 2.70643C193.108 2.12486 194.703 1.84 196.259 1.84V-0.160001C194.454 -0.160001 192.633 0.171136 190.8 0.821569L191.469 2.70643ZM196.259 1.84C196.835 1.84 197.194 1.97206 197.423 2.144L198.623 0.543997C197.956 0.0439344 197.138 -0.160001 196.259 -0.160001V1.84ZM197.493 2.192C197.628 2.27641 197.695 2.36382 197.695 2.604H199.695C199.695 1.72417 199.314 0.971588 198.553 0.495999L197.493 2.192ZM197.695 2.604V37.212H199.695V2.604H197.695ZM197.695 37.212C197.695 38.1253 197.834 38.9812 198.249 39.6371C198.713 40.3701 199.445 40.732 200.291 40.732V38.732C200.158 38.732 200.09 38.7065 200.058 38.6896C200.029 38.6742 199.988 38.6447 199.939 38.5669C199.822 38.3828 199.695 37.9787 199.695 37.212H197.695ZM200.291 40.732C201.639 40.732 202.895 40.1939 204.039 39.2402L202.759 37.7038C201.887 38.4301 201.07 38.732 200.291 38.732V40.732ZM202.618 39.0967L203.29 39.9367L204.852 38.6873L204.18 37.8473L202.618 39.0967ZM185.843 39.724C188.425 39.724 190.473 38.263 191.994 35.7075L190.275 34.6845C188.997 36.833 187.516 37.724 185.843 37.724V39.724ZM192.135 35.196V17.136H190.135V35.196H192.135ZM191.582 16.2416C190.313 15.6071 188.926 15.296 187.439 15.296V17.296C188.639 17.296 189.716 17.5449 190.688 18.0304L191.582 16.2416ZM187.439 15.296C184.731 15.296 182.637 16.5001 181.281 18.8397C179.974 21.0963 179.383 24.3522 179.383 28.476H181.383C181.383 24.4798 181.967 21.6457 183.012 19.8423C184.009 18.1219 185.442 17.296 187.439 17.296V15.296ZM179.383 28.476C179.383 31.8464 179.836 34.5743 180.832 36.5672L182.621 35.6728C181.826 34.0817 181.383 31.7135 181.383 28.476H179.383ZM180.85 36.6008C181.955 38.6159 183.641 39.724 185.843 39.724V37.724C184.46 37.724 183.403 37.0961 182.604 35.6392L180.85 36.6008ZM216.184 23.268L215.54 24.0329L215.561 24.0511L215.584 24.068L216.184 23.268ZM221.224 26.124L221.66 25.2242L221.653 25.2207L221.224 26.124ZM225.508 28.476L224.953 29.308L224.97 29.319L224.986 29.3293L225.508 28.476ZM228.112 30.996L227.287 31.5607L227.296 31.5751L227.307 31.5892L228.112 30.996ZM225.844 40.572L225.308 39.7274L225.299 39.7336L225.844 40.572ZM209.716 41.244L209.217 42.1106L209.227 42.1164L209.237 42.1219L209.716 41.244ZM208.204 34.356L208.859 35.1117L208.873 35.0996L208.886 35.0871L208.204 34.356ZM214.168 33.768L214.775 34.5624L216.157 33.5057L214.549 32.8433L214.168 33.768ZM213.916 39.9L214.534 39.1137L214.534 39.1137L213.916 39.9ZM220.048 39.816L219.471 38.999L219.459 39.0073L219.448 39.016L220.048 39.816ZM220.048 34.188L219.417 34.9641L219.444 34.9855L219.471 35.005L220.048 34.188ZM215.764 31.668L216.201 30.7684L216.188 30.7625L215.764 31.668ZM211.396 29.4L210.831 30.2253L210.856 30.2421L210.881 30.2575L211.396 29.4ZM208.624 26.544L209.456 25.9893L209.456 25.9893L208.624 26.544ZM210.64 16.296L210.075 15.4707L210.075 15.4707L210.64 16.296ZM225.676 15.708L225.165 16.5679L225.177 16.5746L225.676 15.708ZM227.272 22.68L227.89 23.4663L227.89 23.4663L227.272 22.68ZM221.14 22.848L220.453 22.121L219.466 23.0536L220.65 23.7196L221.14 22.848ZM221.56 16.968L220.914 17.7314L220.932 17.7464L220.95 17.7606L221.56 16.968ZM215.68 17.136L216.387 17.8431L216.387 17.8431L215.68 17.136ZM213.588 19.824C213.588 21.5168 214.248 22.9455 215.54 24.0329L216.828 22.5031C215.991 21.7985 215.588 20.9312 215.588 19.824H213.588ZM215.584 24.068C216.783 24.9674 218.533 25.9529 220.795 27.0273L221.653 25.2207C219.435 24.1671 217.825 23.2486 216.784 22.468L215.584 24.068ZM220.788 27.0238C222.619 27.9116 224 28.6727 224.953 29.308L226.063 27.6439C225 26.9353 223.525 26.1284 221.66 25.2242L220.788 27.0238ZM224.986 29.3293C225.863 29.8651 226.631 30.6025 227.287 31.5607L228.937 30.4313C228.137 29.2615 227.168 28.3189 226.029 27.6227L224.986 29.3293ZM227.307 31.5892C227.951 32.4638 228.288 33.5106 228.288 34.776H230.288C230.288 33.1294 229.84 31.6562 228.917 30.4028L227.307 31.5892ZM228.288 34.776C228.288 36.7924 227.359 38.4269 225.308 39.7275L226.379 41.4165C228.92 39.8051 230.288 37.5756 230.288 34.776H228.288ZM225.299 39.7336C223.276 41.0482 220.465 41.756 216.772 41.756V43.756C220.695 43.756 223.931 43.0078 226.389 41.4104L225.299 39.7336ZM216.772 41.756C214.026 41.756 211.853 41.2705 210.195 40.3661L209.237 42.1219C211.275 43.2335 213.806 43.756 216.772 43.756V41.756ZM210.215 40.3774C208.58 39.4361 207.944 38.3511 207.944 37.128H205.944C205.944 39.2649 207.156 40.9239 209.217 42.1106L210.215 40.3774ZM207.944 37.128C207.944 36.2955 208.24 35.6481 208.859 35.1117L207.549 33.6003C206.488 34.5199 205.944 35.7205 205.944 37.128H207.944ZM208.886 35.0871C209.527 34.4891 210.313 34.18 211.312 34.18V32.18C209.847 32.18 208.561 32.6549 207.522 33.6249L208.886 35.0871ZM211.312 34.18C212.123 34.18 212.946 34.3463 213.787 34.6927L214.549 32.8433C213.486 32.4057 212.405 32.18 211.312 32.18V34.18ZM213.56 32.9736C212.28 33.9529 211.74 35.4794 211.74 37.296H213.74C213.74 35.8646 214.152 35.0391 214.775 34.5624L213.56 32.9736ZM211.74 37.296C211.74 38.6798 212.241 39.8556 213.298 40.6863L214.534 39.1137C214.023 38.7124 213.74 38.1522 213.74 37.296H211.74ZM213.298 40.6863C214.28 41.4577 215.457 41.824 216.772 41.824V39.824C215.847 39.824 215.12 39.5743 214.534 39.1137L213.298 40.6863ZM216.772 41.824C218.242 41.824 219.554 41.4367 220.648 40.616L219.448 39.016C218.75 39.5393 217.877 39.824 216.772 39.824V41.824ZM220.625 40.633C221.859 39.7613 222.476 38.495 222.476 36.96H220.476C220.476 37.889 220.14 38.5267 219.471 38.999L220.625 40.633ZM222.476 36.96C222.476 35.4626 221.845 34.2325 220.625 33.371L219.471 35.005C220.155 35.4875 220.476 36.1054 220.476 36.96H222.476ZM220.678 33.4119C219.692 32.61 218.18 31.73 216.201 30.7685L215.327 32.5675C217.267 33.51 218.612 34.31 219.417 34.9641L220.678 33.4119ZM216.188 30.7625C214.413 29.9304 212.99 29.1905 211.91 28.5425L210.881 30.2575C212.041 30.9535 213.531 31.7255 215.339 32.5735L216.188 30.7625ZM211.961 28.5747C211.012 27.9256 210.176 27.0691 209.456 25.9893L207.792 27.0987C208.64 28.3709 209.652 29.4184 210.831 30.2253L211.961 28.5747ZM209.456 25.9893C208.801 25.0065 208.448 23.7805 208.448 22.26H206.448C206.448 24.0995 206.879 25.7295 207.792 27.0987L209.456 25.9893ZM208.448 22.26C208.448 20.0791 209.341 18.3961 211.205 17.1213L210.075 15.4707C207.682 17.1079 206.448 19.4009 206.448 22.26H208.448ZM211.205 17.1213C213.128 15.8055 215.605 15.112 218.704 15.112V13.112C215.307 13.112 212.408 13.8745 210.075 15.4707L211.205 17.1213ZM218.704 15.112C221.444 15.112 223.575 15.6235 225.165 16.5679L226.186 14.8481C224.193 13.6645 221.676 13.112 218.704 13.112V15.112ZM225.177 16.5746C226.812 17.5159 227.448 18.6009 227.448 19.824H229.448C229.448 17.6871 228.236 16.0281 226.175 14.8414L225.177 16.5746ZM227.448 19.824C227.448 20.9025 227.129 21.5202 226.654 21.8937L227.89 23.4663C228.982 22.6078 229.448 21.3215 229.448 19.824H227.448ZM226.654 21.8937C226.084 22.3412 225.31 22.604 224.248 22.604V24.604C225.65 24.604 226.891 24.2508 227.89 23.4663L226.654 21.8937ZM224.248 22.604C223.219 22.604 222.356 22.3847 221.63 21.9764L220.65 23.7196C221.716 24.3193 222.925 24.604 224.248 24.604V22.604ZM221.826 23.575C223.045 22.4237 223.652 20.9516 223.652 19.236H221.652C221.652 20.4324 221.25 21.3683 220.453 22.121L221.826 23.575ZM223.652 19.236C223.652 17.9868 223.154 16.9326 222.17 16.1754L220.95 17.7606C221.422 18.1234 221.652 18.5812 221.652 19.236H223.652ZM222.206 16.2046C221.258 15.4026 220.059 15.044 218.704 15.044V17.044C219.7 17.044 220.406 17.3014 220.914 17.7314L222.206 16.2046ZM218.704 15.044C217.221 15.044 215.933 15.4689 214.973 16.4289L216.387 17.8431C216.883 17.3471 217.611 17.044 218.704 17.044V15.044ZM214.973 16.4289C214.05 17.3513 213.588 18.5047 213.588 19.824H215.588C215.588 19.0153 215.853 18.3767 216.387 17.8431L214.973 16.4289Z" fill="#FBBC04"/>
</svg>