<svg width="600" height="66" viewBox="0 0 1151 66" fill="none" xmlns="http://www.w3.org/2000/svg">
<path d="M0.322266 65.6406V21.7539C0.322266 15.8477 2.16797 10.9941 5.85938 7.19336C9.74219 3.22852 14.8008 1.24609 21.0352 1.24609C26.668 1.24609 31.4668 3.22852 35.4316 7.19336C36.416 8.17773 37.1543 9.13477 37.6465 10.0645C38.2754 9.10742 39.041 8.19141 39.9434 7.31641C44.0723 3.26953 48.8438 1.24609 54.2578 1.24609C60.3828 1.24609 65.4414 3.22852 69.4336 7.19336C73.125 10.8574 74.9707 15.7109 74.9707 21.7539V61.9492L67.1777 65.6406H66.7676V21.7539C66.7676 18.0898 65.7832 15.123 63.8145 12.8535C61.3809 10.0371 58.1953 8.62891 54.2578 8.62891C50.3203 8.62891 47.1348 10.0371 44.7012 12.8535C42.7324 15.123 41.748 18.0898 41.748 21.7539V61.9492L33.9551 65.6406H33.5449V21.7539C33.5449 18.0898 32.5605 15.123 30.5918 12.8535C28.1582 10.0371 24.9727 8.62891 21.0352 8.62891C17.0977 8.62891 13.9121 10.0371 11.4785 12.8535C9.50977 15.123 8.52539 18.0898 8.52539 21.7539V61.9492L0.732422 65.6406H0.322266ZM91.377 65.6406V4.11719L99.1699 0.425781H99.5801V61.9492L91.7871 65.6406H91.377ZM115.986 64V4.11719L123.779 0.425781H124.189V56.5352H152.285V56.9453L148.963 64H115.986ZM155.771 64V4.11719L160.119 2.06641H186.123V2.47656L182.801 9.53125H163.975V29.3008H186.123V29.7109L182.801 36.7656H163.975V56.5352H192.973V56.9453L189.65 64H155.771ZM243.012 44.6406C243.012 50.2188 241.18 54.9629 237.516 58.873C233.77 62.8379 228.711 64.8203 222.34 64.8203C215.969 64.8203 210.91 62.8379 207.164 58.873C203.473 54.9629 201.627 50.3828 201.627 45.1328L209.42 41.4414H209.83V44.8047C209.83 48.1406 210.814 50.9434 212.783 53.2129C215.217 56.0293 218.402 57.4375 222.34 57.4375C226.25 57.4375 229.436 56.0293 231.896 53.2129C233.838 50.998 234.809 48.168 234.809 44.7227C234.809 41.4688 234.016 38.9121 232.43 37.0527C230.242 34.4824 226.879 33.1973 222.34 33.1973C217.363 33.1973 213.057 31.5566 209.42 28.2754C206.686 25.8145 205.318 22.2461 205.318 17.5703C205.318 12.0742 207.014 7.94531 210.404 5.18359C213.631 2.55859 217.609 1.24609 222.34 1.24609C227.07 1.24609 231.049 2.55859 234.275 5.18359C237.666 7.94531 239.361 11.7324 239.361 16.5449L231.568 20.2363H231.158V16.9551C231.158 13.8379 230.27 11.5137 228.492 9.98242C226.77 8.47852 224.719 7.72656 222.34 7.72656C219.688 7.72656 217.555 8.56055 215.941 10.2285C214.328 11.8965 213.521 14.1387 213.521 16.9551C213.521 19.6621 214.137 21.6992 215.367 23.0664C217.008 24.8984 219.332 25.8145 222.34 25.8145C228.957 25.8145 234.016 27.373 237.516 30.4902C241.18 33.7441 243.012 38.4609 243.012 44.6406ZM261.223 65.6406V9.53125H243.668V9.12109L246.99 2.06641H286.98V2.47656L283.658 9.53125H269.426V61.9492L261.633 65.6406H261.223ZM297.439 44.3125C297.439 47.9766 298.424 50.9434 300.393 53.2129C302.826 56.0293 306.012 57.4375 309.949 57.4375C313.887 57.4375 317.072 56.0293 319.506 53.2129C321.475 50.9434 322.459 47.9766 322.459 44.3125V21.7539C322.459 18.0898 321.475 15.123 319.506 12.8535C317.072 10.0371 313.887 8.62891 309.949 8.62891C306.012 8.62891 302.826 10.0371 300.393 12.8535C298.424 15.123 297.439 18.0898 297.439 21.7539V44.3125ZM289.236 44.3125V21.7539C289.236 15.8203 291.082 10.9668 294.773 7.19336C298.656 3.22852 303.715 1.24609 309.949 1.24609C316.184 1.24609 321.242 3.22852 325.125 7.19336C328.816 10.9395 330.662 15.793 330.662 21.7539V44.3125C330.662 50.2461 328.816 55.0996 325.125 58.873C321.242 62.8379 316.184 64.8203 309.949 64.8203C303.715 64.8203 298.656 62.8379 294.773 58.873C291.082 55.0996 289.236 50.2461 289.236 44.3125ZM347.068 65.6406V21.7539C347.068 15.8477 348.914 10.9941 352.605 7.19336C356.488 3.22852 361.547 1.24609 367.781 1.24609C373.934 1.24609 378.992 3.22852 382.957 7.19336C386.648 10.8574 388.494 15.7109 388.494 21.7539V61.9492L380.701 65.6406H380.291V21.7539C380.291 18.0898 379.307 15.123 377.338 12.8535C374.904 10.0371 371.719 8.62891 367.781 8.62891C363.844 8.62891 360.658 10.0371 358.225 12.8535C356.256 15.123 355.271 18.0898 355.271 21.7539V61.9492L347.479 65.6406H347.068ZM404.9 64V4.11719L409.248 2.06641H435.252V2.47656L431.93 9.53125H413.104V29.3008H435.252V29.7109L431.93 36.7656H413.104V56.5352H442.102V56.9453L438.779 64H404.9ZM492.141 44.6406C492.141 50.2188 490.309 54.9629 486.645 58.873C482.898 62.8379 477.84 64.8203 471.469 64.8203C465.098 64.8203 460.039 62.8379 456.293 58.873C452.602 54.9629 450.756 50.3828 450.756 45.1328L458.549 41.4414H458.959V44.8047C458.959 48.1406 459.943 50.9434 461.912 53.2129C464.346 56.0293 467.531 57.4375 471.469 57.4375C475.379 57.4375 478.564 56.0293 481.025 53.2129C482.967 50.998 483.938 48.168 483.938 44.7227C483.938 41.4688 483.145 38.9121 481.559 37.0527C479.371 34.4824 476.008 33.1973 471.469 33.1973C466.492 33.1973 462.186 31.5566 458.549 28.2754C455.814 25.8145 454.447 22.2461 454.447 17.5703C454.447 12.0742 456.143 7.94531 459.533 5.18359C462.76 2.55859 466.738 1.24609 471.469 1.24609C476.199 1.24609 480.178 2.55859 483.404 5.18359C486.795 7.94531 488.49 11.7324 488.49 16.5449L480.697 20.2363H480.287V16.9551C480.287 13.8379 479.398 11.5137 477.621 9.98242C475.898 8.47852 473.848 7.72656 471.469 7.72656C468.816 7.72656 466.684 8.56055 465.07 10.2285C463.457 11.8965 462.65 14.1387 462.65 16.9551C462.65 19.6621 463.266 21.6992 464.496 23.0664C466.137 24.8984 468.461 25.8145 471.469 25.8145C478.086 25.8145 483.145 27.373 486.645 30.4902C490.309 33.7441 492.141 38.4609 492.141 44.6406ZM539.76 65.6406V21.7539C539.76 15.8477 541.605 10.9941 545.297 7.19336C549.18 3.22852 554.238 1.24609 560.473 1.24609C566.598 1.24609 571.656 3.22852 575.648 7.19336C579.34 10.8574 581.186 15.7109 581.186 21.7539V61.9492L573.393 65.6406H572.982V36.7656H547.963V61.9492L540.17 65.6406H539.76ZM547.963 29.3008H572.982V21.7539C572.982 18.0898 571.998 15.123 570.029 12.8535C567.596 10.0371 564.41 8.62891 560.473 8.62891C556.535 8.62891 553.35 10.0371 550.916 12.8535C548.947 15.123 547.963 18.0898 547.963 21.7539V29.3008ZM597.592 65.6406V21.7539C597.592 15.8477 599.438 10.9941 603.129 7.19336C607.012 3.22852 612.07 1.24609 618.305 1.24609C624.457 1.24609 629.516 3.22852 633.48 7.19336C637.172 10.8574 639.018 15.7109 639.018 21.7539V61.9492L631.225 65.6406H630.814V21.7539C630.814 18.0898 629.83 15.123 627.861 12.8535C625.428 10.0371 622.242 8.62891 618.305 8.62891C614.367 8.62891 611.182 10.0371 608.748 12.8535C606.779 15.123 605.795 18.0898 605.795 21.7539V61.9492L598.002 65.6406H597.592ZM655.424 64V4.11719L659.771 2.06641H675.316C681.551 2.06641 686.609 4.04883 690.492 8.01367C694.184 11.7598 696.029 16.6133 696.029 22.5742V43.4922C696.029 49.4258 694.184 54.2793 690.492 58.0527C686.609 62.0176 681.551 64 675.316 64H655.424ZM663.627 56.6172H675.316C679.254 56.6172 682.439 55.209 684.873 52.3926C686.842 50.123 687.826 47.1562 687.826 43.4922V22.5742C687.826 18.9102 686.842 15.9434 684.873 13.6738C682.439 10.8574 679.254 9.44922 675.316 9.44922H663.627V56.6172ZM745.248 65.6406V4.11719L749.596 2.06641H765.141C771.375 2.06641 776.434 4.04883 780.316 8.01367C784.008 11.7871 785.854 16.6406 785.854 22.5742C785.854 28.5352 784.008 33.3887 780.316 37.1348C778.129 39.3496 775.572 40.9492 772.646 41.9336L786.838 62.2363L779.619 65.6406H779.209L763.418 43.082H753.451V61.9492L745.658 65.6406H745.248ZM753.451 35.6992H765.141C768.723 35.6992 771.908 34.291 774.697 31.4746C776.666 29.4785 777.65 26.5117 777.65 22.5742C777.65 18.9102 776.666 15.9434 774.697 13.6738C772.264 10.8574 769.078 9.44922 765.141 9.44922H753.451V35.6992ZM801.193 64V4.11719L805.541 2.06641H831.545V2.47656L828.223 9.53125H809.396V29.3008H831.545V29.7109L828.223 36.7656H809.396V56.5352H838.395V56.9453L835.072 64H801.193ZM923.338 0.425781V44.3125C923.338 50.2188 921.492 55.0723 917.801 58.873C913.918 62.8379 908.859 64.8203 902.625 64.8203C896.992 64.8203 892.193 62.8379 888.229 58.873C887.244 57.8887 886.506 56.9316 886.014 56.002C885.385 56.959 884.619 57.875 883.717 58.75C879.588 62.7969 874.816 64.8203 869.402 64.8203C863.277 64.8203 858.219 62.8379 854.227 58.873C850.535 55.209 848.689 50.3555 848.689 44.3125V4.11719L856.482 0.425781H856.893V44.3125C856.893 47.9766 857.877 50.9434 859.846 53.2129C862.279 56.0293 865.465 57.4375 869.402 57.4375C873.34 57.4375 876.525 56.0293 878.959 53.2129C880.928 50.9434 881.912 47.9766 881.912 44.3125V4.11719L889.705 0.425781H890.115V44.3125C890.115 47.9766 891.1 50.9434 893.068 53.2129C895.502 56.0293 898.688 57.4375 902.625 57.4375C906.562 57.4375 909.748 56.0293 912.182 53.2129C914.15 50.9434 915.135 47.9766 915.135 44.3125V4.11719L922.928 0.425781H923.338ZM939.744 65.6406V21.7539C939.744 15.8477 941.59 10.9941 945.281 7.19336C949.164 3.22852 954.223 1.24609 960.457 1.24609C966.582 1.24609 971.641 3.22852 975.633 7.19336C979.324 10.8574 981.17 15.7109 981.17 21.7539V61.9492L973.377 65.6406H972.967V36.7656H947.947V61.9492L940.154 65.6406H939.744ZM947.947 29.3008H972.967V21.7539C972.967 18.0898 971.982 15.123 970.014 12.8535C967.58 10.0371 964.395 8.62891 960.457 8.62891C956.52 8.62891 953.334 10.0371 950.9 12.8535C948.932 15.123 947.947 18.0898 947.947 21.7539V29.3008ZM997.576 65.6406V4.11719L1001.92 2.06641H1017.47C1023.7 2.06641 1028.76 4.04883 1032.64 8.01367C1036.34 11.7871 1038.18 16.6406 1038.18 22.5742C1038.18 28.5352 1036.34 33.3887 1032.64 37.1348C1030.46 39.3496 1027.9 40.9492 1024.97 41.9336L1039.17 62.2363L1031.95 65.6406H1031.54L1015.75 43.082H1005.78V61.9492L997.986 65.6406H997.576ZM1005.78 35.6992H1017.47C1021.05 35.6992 1024.24 34.291 1027.03 31.4746C1028.99 29.4785 1029.98 26.5117 1029.98 22.5742C1029.98 18.9102 1028.99 15.9434 1027.03 13.6738C1024.59 10.8574 1021.41 9.44922 1017.47 9.44922H1005.78V35.6992ZM1053.52 64V4.11719L1057.87 2.06641H1073.41C1079.65 2.06641 1084.71 4.04883 1088.59 8.01367C1092.28 11.7598 1094.13 16.6133 1094.13 22.5742V43.4922C1094.13 49.4258 1092.28 54.2793 1088.59 58.0527C1084.71 62.0176 1079.65 64 1073.41 64H1053.52ZM1061.72 56.6172H1073.41C1077.35 56.6172 1080.54 55.209 1082.97 52.3926C1084.94 50.123 1085.92 47.1562 1085.92 43.4922V22.5742C1085.92 18.9102 1084.94 15.9434 1082.97 13.6738C1080.54 10.8574 1077.35 9.44922 1073.41 9.44922H1061.72V56.6172ZM1150.28 44.6406C1150.28 50.2188 1148.45 54.9629 1144.78 58.873C1141.04 62.8379 1135.98 64.8203 1129.61 64.8203C1123.23 64.8203 1118.18 62.8379 1114.43 58.873C1110.74 54.9629 1108.89 50.3828 1108.89 45.1328L1116.69 41.4414H1117.1V44.8047C1117.1 48.1406 1118.08 50.9434 1120.05 53.2129C1122.48 56.0293 1125.67 57.4375 1129.61 57.4375C1133.52 57.4375 1136.7 56.0293 1139.16 53.2129C1141.1 50.998 1142.07 48.168 1142.07 44.7227C1142.07 41.4688 1141.28 38.9121 1139.7 37.0527C1137.51 34.4824 1134.14 33.1973 1129.61 33.1973C1124.63 33.1973 1120.32 31.5566 1116.69 28.2754C1113.95 25.8145 1112.58 22.2461 1112.58 17.5703C1112.58 12.0742 1114.28 7.94531 1117.67 5.18359C1120.9 2.55859 1124.88 1.24609 1129.61 1.24609C1134.34 1.24609 1138.31 2.55859 1141.54 5.18359C1144.93 7.94531 1146.63 11.7324 1146.63 16.5449L1138.83 20.2363H1138.42V16.9551C1138.42 13.8379 1137.54 11.5137 1135.76 9.98242C1134.04 8.47852 1131.98 7.72656 1129.61 7.72656C1126.95 7.72656 1124.82 8.56055 1123.21 10.2285C1121.59 11.8965 1120.79 14.1387 1120.79 16.9551C1120.79 19.6621 1121.4 21.6992 1122.63 23.0664C1124.27 24.8984 1126.6 25.8145 1129.61 25.8145C1136.22 25.8145 1141.28 27.373 1144.78 30.4902C1148.45 33.7441 1150.28 38.4609 1150.28 44.6406Z" fill="#FBBC04"/>
</svg>