<svg width="250" height="18" viewBox="0 0 252 18" fill="none" xmlns="http://www.w3.org/2000/svg">
<path d="M12.064 12.116C11.44 12.8613 10.6253 13.234 9.62 13.234C8.996 13.234 8.502 13.0953 8.138 12.818C7.79133 12.5233 7.488 12.0293 7.228 11.336L6.474 9.048C6.30067 8.58 6.14467 8.242 6.006 8.034C5.86733 7.80867 5.65067 7.63533 5.356 7.514L4.914 7.28L4.966 7.02C5.10467 7.03733 5.28667 7.046 5.512 7.046C5.72 7.046 5.86733 7.03733 5.954 7.02C6.59533 6.916 7.098 6.62133 7.462 6.136C7.826 5.65067 8.008 5.02667 8.008 4.264C8.008 3.34533 7.79133 2.61733 7.358 2.08C6.92467 1.52533 6.35267 1.248 5.642 1.248C4.862 1.248 4.472 1.612 4.472 2.34V9.594C4.472 10.27 4.524 10.816 4.628 11.232C4.74933 11.6307 4.95733 12.0293 5.252 12.428L5.46 12.74L5.252 13H0.728L0.546 12.532C0.979333 12.4107 1.29133 12.298 1.482 12.194C1.67267 12.0727 1.80267 11.9167 1.872 11.726C1.94133 11.5353 1.976 11.2407 1.976 10.842V3.926C1.976 3.31933 1.924 2.86 1.82 2.548C1.73333 2.21867 1.51667 1.95 1.17 1.742L0.858 1.56L0.962 1.222C1.49933 1.04867 2.184 0.909999 3.016 0.806C3.86533 0.684666 4.61933 0.624 5.278 0.624C6.92467 0.624 8.22467 0.953333 9.178 1.612C10.1313 2.27067 10.608 3.172 10.608 4.316C10.608 5.11333 10.348 5.824 9.828 6.448C9.32533 7.05467 8.67533 7.462 7.878 7.67C8.502 7.94733 8.93533 8.41533 9.178 9.074L10.088 11.622C10.2267 12.038 10.4953 12.246 10.894 12.246C11.206 12.246 11.5267 12.1073 11.856 11.83L12.064 12.116ZM12.3031 8.814C12.3031 7.44467 12.6931 6.36133 13.4731 5.564C14.2704 4.76667 15.3451 4.368 16.6971 4.368C18.0491 4.368 19.1237 4.77533 19.9211 5.59C20.7184 6.38733 21.1171 7.462 21.1171 8.814C21.1171 10.166 20.7184 11.2407 19.9211 12.038C19.1237 12.8353 18.0491 13.234 16.6971 13.234C15.3451 13.234 14.2704 12.8353 13.4731 12.038C12.6931 11.2407 12.3031 10.166 12.3031 8.814ZM18.4911 8.866C18.4911 7.70467 18.3264 6.76 17.9971 6.032C17.6677 5.28667 17.2517 4.914 16.7491 4.914C16.1944 4.914 15.7437 5.278 15.3971 6.006C15.0504 6.71667 14.8771 7.65267 14.8771 8.814C14.8771 9.99267 15.0331 10.9287 15.3451 11.622C15.6744 12.3153 16.1077 12.662 16.6451 12.662C17.1824 12.662 17.6244 12.3153 17.9711 11.622C18.3177 10.9113 18.4911 9.99267 18.4911 8.866ZM25.297 7.254C24.933 7.462 24.4997 7.566 23.997 7.566C23.633 7.566 23.347 7.462 23.139 7.254C22.931 7.02867 22.827 6.71667 22.827 6.318C22.827 5.72867 23.113 5.26067 23.685 4.914C24.2743 4.55 25.037 4.368 25.973 4.368C27.0823 4.368 27.949 4.61067 28.573 5.096C29.2143 5.58133 29.535 6.24 29.535 7.072V11.57C29.535 12.0553 29.7083 12.298 30.055 12.298C30.3843 12.298 30.705 12.168 31.017 11.908L31.225 12.168C30.5837 12.8787 29.821 13.234 28.937 13.234C28.417 13.234 28.0183 13.104 27.741 12.844C27.481 12.584 27.325 12.1767 27.273 11.622H27.169C26.8917 12.1247 26.519 12.5233 26.051 12.818C25.6003 13.0953 25.0803 13.234 24.491 13.234C23.8323 13.234 23.3037 13.0347 22.905 12.636C22.5063 12.22 22.307 11.6827 22.307 11.024C22.307 10.2787 22.6623 9.68933 23.373 9.256C24.0837 8.82267 25.0457 8.606 26.259 8.606C26.4843 8.606 26.805 8.62333 27.221 8.658V7.358C27.221 6.50867 27.117 5.902 26.909 5.538C26.701 5.15667 26.363 4.966 25.895 4.966C25.5657 4.966 25.3057 5.07 25.115 5.278C24.9243 5.486 24.829 5.75467 24.829 6.084C24.829 6.604 24.985 6.994 25.297 7.254ZM25.687 11.934C26.7097 11.934 27.221 11.0067 27.221 9.152C26.3543 9.152 25.7043 9.29933 25.271 9.594C24.8377 9.87133 24.621 10.27 24.621 10.79C24.621 11.1367 24.7163 11.414 24.907 11.622C25.0977 11.83 25.3577 11.934 25.687 11.934ZM41.7351 12.168C41.0937 12.8787 40.3397 13.234 39.4731 13.234C38.9357 13.234 38.5371 13.1213 38.2771 12.896C38.0171 12.6533 37.8437 12.2633 37.7571 11.726C37.3064 12.246 36.8384 12.6273 36.3531 12.87C35.8677 13.1127 35.3304 13.234 34.7411 13.234C33.8744 13.234 33.1637 12.8527 32.6091 12.09C32.0717 11.3273 31.8031 10.3393 31.8031 9.126C31.8031 7.67 32.1844 6.51733 32.9471 5.668C33.7097 4.80133 34.7497 4.368 36.0671 4.368C36.6737 4.368 37.2284 4.50667 37.7311 4.784V1.898C37.7311 1.65533 37.6184 1.534 37.3931 1.534H36.5091L36.4051 1.274C36.7517 0.961999 37.1937 0.719333 37.7311 0.545999C38.2684 0.355333 38.7971 0.26 39.3171 0.26C39.5424 0.26 39.7244 0.312 39.8631 0.415999C40.0017 0.502666 40.0711 0.632666 40.0711 0.806V11.518C40.0711 12.038 40.2357 12.298 40.5651 12.298C40.8944 12.298 41.2151 12.168 41.5271 11.908L41.7351 12.168ZM36.0931 11.986C36.7517 11.986 37.2977 11.622 37.7311 10.894V5.304C37.3844 5.13067 37.0031 5.044 36.5871 5.044C35.1311 5.044 34.4031 6.30067 34.4031 8.814C34.4031 9.83667 34.5417 10.6253 34.8191 11.18C35.1137 11.7173 35.5384 11.986 36.0931 11.986ZM51.1004 7.228C51.083 6.24 50.9097 5.52067 50.5804 5.07C50.251 4.602 49.731 4.368 49.0204 4.368C48.3444 4.368 47.7377 4.64533 47.2004 5.2C46.663 5.75467 46.2817 6.43067 46.0564 7.228V5.096C46.0564 4.92267 45.987 4.79267 45.8484 4.706C45.727 4.602 45.5537 4.55 45.3284 4.55C44.8084 4.55 44.2884 4.64533 43.7684 4.836C43.2484 5.02667 42.815 5.26933 42.4684 5.564L42.5464 5.824H43.3784C43.6037 5.824 43.7164 5.954 43.7164 6.214V11.284C43.7164 11.7173 43.673 12.012 43.5864 12.168C43.4997 12.3067 43.3177 12.4107 43.0404 12.48L42.6764 12.558L42.8324 13H46.6024L46.8104 12.74L46.6024 12.48C46.3944 12.1853 46.247 11.882 46.1604 11.57C46.091 11.258 46.0564 10.8333 46.0564 10.296C46.0564 9.08267 46.2124 8.01667 46.5244 7.098C46.8364 6.162 47.2697 5.694 47.8244 5.694C48.483 5.694 48.8124 6.19667 48.8124 7.202V13H51.6984L51.9064 12.74L51.6984 12.48C51.5077 12.1853 51.369 11.882 51.2824 11.57C51.213 11.258 51.1697 10.8333 51.1524 10.296C51.1524 9.08267 51.3084 8.01667 51.6204 7.098C51.9324 6.162 52.3657 5.694 52.9204 5.694C53.579 5.694 53.9084 6.19667 53.9084 7.202V10.946C53.9084 11.7953 54.0384 12.3933 54.2984 12.74C54.5584 13.0693 55.009 13.234 55.6504 13.234C56.517 13.234 57.271 12.8787 57.9124 12.168L57.7044 11.908C57.3924 12.168 57.0717 12.298 56.7424 12.298C56.413 12.298 56.2484 12.038 56.2484 11.518V7.41C56.2484 6.37 56.075 5.60733 55.7284 5.122C55.399 4.61933 54.8617 4.368 54.1164 4.368C53.4924 4.368 52.903 4.63667 52.3484 5.174C51.7937 5.71133 51.395 6.396 51.1524 7.228H51.1004ZM61.6564 7.254C61.2924 7.462 60.859 7.566 60.3564 7.566C59.9924 7.566 59.7064 7.462 59.4984 7.254C59.2904 7.02867 59.1864 6.71667 59.1864 6.318C59.1864 5.72867 59.4724 5.26067 60.0444 4.914C60.6337 4.55 61.3964 4.368 62.3324 4.368C63.4417 4.368 64.3084 4.61067 64.9324 5.096C65.5737 5.58133 65.8944 6.24 65.8944 7.072V11.57C65.8944 12.0553 66.0677 12.298 66.4144 12.298C66.7437 12.298 67.0644 12.168 67.3764 11.908L67.5844 12.168C66.943 12.8787 66.1804 13.234 65.2964 13.234C64.7764 13.234 64.3777 13.104 64.1004 12.844C63.8404 12.584 63.6844 12.1767 63.6324 11.622H63.5284C63.251 12.1247 62.8784 12.5233 62.4104 12.818C61.9597 13.0953 61.4397 13.234 60.8504 13.234C60.1917 13.234 59.663 13.0347 59.2644 12.636C58.8657 12.22 58.6664 11.6827 58.6664 11.024C58.6664 10.2787 59.0217 9.68933 59.7324 9.256C60.443 8.82267 61.405 8.606 62.6184 8.606C62.8437 8.606 63.1644 8.62333 63.5804 8.658V7.358C63.5804 6.50867 63.4764 5.902 63.2684 5.538C63.0604 5.15667 62.7224 4.966 62.2544 4.966C61.925 4.966 61.665 5.07 61.4744 5.278C61.2837 5.486 61.1884 5.75467 61.1884 6.084C61.1884 6.604 61.3444 6.994 61.6564 7.254ZM62.0464 11.934C63.069 11.934 63.5804 11.0067 63.5804 9.152C62.7137 9.152 62.0637 9.29933 61.6304 9.594C61.197 9.87133 60.9804 10.27 60.9804 10.79C60.9804 11.1367 61.0757 11.414 61.2664 11.622C61.457 11.83 61.717 11.934 62.0464 11.934ZM74.3765 4.368C75.2605 4.368 75.9711 4.758 76.5085 5.538C77.0631 6.30067 77.3405 7.306 77.3405 8.554C77.3405 9.438 77.1758 10.2353 76.8465 10.946C76.5345 11.6393 76.0838 12.1853 75.4945 12.584C74.9225 12.9653 74.2725 13.156 73.5445 13.156C73.1285 13.156 72.7298 13.0953 72.3485 12.974C71.9845 12.8353 71.6725 12.6447 71.4125 12.402V15.366C71.4125 15.782 71.4645 16.0593 71.5685 16.198C71.6898 16.354 71.9585 16.4753 72.3745 16.562L72.7125 16.64L72.5565 17.082H68.5265L68.3185 16.822L68.5265 16.562C68.7345 16.2847 68.8731 15.9813 68.9425 15.652C69.0291 15.34 69.0725 14.9153 69.0725 14.378V6.214C69.0725 5.902 68.9598 5.746 68.7345 5.746H67.9285L67.8505 5.46C68.1798 5.16533 68.6045 4.92267 69.1245 4.732C69.6618 4.54133 70.1818 4.446 70.6845 4.446C70.9098 4.446 71.0831 4.498 71.2045 4.602C71.3431 4.706 71.4125 4.84467 71.4125 5.018V6.162C71.8458 5.538 72.2965 5.08733 72.7645 4.81C73.2498 4.51533 73.7871 4.368 74.3765 4.368ZM72.5565 12.402C73.2671 12.402 73.8045 12.0987 74.1685 11.492C74.5498 10.8853 74.7405 9.99267 74.7405 8.814C74.7405 7.79133 74.6018 7.01133 74.3245 6.474C74.0471 5.91933 73.6485 5.642 73.1285 5.642C72.4351 5.642 71.8631 6.10133 71.4125 7.02V12.064C71.7418 12.2893 72.1231 12.402 72.5565 12.402ZM85.8004 13.234C85.0897 13.234 84.5784 13.078 84.2664 12.766C83.9544 12.4367 83.7984 11.908 83.7984 11.18V5.668H82.4984C82.4984 5.37333 82.5157 5.18267 82.5504 5.096C82.5851 5.00933 82.6891 4.94 82.8624 4.888C83.4344 4.732 83.8851 4.48933 84.2144 4.16C84.5437 3.83067 84.8124 3.354 85.0204 2.73C85.0724 2.53933 85.1591 2.42667 85.2804 2.392C85.4017 2.34 85.6964 2.314 86.1644 2.314V4.654H88.2964C88.2964 4.87933 88.2617 5.08733 88.1924 5.278C88.1231 5.45133 88.0277 5.58133 87.9064 5.668H86.1644V11.518C86.1644 12.038 86.3811 12.298 86.8144 12.298C87.0051 12.298 87.2131 12.2373 87.4384 12.116C87.6811 11.9947 87.8977 11.83 88.0884 11.622L88.2964 11.882C87.5511 12.7833 86.7191 13.234 85.8004 13.234ZM89.0843 8.814C89.0843 7.44467 89.4743 6.36133 90.2543 5.564C91.0517 4.76667 92.1263 4.368 93.4783 4.368C94.8303 4.368 95.905 4.77533 96.7023 5.59C97.4997 6.38733 97.8983 7.462 97.8983 8.814C97.8983 10.166 97.4997 11.2407 96.7023 12.038C95.905 12.8353 94.8303 13.234 93.4783 13.234C92.1263 13.234 91.0517 12.8353 90.2543 12.038C89.4743 11.2407 89.0843 10.166 89.0843 8.814ZM95.2723 8.866C95.2723 7.70467 95.1077 6.76 94.7783 6.032C94.449 5.28667 94.033 4.914 93.5303 4.914C92.9757 4.914 92.525 5.278 92.1783 6.006C91.8317 6.71667 91.6583 7.65267 91.6583 8.814C91.6583 9.99267 91.8143 10.9287 92.1263 11.622C92.4557 12.3153 92.889 12.662 93.4263 12.662C93.9637 12.662 94.4057 12.3153 94.7523 11.622C95.099 10.9113 95.2723 9.99267 95.2723 8.866ZM108.421 12.376C108.924 12.376 109.366 12.2893 109.747 12.116C110.129 11.9253 110.501 11.6133 110.865 11.18L111.177 11.414C110.779 11.986 110.267 12.4367 109.643 12.766C109.037 13.078 108.369 13.234 107.641 13.234C106.844 13.234 106.125 13.0433 105.483 12.662C104.859 12.2807 104.365 11.7607 104.001 11.102C103.637 10.426 103.455 9.66333 103.455 8.814C103.455 7.462 103.863 6.38733 104.677 5.59C105.509 4.77533 106.61 4.368 107.979 4.368C108.95 4.368 109.739 4.602 110.345 5.07C110.969 5.52067 111.281 6.11 111.281 6.838C111.281 7.67 110.926 8.33733 110.215 8.84C109.522 9.32533 108.569 9.568 107.355 9.568C106.87 9.568 106.428 9.53333 106.029 9.464C106.116 10.3653 106.376 11.076 106.809 11.596C107.243 12.116 107.78 12.376 108.421 12.376ZM107.693 4.992C107.156 4.992 106.731 5.32133 106.419 5.98C106.125 6.62133 105.977 7.52267 105.977 8.684V9.1C106.168 9.1 106.402 9.08267 106.679 9.048C107.407 8.96133 107.962 8.72733 108.343 8.346C108.742 7.94733 108.941 7.42733 108.941 6.786C108.941 6.266 108.82 5.84133 108.577 5.512C108.352 5.16533 108.057 4.992 107.693 4.992ZM115.512 11.518C115.512 12.038 115.677 12.298 116.006 12.298C116.336 12.298 116.656 12.168 116.968 11.908L117.176 12.168C116.57 12.8787 115.816 13.234 114.914 13.234C114.308 13.234 113.866 13.0953 113.588 12.818C113.311 12.5233 113.172 12.064 113.172 11.44V1.898C113.172 1.65533 113.06 1.534 112.834 1.534H112.002L111.924 1.274C112.254 0.961999 112.678 0.719333 113.198 0.545999C113.736 0.355333 114.264 0.26 114.784 0.26C115.01 0.26 115.183 0.312 115.304 0.415999C115.443 0.502666 115.512 0.632666 115.512 0.806V11.518ZM122.716 12.376C123.219 12.376 123.661 12.2893 124.042 12.116C124.424 11.9253 124.796 11.6133 125.16 11.18L125.472 11.414C125.074 11.986 124.562 12.4367 123.938 12.766C123.332 13.078 122.664 13.234 121.936 13.234C121.139 13.234 120.42 13.0433 119.778 12.662C119.154 12.2807 118.66 11.7607 118.296 11.102C117.932 10.426 117.75 9.66333 117.75 8.814C117.75 7.462 118.158 6.38733 118.972 5.59C119.804 4.77533 120.905 4.368 122.274 4.368C123.245 4.368 124.034 4.602 124.64 5.07C125.264 5.52067 125.576 6.11 125.576 6.838C125.576 7.67 125.221 8.33733 124.51 8.84C123.817 9.32533 122.864 9.568 121.65 9.568C121.165 9.568 120.723 9.53333 120.324 9.464C120.411 10.3653 120.671 11.076 121.104 11.596C121.538 12.116 122.075 12.376 122.716 12.376ZM121.988 4.992C121.451 4.992 121.026 5.32133 120.714 5.98C120.42 6.62133 120.272 7.52267 120.272 8.684V9.1C120.463 9.1 120.697 9.08267 120.974 9.048C121.702 8.96133 122.257 8.72733 122.638 8.346C123.037 7.94733 123.236 7.42733 123.236 6.786C123.236 6.266 123.115 5.84133 122.872 5.512C122.647 5.16533 122.352 4.992 121.988 4.992ZM131.445 12.402C132 12.402 132.433 12.0467 132.745 11.336C133.075 10.608 133.239 9.698 133.239 8.606C133.239 7.13267 132.927 5.97133 132.303 5.122L132.069 4.836L132.277 4.628L134.461 4.368C134.513 5.11333 134.539 5.71133 134.539 6.162C134.539 8.38067 134.201 10.114 133.525 11.362C132.849 12.61 131.939 13.234 130.795 13.234C129.894 13.234 129.209 12.9653 128.741 12.428C128.291 11.8907 127.97 11.0067 127.779 9.776L127.233 6.032C127.216 5.89333 127.181 5.798 127.129 5.746C127.077 5.694 126.999 5.668 126.895 5.668H126.193L126.115 5.382C126.462 5.07 126.878 4.82733 127.363 4.654C127.849 4.46333 128.325 4.368 128.793 4.368C129.053 4.368 129.235 4.446 129.339 4.602C129.461 4.758 129.556 5.07 129.625 5.538L130.301 10.192C130.423 11.0413 130.561 11.622 130.717 11.934C130.873 12.246 131.116 12.402 131.445 12.402ZM139.174 7.254C138.81 7.462 138.377 7.566 137.874 7.566C137.51 7.566 137.224 7.462 137.016 7.254C136.808 7.02867 136.704 6.71667 136.704 6.318C136.704 5.72867 136.99 5.26067 137.562 4.914C138.151 4.55 138.914 4.368 139.85 4.368C140.959 4.368 141.826 4.61067 142.45 5.096C143.091 5.58133 143.412 6.24 143.412 7.072V11.57C143.412 12.0553 143.585 12.298 143.932 12.298C144.261 12.298 144.582 12.168 144.894 11.908L145.102 12.168C144.461 12.8787 143.698 13.234 142.814 13.234C142.294 13.234 141.895 13.104 141.618 12.844C141.358 12.584 141.202 12.1767 141.15 11.622H141.046C140.769 12.1247 140.396 12.5233 139.928 12.818C139.477 13.0953 138.957 13.234 138.368 13.234C137.709 13.234 137.181 13.0347 136.782 12.636C136.383 12.22 136.184 11.6827 136.184 11.024C136.184 10.2787 136.539 9.68933 137.25 9.256C137.961 8.82267 138.923 8.606 140.136 8.606C140.361 8.606 140.682 8.62333 141.098 8.658V7.358C141.098 6.50867 140.994 5.902 140.786 5.538C140.578 5.15667 140.24 4.966 139.772 4.966C139.443 4.966 139.183 5.07 138.992 5.278C138.801 5.486 138.706 5.75467 138.706 6.084C138.706 6.604 138.862 6.994 139.174 7.254ZM139.564 11.934C140.587 11.934 141.098 11.0067 141.098 9.152C140.231 9.152 139.581 9.29933 139.148 9.594C138.715 9.87133 138.498 10.27 138.498 10.79C138.498 11.1367 138.593 11.414 138.784 11.622C138.975 11.83 139.235 11.934 139.564 11.934ZM148.566 13.234C147.855 13.234 147.344 13.078 147.032 12.766C146.72 12.4367 146.564 11.908 146.564 11.18V5.668H145.264C145.264 5.37333 145.281 5.18267 145.316 5.096C145.351 5.00933 145.455 4.94 145.628 4.888C146.2 4.732 146.651 4.48933 146.98 4.16C147.309 3.83067 147.578 3.354 147.786 2.73C147.838 2.53933 147.925 2.42667 148.046 2.392C148.167 2.34 148.462 2.314 148.93 2.314V4.654H151.062C151.062 4.87933 151.027 5.08733 150.958 5.278C150.889 5.45133 150.793 5.58133 150.672 5.668H148.93V11.518C148.93 12.038 149.147 12.298 149.58 12.298C149.771 12.298 149.979 12.2373 150.204 12.116C150.447 11.9947 150.663 11.83 150.854 11.622L151.062 11.882C150.317 12.7833 149.485 13.234 148.566 13.234ZM156.816 12.376C157.319 12.376 157.761 12.2893 158.142 12.116C158.523 11.9253 158.896 11.6133 159.26 11.18L159.572 11.414C159.173 11.986 158.662 12.4367 158.038 12.766C157.431 13.078 156.764 13.234 156.036 13.234C155.239 13.234 154.519 13.0433 153.878 12.662C153.254 12.2807 152.76 11.7607 152.396 11.102C152.032 10.426 151.85 9.66333 151.85 8.814C151.85 7.462 152.257 6.38733 153.072 5.59C153.904 4.77533 155.005 4.368 156.374 4.368C157.345 4.368 158.133 4.602 158.74 5.07C159.364 5.52067 159.676 6.11 159.676 6.838C159.676 7.67 159.321 8.33733 158.61 8.84C157.917 9.32533 156.963 9.568 155.75 9.568C155.265 9.568 154.823 9.53333 154.424 9.464C154.511 10.3653 154.771 11.076 155.204 11.596C155.637 12.116 156.175 12.376 156.816 12.376ZM156.088 4.992C155.551 4.992 155.126 5.32133 154.814 5.98C154.519 6.62133 154.372 7.52267 154.372 8.684V9.1C154.563 9.1 154.797 9.08267 155.074 9.048C155.802 8.96133 156.357 8.72733 156.738 8.346C157.137 7.94733 157.336 7.42733 157.336 6.786C157.336 6.266 157.215 5.84133 156.972 5.512C156.747 5.16533 156.452 4.992 156.088 4.992ZM173.682 4.42V13C173.682 14.3693 173.283 15.4267 172.486 16.172C171.706 16.9347 170.614 17.316 169.21 17.316C168.343 17.316 167.641 17.1513 167.104 16.822C166.567 16.4927 166.298 16.0593 166.298 15.522C166.298 15.054 166.437 14.6727 166.714 14.378C166.991 14.1007 167.355 13.962 167.806 13.962C168.135 13.962 168.456 14.0313 168.768 14.17C168.456 14.482 168.3 14.9067 168.3 15.444C168.3 15.8253 168.413 16.1373 168.638 16.38C168.881 16.6227 169.184 16.744 169.548 16.744C170.761 16.744 171.368 15.756 171.368 13.78V10.478C171.143 11.1367 170.744 11.6827 170.172 12.116C169.617 12.532 169.019 12.74 168.378 12.74C167.615 12.74 167.052 12.506 166.688 12.038C166.324 11.57 166.142 10.8593 166.142 9.906V6.032C166.142 5.78933 166.029 5.668 165.804 5.668H164.998L164.92 5.382C165.249 5.08733 165.683 4.84467 166.22 4.654C166.757 4.46333 167.269 4.368 167.754 4.368C167.979 4.368 168.153 4.42 168.274 4.524C168.413 4.628 168.482 4.76667 168.482 4.94V10.192C168.482 11.1627 168.785 11.648 169.392 11.648C169.981 11.648 170.458 11.2927 170.822 10.582C171.186 9.87133 171.368 8.92667 171.368 7.748C171.368 7.124 171.316 6.61267 171.212 6.214C171.108 5.81533 170.943 5.46867 170.718 5.174L170.51 4.888L170.692 4.654L173.682 4.42ZM175.743 8.814C175.743 7.44467 176.133 6.36133 176.913 5.564C177.71 4.76667 178.785 4.368 180.137 4.368C181.489 4.368 182.563 4.77533 183.361 5.59C184.158 6.38733 184.557 7.462 184.557 8.814C184.557 10.166 184.158 11.2407 183.361 12.038C182.563 12.8353 181.489 13.234 180.137 13.234C178.785 13.234 177.71 12.8353 176.913 12.038C176.133 11.2407 175.743 10.166 175.743 8.814ZM181.931 8.866C181.931 7.70467 181.766 6.76 181.437 6.032C181.107 5.28667 180.691 4.914 180.189 4.914C179.634 4.914 179.183 5.278 178.837 6.006C178.49 6.71667 178.317 7.65267 178.317 8.814C178.317 9.99267 178.473 10.9287 178.785 11.622C179.114 12.3153 179.547 12.662 180.085 12.662C180.622 12.662 181.064 12.3153 181.411 11.622C181.757 10.9113 181.931 9.99267 181.931 8.866ZM192.116 10.634C191.874 11.3967 191.449 12.0207 190.842 12.506C190.253 12.9913 189.62 13.234 188.944 13.234C188.182 13.234 187.618 12.9913 187.254 12.506C186.89 12.0207 186.708 11.2753 186.708 10.27V6.032C186.708 5.78933 186.596 5.668 186.37 5.668H185.564L185.486 5.382C185.833 5.08733 186.266 4.84467 186.786 4.654C187.306 4.46333 187.818 4.368 188.32 4.368C188.546 4.368 188.719 4.42 188.84 4.524C188.979 4.628 189.048 4.76667 189.048 4.94V10.14C189.048 10.7293 189.135 11.1887 189.308 11.518C189.482 11.83 189.724 11.986 190.036 11.986C190.678 11.986 191.189 11.596 191.57 10.816C191.969 10.0187 192.168 8.98733 192.168 7.722C192.168 7.046 192.116 6.526 192.012 6.162C191.926 5.78067 191.761 5.45133 191.518 5.174L191.284 4.888L191.492 4.654L194.482 4.42V11.518C194.482 12.038 194.638 12.298 194.95 12.298C195.28 12.298 195.6 12.168 195.912 11.908L196.12 12.168C195.514 12.8787 194.76 13.234 193.858 13.234C193.2 13.234 192.74 13.0433 192.48 12.662C192.238 12.2807 192.116 11.6047 192.116 10.634ZM202.561 4.368C203.116 4.368 203.566 4.53267 203.913 4.862C204.26 5.174 204.433 5.58133 204.433 6.084C204.433 6.552 204.294 6.93333 204.017 7.228C203.74 7.50533 203.376 7.644 202.925 7.644C202.578 7.644 202.258 7.57467 201.963 7.436C202.275 7.176 202.431 6.786 202.431 6.266C202.431 6.02333 202.379 5.83267 202.275 5.694C202.171 5.55533 202.032 5.486 201.859 5.486C201.443 5.486 201.096 5.91067 200.819 6.76C200.542 7.592 200.403 8.632 200.403 9.88C200.403 10.5213 200.438 11.0327 200.507 11.414C200.594 11.7953 200.732 12.1507 200.923 12.48L201.131 12.74L200.923 13H197.153L196.997 12.558L197.361 12.48C197.638 12.4107 197.82 12.3067 197.907 12.168C197.994 12.012 198.037 11.7173 198.037 11.284V6.214C198.037 5.88467 197.924 5.72 197.699 5.72H196.893L196.789 5.434C197.118 5.13933 197.526 4.89667 198.011 4.706C198.514 4.51533 199.008 4.42 199.493 4.42C199.718 4.42 199.9 4.472 200.039 4.576C200.178 4.68 200.247 4.81867 200.247 4.992V6.89H200.325C200.689 5.20867 201.434 4.368 202.561 4.368ZM212.086 6.136C212.086 6.56933 212.251 6.92467 212.58 7.202C212.927 7.462 213.447 7.75667 214.14 8.086C214.712 8.36333 215.154 8.606 215.466 8.814C215.778 9.00467 216.047 9.26467 216.272 9.594C216.515 9.92333 216.636 10.3133 216.636 10.764C216.636 11.5093 216.281 12.1073 215.57 12.558C214.877 13.0087 213.941 13.234 212.762 13.234C211.878 13.234 211.15 13.078 210.578 12.766C210.006 12.4367 209.72 12.012 209.72 11.492C209.72 11.1453 209.85 10.8593 210.11 10.634C210.37 10.3913 210.691 10.27 211.072 10.27C211.367 10.27 211.661 10.3307 211.956 10.452C211.661 10.6773 211.514 11.0413 211.514 11.544C211.514 11.8907 211.635 12.1593 211.878 12.35C212.121 12.5407 212.415 12.636 212.762 12.636C213.161 12.636 213.499 12.532 213.776 12.324C214.071 12.116 214.218 11.8213 214.218 11.44C214.218 11.076 214.071 10.79 213.776 10.582C213.499 10.3567 213.057 10.0967 212.45 9.802C211.895 9.542 211.445 9.308 211.098 9.1C210.769 8.87467 210.483 8.58 210.24 8.216C209.997 7.852 209.876 7.41 209.876 6.89C209.876 6.11 210.205 5.49467 210.864 5.044C211.523 4.59333 212.355 4.368 213.36 4.368C214.244 4.368 214.963 4.53267 215.518 4.862C216.09 5.19133 216.376 5.616 216.376 6.136C216.376 6.53467 216.255 6.82933 216.012 7.02C215.769 7.21067 215.457 7.306 215.076 7.306C214.712 7.306 214.391 7.228 214.114 7.072C214.426 6.77733 214.582 6.40467 214.582 5.954C214.582 5.65933 214.469 5.42533 214.244 5.252C214.019 5.06133 213.724 4.966 213.36 4.966C212.961 4.966 212.649 5.07867 212.424 5.304C212.199 5.52933 212.086 5.80667 212.086 6.136ZM227.69 12.22C227.083 12.896 226.329 13.234 225.428 13.234C224.873 13.234 224.431 13.1127 224.102 12.87C223.79 12.6273 223.547 12.22 223.374 11.648L222.568 9.36C222.464 9.06533 222.325 8.84 222.152 8.684C221.996 8.528 221.779 8.41533 221.502 8.346V10.296C221.502 10.8333 221.537 11.258 221.606 11.57C221.693 11.882 221.831 12.1853 222.022 12.48L222.23 12.74L222.022 13H218.252L218.096 12.558L218.46 12.48C218.737 12.4107 218.919 12.3067 219.006 12.168C219.093 12.012 219.136 11.7173 219.136 11.284V1.898C219.136 1.65533 219.023 1.534 218.798 1.534H217.992L217.888 1.274C218.217 0.961999 218.642 0.719333 219.162 0.545999C219.699 0.355333 220.228 0.26 220.748 0.26C220.973 0.26 221.155 0.312 221.294 0.415999C221.433 0.502666 221.502 0.632666 221.502 0.806V7.852L223.062 6.708C223.426 6.448 223.677 6.24 223.816 6.084C223.955 5.928 224.024 5.76333 224.024 5.59C224.024 5.34733 223.92 5.13933 223.712 4.966L223.504 4.81L223.712 4.55H226.858L227.014 4.992C226.581 5.096 226.095 5.33867 225.558 5.72L222.49 7.956C223.253 8.04267 223.842 8.22467 224.258 8.502C224.674 8.77933 224.977 9.178 225.168 9.698L225.896 11.778C226.017 12.1593 226.26 12.35 226.624 12.35C226.884 12.35 227.17 12.22 227.482 11.96L227.69 12.22ZM231.222 11.518C231.222 12.038 231.386 12.298 231.716 12.298C232.045 12.298 232.366 12.168 232.678 11.908L232.886 12.168C232.244 12.8787 231.49 13.234 230.624 13.234C230 13.234 229.549 13.078 229.272 12.766C228.994 12.4367 228.856 11.908 228.856 11.18V6.032C228.856 5.78933 228.743 5.668 228.518 5.668H227.712L227.634 5.382C227.98 5.08733 228.414 4.84467 228.934 4.654C229.454 4.46333 229.974 4.368 230.494 4.368C230.702 4.368 230.875 4.42 231.014 4.524C231.152 4.628 231.222 4.76667 231.222 4.94V11.518ZM228.596 1.872C228.596 1.56 228.769 1.21333 229.116 0.831999C229.462 0.450666 229.783 0.26 230.078 0.26C230.39 0.26 230.719 0.450666 231.066 0.831999C231.43 1.21333 231.612 1.56 231.612 1.872C231.612 2.20133 231.43 2.55667 231.066 2.938C230.719 3.302 230.39 3.484 230.078 3.484C229.783 3.484 229.462 3.302 229.116 2.938C228.769 2.55667 228.596 2.20133 228.596 1.872ZM236.549 11.518C236.549 12.038 236.714 12.298 237.043 12.298C237.373 12.298 237.693 12.168 238.005 11.908L238.213 12.168C237.607 12.8787 236.853 13.234 235.951 13.234C235.345 13.234 234.903 13.0953 234.625 12.818C234.348 12.5233 234.209 12.064 234.209 11.44V1.898C234.209 1.65533 234.097 1.534 233.871 1.534H233.039L232.961 1.274C233.291 0.961999 233.715 0.719333 234.235 0.545999C234.773 0.355333 235.301 0.26 235.821 0.26C236.047 0.26 236.22 0.312 236.341 0.415999C236.48 0.502666 236.549 0.632666 236.549 0.806V11.518ZM241.881 11.518C241.881 12.038 242.046 12.298 242.375 12.298C242.705 12.298 243.025 12.168 243.337 11.908L243.545 12.168C242.939 12.8787 242.185 13.234 241.283 13.234C240.677 13.234 240.235 13.0953 239.957 12.818C239.68 12.5233 239.541 12.064 239.541 11.44V1.898C239.541 1.65533 239.429 1.534 239.203 1.534H238.371L238.293 1.274C238.623 0.961999 239.047 0.719333 239.567 0.545999C240.105 0.355333 240.633 0.26 241.153 0.26C241.379 0.26 241.552 0.312 241.673 0.415999C241.812 0.502666 241.881 0.632666 241.881 0.806V11.518ZM246.693 6.136C246.693 6.56933 246.858 6.92467 247.187 7.202C247.534 7.462 248.054 7.75667 248.747 8.086C249.319 8.36333 249.761 8.606 250.073 8.814C250.385 9.00467 250.654 9.26467 250.879 9.594C251.122 9.92333 251.243 10.3133 251.243 10.764C251.243 11.5093 250.888 12.1073 250.177 12.558C249.484 13.0087 248.548 13.234 247.369 13.234C246.485 13.234 245.757 13.078 245.185 12.766C244.613 12.4367 244.327 12.012 244.327 11.492C244.327 11.1453 244.457 10.8593 244.717 10.634C244.977 10.3913 245.298 10.27 245.679 10.27C245.974 10.27 246.269 10.3307 246.563 10.452C246.269 10.6773 246.121 11.0413 246.121 11.544C246.121 11.8907 246.243 12.1593 246.485 12.35C246.728 12.5407 247.023 12.636 247.369 12.636C247.768 12.636 248.106 12.532 248.383 12.324C248.678 12.116 248.825 11.8213 248.825 11.44C248.825 11.076 248.678 10.79 248.383 10.582C248.106 10.3567 247.664 10.0967 247.057 9.802C246.503 9.542 246.052 9.308 245.705 9.1C245.376 8.87467 245.09 8.58 244.847 8.216C244.605 7.852 244.483 7.41 244.483 6.89C244.483 6.11 244.813 5.49467 245.471 5.044C246.13 4.59333 246.962 4.368 247.967 4.368C248.851 4.368 249.571 4.53267 250.125 4.862C250.697 5.19133 250.983 5.616 250.983 6.136C250.983 6.53467 250.862 6.82933 250.619 7.02C250.377 7.21067 250.065 7.306 249.683 7.306C249.319 7.306 248.999 7.228 248.721 7.072C249.033 6.77733 249.189 6.40467 249.189 5.954C249.189 5.65933 249.077 5.42533 248.851 5.252C248.626 5.06133 248.331 4.966 247.967 4.966C247.569 4.966 247.257 5.07867 247.031 5.304C246.806 5.52933 246.693 5.80667 246.693 6.136Z" fill="#FBBC04"/>
</svg>
