<svg width="350" height="59" viewBox="0 0 478 59" fill="none" xmlns="http://www.w3.org/2000/svg">
<g filter="url(#filter0_d_161_179)">
<path d="M10 15.4C10 12.7333 9.8 10.6333 9.4 9.1C9 7.56666 8.23333 6.03333 7.1 4.5L6.3 3.4L7.1 2.3H29.2C32.8667 2.3 35.3333 1.86667 36.6 0.999998L37.8 0.0999978L38.8 0.999998V13.5L36.8 14.2C35.6 10.6 34.4 8.13333 33.2 6.8C32.0667 5.46666 30.4333 4.8 28.3 4.8H23.8C22.0667 4.8 20.9333 5.13333 20.4 5.8C19.8667 6.4 19.6 7.73333 19.6 9.8V24H26.8C28.8 24 30.2667 23.8 31.2 23.4C32.2 23 32.9333 22.2 33.4 21L33.9 19.6L35.2 20.4V31.6L33 32.4L32.6 30.2C32.3333 28.8 31.6 27.8333 30.4 27.3C29.2 26.7667 27.2667 26.5 24.6 26.5H19.6V41.6C19.6 43.6 19.9 44.9333 20.5 45.6C21.1 46.2 22.4333 46.5 24.5 46.5H29.4C31.4 46.5 32.9667 45.8 34.1 44.4C35.3 43 36.4333 40.5667 37.5 37.1L39.6 37.8V49.8L38.5 50.7C37.5667 50.0333 36.5 49.5667 35.3 49.3C34.1 49.1 32.4333 49 30.3 49H5.2L4.5 47.2C6.16667 46.7333 7.36667 46.3 8.1 45.9C8.83333 45.4333 9.33333 44.8333 9.6 44.1C9.86667 43.3667 10 42.2333 10 40.7V15.4ZM63.8086 46.7C65.9419 46.7 67.6086 45.3333 68.8086 42.6C70.0753 39.8 70.7086 36.3 70.7086 32.1C70.7086 26.4333 69.5086 21.9667 67.1086 18.7L66.2086 17.6L67.0086 16.8L75.4086 15.8C75.6086 18.6667 75.7086 20.9667 75.7086 22.7C75.7086 31.2333 74.4086 37.9 71.8086 42.7C69.2086 47.5 65.7086 49.9 61.3086 49.9C57.8419 49.9 55.2086 48.8667 53.4086 46.8C51.6753 44.7333 50.4419 41.3333 49.7086 36.6L47.6086 22.2C47.5419 21.6667 47.4086 21.3 47.2086 21.1C47.0086 20.9 46.7086 20.8 46.3086 20.8H43.6086L43.3086 19.7C44.6419 18.5 46.2419 17.5667 48.1086 16.9C49.9753 16.1667 51.8086 15.8 53.6086 15.8C54.6086 15.8 55.3086 16.1 55.7086 16.7C56.1753 17.3 56.5419 18.5 56.8086 20.3L59.4086 38.2C59.8753 41.4667 60.4086 43.7 61.0086 44.9C61.6086 46.1 62.5419 46.7 63.8086 46.7ZM101.134 46.6C103.068 46.6 104.768 46.2667 106.234 45.6C107.701 44.8667 109.134 43.6667 110.534 42L111.734 42.9C110.201 45.1 108.234 46.8333 105.834 48.1C103.501 49.3 100.934 49.9 98.1344 49.9C95.0677 49.9 92.301 49.1667 89.8344 47.7C87.4344 46.2333 85.5344 44.2333 84.1344 41.7C82.7344 39.1 82.0344 36.1667 82.0344 32.9C82.0344 27.7 83.601 23.5667 86.7344 20.5C89.9344 17.3667 94.1677 15.8 99.4344 15.8C103.168 15.8 106.201 16.7 108.534 18.5C110.934 20.2333 112.134 22.5 112.134 25.3C112.134 28.5 110.768 31.0667 108.034 33C105.368 34.8667 101.701 35.8 97.0344 35.8C95.1677 35.8 93.4677 35.6667 91.9344 35.4C92.2677 38.8667 93.2677 41.6 94.9344 43.6C96.601 45.6 98.6677 46.6 101.134 46.6ZM98.3344 18.2C96.2677 18.2 94.6344 19.4667 93.4344 22C92.301 24.4667 91.7344 27.9333 91.7344 32.4V34C92.4677 34 93.3677 33.9333 94.4344 33.8C97.2344 33.4667 99.3677 32.5667 100.834 31.1C102.368 29.5667 103.134 27.5667 103.134 25.1C103.134 23.1 102.668 21.4667 101.734 20.2C100.868 18.8667 99.7344 18.2 98.3344 18.2ZM151.307 43.3C151.307 45.3 151.94 46.3 153.207 46.3C154.474 46.3 155.707 45.8 156.907 44.8L157.707 45.8C155.24 48.5333 152.34 49.9 149.007 49.9C146.607 49.9 144.874 49.3 143.807 48.1C142.807 46.8333 142.307 44.8 142.307 42V26.7C142.307 22.8333 141.074 20.9 138.607 20.9C136.207 20.9 134.24 22.5333 132.707 25.8C131.24 29.0667 130.507 33.3333 130.507 38.6C130.507 40.6 130.674 42.2333 131.007 43.5C131.34 44.7 131.874 45.8667 132.607 47L133.407 48L132.607 49H118.107L117.507 47.3L118.907 47C119.974 46.7333 120.674 46.3333 121.007 45.8C121.34 45.2 121.507 44.0667 121.507 42.4V22.9C121.507 21.6333 121.074 21 120.207 21H117.007L116.707 19.9C118.04 18.7667 119.707 17.8333 121.707 17.1C123.707 16.3667 125.707 16 127.707 16C128.574 16 129.24 16.2 129.707 16.6C130.24 17 130.507 17.5333 130.507 18.2V26.8C131.44 23.6667 133.107 21.0667 135.507 19C137.907 16.8667 140.44 15.8 143.107 15.8C145.974 15.8 148.04 16.7333 149.307 18.6C150.64 20.4667 151.307 23.4333 151.307 27.5V43.3ZM171.748 49.9C169.014 49.9 167.048 49.3 165.848 48.1C164.648 46.8333 164.048 44.8 164.048 42V20.8H159.048C159.048 19.6667 159.114 18.9333 159.248 18.6C159.381 18.2667 159.781 18 160.448 17.8C162.648 17.2 164.381 16.2667 165.648 15C166.914 13.7333 167.948 11.9 168.748 9.5C168.948 8.76667 169.281 8.33333 169.748 8.2C170.214 8 171.348 7.9 173.148 7.9V16.9H181.348C181.348 17.7667 181.214 18.5667 180.948 19.3C180.681 19.9667 180.314 20.4667 179.848 20.8H173.148V43.3C173.148 45.3 173.981 46.3 175.648 46.3C176.381 46.3 177.181 46.0667 178.048 45.6C178.981 45.1333 179.814 44.5 180.548 43.7L181.348 44.7C178.481 48.1667 175.281 49.9 171.748 49.9ZM223.675 40.7C223.675 42.2333 223.808 43.4 224.075 44.2C224.408 44.9333 224.942 45.5 225.675 45.9C226.408 46.3 227.608 46.7333 229.275 47.2L228.575 49H211.175L210.375 48L211.175 46.8C212.308 45.2667 213.075 43.7333 213.475 42.2C213.942 40.6 214.142 38.5 214.075 35.9V9C214.075 7.33333 213.908 6.23333 213.575 5.7C213.308 5.1 212.742 4.8 211.875 4.8H210.775C208.508 4.8 206.808 5.5 205.675 6.9C204.542 8.23333 203.375 10.6667 202.175 14.2L200.175 13.5V0.999998L201.175 0.0999978L202.375 0.999998C203.642 1.86667 206.108 2.3 209.775 2.3H228.075C231.742 2.3 234.208 1.86667 235.475 0.999998L236.675 0.0999978L237.775 0.999998V13.5L235.675 14.2C234.408 10.5333 233.208 8.06666 232.075 6.8C231.008 5.46666 229.375 4.8 227.175 4.8H225.875C225.008 4.8 224.408 5.1 224.075 5.7C223.808 6.23333 223.675 7.33333 223.675 9V40.7ZM251.568 43.3C251.568 45.3 252.201 46.3 253.468 46.3C254.735 46.3 255.968 45.8 257.168 44.8L257.968 45.8C255.501 48.5333 252.601 49.9 249.268 49.9C246.868 49.9 245.135 49.3 244.068 48.1C243.001 46.8333 242.468 44.8 242.468 42V22.2C242.468 21.2667 242.035 20.8 241.168 20.8H238.068L237.768 19.7C239.101 18.5667 240.768 17.6333 242.768 16.9C244.768 16.1667 246.768 15.8 248.768 15.8C249.568 15.8 250.235 16 250.768 16.4C251.301 16.8 251.568 17.3333 251.568 18V43.3ZM241.468 6.2C241.468 5 242.135 3.66667 243.468 2.2C244.801 0.733332 246.035 -9.53674e-07 247.168 -9.53674e-07C248.368 -9.53674e-07 249.635 0.733332 250.968 2.2C252.368 3.66667 253.068 5 253.068 6.2C253.068 7.46666 252.368 8.83333 250.968 10.3C249.635 11.7 248.368 12.4 247.168 12.4C246.035 12.4 244.801 11.7 243.468 10.3C242.135 8.83333 241.468 7.46666 241.468 6.2ZM293.559 26.8C293.493 23 292.826 20.2333 291.559 18.5C290.293 16.7 288.293 15.8 285.559 15.8C282.959 15.8 280.626 16.8667 278.559 19C276.493 21.1333 275.026 23.7333 274.159 26.8V18.6C274.159 17.9333 273.893 17.4333 273.359 17.1C272.893 16.7 272.226 16.5 271.359 16.5C269.359 16.5 267.359 16.8667 265.359 17.6C263.359 18.3333 261.693 19.2667 260.359 20.4L260.659 21.4H263.859C264.726 21.4 265.159 21.9 265.159 22.9V42.4C265.159 44.0667 264.993 45.2 264.659 45.8C264.326 46.3333 263.626 46.7333 262.559 47L261.159 47.3L261.759 49H276.259L277.059 48L276.259 47C275.459 45.8667 274.893 44.7 274.559 43.5C274.293 42.3 274.159 40.6667 274.159 38.6C274.159 33.9333 274.759 29.8333 275.959 26.3C277.159 22.7 278.826 20.9 280.959 20.9C283.493 20.9 284.759 22.8333 284.759 26.7V49H295.859L296.659 48L295.859 47C295.126 45.8667 294.593 44.7 294.259 43.5C293.993 42.3 293.826 40.6667 293.759 38.6C293.759 33.9333 294.359 29.8333 295.559 26.3C296.759 22.7 298.426 20.9 300.559 20.9C303.093 20.9 304.359 22.8333 304.359 26.7V41.1C304.359 44.3667 304.859 46.6667 305.859 48C306.859 49.2667 308.593 49.9 311.059 49.9C314.393 49.9 317.293 48.5333 319.759 45.8L318.959 44.8C317.759 45.8 316.526 46.3 315.259 46.3C313.993 46.3 313.359 45.3 313.359 43.3V27.5C313.359 23.5 312.693 20.5667 311.359 18.7C310.093 16.7667 308.026 15.8 305.159 15.8C302.759 15.8 300.493 16.8333 298.359 18.9C296.226 20.9667 294.693 23.6 293.759 26.8H293.559ZM341.759 46.6C343.693 46.6 345.393 46.2667 346.859 45.6C348.326 44.8667 349.759 43.6667 351.159 42L352.359 42.9C350.826 45.1 348.859 46.8333 346.459 48.1C344.126 49.3 341.559 49.9 338.759 49.9C335.693 49.9 332.926 49.1667 330.459 47.7C328.059 46.2333 326.159 44.2333 324.759 41.7C323.359 39.1 322.659 36.1667 322.659 32.9C322.659 27.7 324.226 23.5667 327.359 20.5C330.559 17.3667 334.793 15.8 340.059 15.8C343.793 15.8 346.826 16.7 349.159 18.5C351.559 20.2333 352.759 22.5 352.759 25.3C352.759 28.5 351.393 31.0667 348.659 33C345.993 34.8667 342.326 35.8 337.659 35.8C335.793 35.8 334.093 35.6667 332.559 35.4C332.893 38.8667 333.893 41.6 335.559 43.6C337.226 45.6 339.293 46.6 341.759 46.6ZM338.959 18.2C336.893 18.2 335.259 19.4667 334.059 22C332.926 24.4667 332.359 27.9333 332.359 32.4V34C333.093 34 333.993 33.9333 335.059 33.8C337.859 33.4667 339.993 32.5667 341.459 31.1C342.993 29.5667 343.759 27.5667 343.759 25.1C343.759 23.1 343.293 21.4667 342.359 20.2C341.493 18.8667 340.359 18.2 338.959 18.2ZM369.032 43.3C369.032 45.3 369.665 46.3 370.932 46.3C372.199 46.3 373.432 45.8 374.632 44.8L375.432 45.8C373.099 48.5333 370.199 49.9 366.732 49.9C364.399 49.9 362.699 49.3667 361.632 48.3C360.565 47.1667 360.032 45.4 360.032 43V6.3C360.032 5.36667 359.599 4.9 358.732 4.9H355.532L355.232 3.9C356.499 2.7 358.132 1.76666 360.132 1.1C362.199 0.366665 364.232 -9.53674e-07 366.232 -9.53674e-07C367.099 -9.53674e-07 367.765 0.199998 368.232 0.599997C368.765 0.93333 369.032 1.43333 369.032 2.1V43.3ZM390.24 43.3C390.24 45.3 390.873 46.3 392.14 46.3C393.407 46.3 394.64 45.8 395.84 44.8L396.64 45.8C394.173 48.5333 391.273 49.9 387.94 49.9C385.54 49.9 383.807 49.3 382.74 48.1C381.673 46.8333 381.14 44.8 381.14 42V22.2C381.14 21.2667 380.707 20.8 379.84 20.8H376.74L376.44 19.7C377.773 18.5667 379.44 17.6333 381.44 16.9C383.44 16.1667 385.44 15.8 387.44 15.8C388.24 15.8 388.907 16 389.44 16.4C389.973 16.8 390.24 17.3333 390.24 18V43.3ZM380.14 6.2C380.14 5 380.807 3.66667 382.14 2.2C383.473 0.733332 384.707 -9.53674e-07 385.84 -9.53674e-07C387.04 -9.53674e-07 388.307 0.733332 389.64 2.2C391.04 3.66667 391.74 5 391.74 6.2C391.74 7.46666 391.04 8.83333 389.64 10.3C388.307 11.7 387.04 12.4 385.84 12.4C384.707 12.4 383.473 11.7 382.14 10.3C380.807 8.83333 380.14 7.46666 380.14 6.2ZM433.631 43.3C433.631 45.3 434.265 46.3 435.531 46.3C436.798 46.3 438.031 45.8 439.231 44.8L440.031 45.8C437.565 48.5333 434.665 49.9 431.331 49.9C428.931 49.9 427.198 49.3 426.131 48.1C425.131 46.8333 424.631 44.8 424.631 42V26.7C424.631 22.8333 423.398 20.9 420.931 20.9C418.531 20.9 416.565 22.5333 415.031 25.8C413.565 29.0667 412.831 33.3333 412.831 38.6C412.831 40.6 412.998 42.2333 413.331 43.5C413.665 44.7 414.198 45.8667 414.931 47L415.731 48L414.931 49H400.431L399.831 47.3L401.231 47C402.298 46.7333 402.998 46.3333 403.331 45.8C403.665 45.2 403.831 44.0667 403.831 42.4V22.9C403.831 21.6333 403.398 21 402.531 21H399.331L399.031 19.9C400.365 18.7667 402.031 17.8333 404.031 17.1C406.031 16.3667 408.031 16 410.031 16C410.898 16 411.565 16.2 412.031 16.6C412.565 17 412.831 17.5333 412.831 18.2V26.8C413.765 23.6667 415.431 21.0667 417.831 19C420.231 16.8667 422.765 15.8 425.431 15.8C428.298 15.8 430.365 16.7333 431.631 18.6C432.965 20.4667 433.631 23.4333 433.631 27.5V43.3ZM462.072 46.6C464.005 46.6 465.705 46.2667 467.172 45.6C468.639 44.8667 470.072 43.6667 471.472 42L472.672 42.9C471.139 45.1 469.172 46.8333 466.772 48.1C464.439 49.3 461.872 49.9 459.072 49.9C456.005 49.9 453.239 49.1667 450.772 47.7C448.372 46.2333 446.472 44.2333 445.072 41.7C443.672 39.1 442.972 36.1667 442.972 32.9C442.972 27.7 444.539 23.5667 447.672 20.5C450.872 17.3667 455.105 15.8 460.372 15.8C464.105 15.8 467.139 16.7 469.472 18.5C471.872 20.2333 473.072 22.5 473.072 25.3C473.072 28.5 471.705 31.0667 468.972 33C466.305 34.8667 462.639 35.8 457.972 35.8C456.105 35.8 454.405 35.6667 452.872 35.4C453.205 38.8667 454.205 41.6 455.872 43.6C457.539 45.6 459.605 46.6 462.072 46.6ZM459.272 18.2C457.205 18.2 455.572 19.4667 454.372 22C453.239 24.4667 452.672 27.9333 452.672 32.4V34C453.405 34 454.305 33.9333 455.372 33.8C458.172 33.4667 460.305 32.5667 461.772 31.1C463.305 29.5667 464.072 27.5667 464.072 25.1C464.072 23.1 463.605 21.4667 462.672 20.2C461.805 18.8667 460.672 18.2 459.272 18.2Z" fill="#FBBC04"/>
<path d="M9.4 9.1L8.43238 9.35242L8.43238 9.35242L9.4 9.1ZM7.1 4.5L6.29124 5.08819L6.29582 5.09439L7.1 4.5ZM6.3 3.4L5.49126 2.81182L5.0635 3.4L5.49126 3.98817L6.3 3.4ZM7.1 2.3V1.3H6.59078L6.29126 1.71183L7.1 2.3ZM36.6 0.999998L37.1647 1.82531L37.1826 1.81304L37.2 1.8L36.6 0.999998ZM37.8 0.0999978L38.469 -0.643297L37.8578 -1.19335L37.2 -0.700002L37.8 0.0999978ZM38.8 0.999998H39.8V0.554635L39.469 0.256703L38.8 0.999998ZM38.8 13.5L39.1304 14.4439L39.8 14.2095V13.5H38.8ZM36.8 14.2L35.8513 14.5162L36.1723 15.4792L37.1304 15.1439L36.8 14.2ZM33.2 6.8L32.4381 7.44765L32.4472 7.45844L32.4567 7.46896L33.2 6.8ZM20.4 5.8L21.1474 6.46436L21.1647 6.44496L21.1809 6.42469L20.4 5.8ZM19.6 24H18.6V25H19.6V24ZM31.2 23.4L30.8286 22.4715L30.8173 22.4761L30.8061 22.4809L31.2 23.4ZM33.4 21L34.332 21.3624L34.3371 21.3495L34.3417 21.3363L33.4 21ZM33.9 19.6L34.4241 18.7483L33.3733 18.1017L32.9583 19.2637L33.9 19.6ZM35.2 20.4H36.2V19.8412L35.7241 19.5483L35.2 20.4ZM35.2 31.6L35.5417 32.5398L36.2 32.3004V31.6H35.2ZM33 32.4L32.0161 32.5789L32.2281 33.7448L33.3417 33.3398L33 32.4ZM32.6 30.2L33.5839 30.0211L33.5823 30.0129L32.6 30.2ZM19.6 26.5V25.5H18.6V26.5H19.6ZM20.5 45.6L19.7567 46.269L19.7743 46.2885L19.7929 46.3071L20.5 45.6ZM34.1 44.4L33.3407 43.7492L33.3316 43.7599L33.3228 43.7708L34.1 44.4ZM37.5 37.1L37.8162 36.1513L36.8452 35.8276L36.5442 36.8059L37.5 37.1ZM39.6 37.8H40.6V37.0792L39.9162 36.8513L39.6 37.8ZM39.6 49.8L40.2332 50.574L40.6 50.2739V49.8H39.6ZM38.5 50.7L37.9188 51.5137L38.5412 51.9583L39.1332 51.474L38.5 50.7ZM35.3 49.3L35.5169 48.3238L35.4908 48.318L35.4644 48.3136L35.3 49.3ZM5.2 49L4.268 49.3624L4.51593 50H5.2V49ZM4.5 47.2L4.23037 46.237L3.16821 46.5344L3.568 47.5624L4.5 47.2ZM8.1 45.9L8.57885 46.7779L8.60844 46.7618L8.63688 46.7437L8.1 45.9ZM11 15.4C11 12.6976 10.7988 10.5004 10.3676 8.84758L8.43238 9.35242C8.80122 10.7663 9 12.7691 9 15.4H11ZM10.3676 8.84758C9.92961 7.16856 9.09826 5.52113 7.90418 3.90561L6.29582 5.09439C7.36841 6.54553 8.07039 7.96476 8.43238 9.35242L10.3676 8.84758ZM7.90874 3.91183L7.10874 2.81183L5.49126 3.98817L6.29126 5.08817L7.90874 3.91183ZM7.10874 3.98817L7.90874 2.88817L6.29126 1.71183L5.49126 2.81182L7.10874 3.98817ZM7.1 3.3H29.2V1.3H7.1V3.3ZM29.2 3.3C31.0673 3.3 32.663 3.19006 33.973 2.95992C35.2687 2.73229 36.3623 2.37432 37.1647 1.82531L36.0353 0.174691C35.5711 0.492343 34.7979 0.784375 33.627 0.990082C32.4704 1.19327 30.9994 1.3 29.2 1.3V3.3ZM37.2 1.8L38.4 0.899998L37.2 -0.700002L36 0.199998L37.2 1.8ZM37.131 0.843292L38.131 1.74329L39.469 0.256703L38.469 -0.643297L37.131 0.843292ZM37.8 0.999998V13.5H39.8V0.999998H37.8ZM38.4697 12.5561L36.4697 13.2561L37.1304 15.1439L39.1304 14.4439L38.4697 12.5561ZM37.7487 13.8838C36.543 10.2667 35.291 7.62846 33.9433 6.13103L32.4567 7.46896C33.509 8.6382 34.657 10.9333 35.8513 14.5162L37.7487 13.8838ZM33.9619 6.15235C32.5974 4.54695 30.6564 3.8 28.3 3.8V5.8C30.2103 5.8 31.536 6.38637 32.4381 7.44765L33.9619 6.15235ZM28.3 3.8H23.8V5.8H28.3V3.8ZM23.8 3.8C22.878 3.8 22.058 3.88763 21.3678 4.09063C20.6779 4.29355 20.0545 4.63115 19.6191 5.17531L21.1809 6.42469C21.2789 6.30218 21.4888 6.13977 21.9322 6.00936C22.3753 5.87903 22.9886 5.8 23.8 5.8V3.8ZM19.6526 5.13564C19.2124 5.6309 18.9663 6.31965 18.8194 7.05388C18.6684 7.80919 18.6 8.731 18.6 9.8H20.6C20.6 8.80233 20.665 8.02414 20.7806 7.44612C20.9004 6.84701 21.0543 6.56909 21.1474 6.46436L19.6526 5.13564ZM18.6 9.8V24H20.6V9.8H18.6ZM19.6 25H26.8V23H19.6V25ZM26.8 25C28.8296 25 30.4661 24.8025 31.5939 24.3191L30.8061 22.4809C30.0672 22.7975 28.7704 23 26.8 23V25ZM31.5714 24.3285C32.8784 23.8057 33.7862 22.766 34.332 21.3624L32.468 20.6376C32.0805 21.634 31.5216 22.1943 30.8286 22.4715L31.5714 24.3285ZM34.3417 21.3363L34.8417 19.9363L32.9583 19.2637L32.4583 20.6637L34.3417 21.3363ZM33.3759 20.4517L34.6759 21.2517L35.7241 19.5483L34.4241 18.7483L33.3759 20.4517ZM34.2 20.4V31.6H36.2V20.4H34.2ZM34.8583 30.6602L32.6583 31.4602L33.3417 33.3398L35.5417 32.5398L34.8583 30.6602ZM33.9839 32.2211L33.5839 30.0211L31.6161 30.3789L32.0161 32.5789L33.9839 32.2211ZM33.5823 30.0129C33.2605 28.3231 32.3345 27.0655 30.8061 26.3862L29.9939 28.2138C30.8655 28.6012 31.4062 29.2769 31.6177 30.3871L33.5823 30.0129ZM30.8061 26.3862C29.4038 25.7629 27.2918 25.5 24.6 25.5V27.5C27.2415 27.5 28.9962 27.7704 29.9939 28.2138L30.8061 26.3862ZM24.6 25.5H19.6V27.5H24.6V25.5ZM18.6 26.5V41.6H20.6V26.5H18.6ZM18.6 41.6C18.6 42.6432 18.6776 43.556 18.8494 44.3195C19.0189 45.073 19.2972 45.7585 19.7567 46.269L21.2433 44.931C21.1028 44.7749 20.9311 44.4603 20.8006 43.8805C20.6724 43.3106 20.6 42.5568 20.6 41.6H18.6ZM19.7929 46.3071C20.2854 46.7996 20.9814 47.0821 21.7305 47.2506C22.4958 47.4228 23.4263 47.5 24.5 47.5V45.5C23.507 45.5 22.7375 45.4272 22.1695 45.2994C21.5852 45.1679 21.3146 45.0004 21.2071 44.8929L19.7929 46.3071ZM24.5 47.5H29.4V45.5H24.5V47.5ZM29.4 47.5C31.664 47.5 33.5315 46.6916 34.8772 45.0292L33.3228 43.7708C32.4019 44.9084 31.136 45.5 29.4 45.5V47.5ZM34.8593 45.0508C36.1987 43.4881 37.3803 40.8895 38.4558 37.3941L36.5442 36.8059C35.4864 40.2438 34.4013 42.5119 33.3407 43.7492L34.8593 45.0508ZM37.1838 38.0487L39.2838 38.7487L39.9162 36.8513L37.8162 36.1513L37.1838 38.0487ZM38.6 37.8V49.8H40.6V37.8H38.6ZM38.9668 49.026L37.8668 49.926L39.1332 51.474L40.2332 50.574L38.9668 49.026ZM39.0812 49.8863C38.0309 49.1361 36.8385 48.6175 35.5169 48.3238L35.0831 50.2762C36.1615 50.5158 37.1024 50.9306 37.9188 51.5137L39.0812 49.8863ZM35.4644 48.3136C34.1843 48.1003 32.454 48 30.3 48V50C32.4127 50 34.0157 50.0997 35.1356 50.2864L35.4644 48.3136ZM30.3 48H5.2V50H30.3V48ZM6.132 48.6376L5.432 46.8376L3.568 47.5624L4.268 49.3624L6.132 48.6376ZM4.76963 48.163C6.44889 47.6928 7.74067 47.2351 8.57885 46.7779L7.62115 45.0221C6.99266 45.3649 5.88445 45.7739 4.23037 46.237L4.76963 48.163ZM8.63688 46.7437C9.53381 46.1729 10.1892 45.4058 10.5398 44.4417L8.66021 43.7583C8.47744 44.2609 8.13286 44.6938 7.56312 45.0563L8.63688 46.7437ZM10.5398 44.4417C10.8685 43.5379 11 42.2598 11 40.7H9C9 42.2069 8.86486 43.1955 8.66021 43.7583L10.5398 44.4417ZM11 40.7V15.4H9V40.7H11ZM68.8086 42.6L67.8974 42.1878L67.893 42.198L68.8086 42.6ZM67.1086 18.7L67.9145 18.1079L67.8991 18.0869L67.8826 18.0668L67.1086 18.7ZM66.2086 17.6L65.5015 16.8929L64.8616 17.5328L65.4346 18.2332L66.2086 17.6ZM67.0086 16.8L66.8904 15.807L66.5464 15.848L66.3015 16.0929L67.0086 16.8ZM75.4086 15.8L76.4062 15.7304L76.3331 14.6829L75.2904 14.807L75.4086 15.8ZM71.8086 42.7L72.6879 43.1763L72.6879 43.1763L71.8086 42.7ZM53.4086 46.8L52.6424 47.4426L52.6484 47.4498L52.6545 47.4568L53.4086 46.8ZM49.7086 36.6L48.719 36.7443L48.7204 36.7531L49.7086 36.6ZM47.6086 22.2L46.6163 22.324L46.6176 22.3342L46.6191 22.3443L47.6086 22.2ZM47.2086 21.1L46.5015 21.8071L46.5015 21.8071L47.2086 21.1ZM43.6086 20.8L42.6438 21.0631L42.8448 21.8H43.6086V20.8ZM43.3086 19.7L42.6396 18.9567L42.1817 19.3688L42.3438 19.9631L43.3086 19.7ZM48.1086 16.9L48.4449 17.8417L48.4597 17.8365L48.4742 17.8308L48.1086 16.9ZM55.7086 16.7L54.8765 17.2547L54.8968 17.2851L54.9192 17.3139L55.7086 16.7ZM56.8086 20.3L57.7982 20.1563L57.7978 20.1535L56.8086 20.3ZM59.4086 38.2L60.3985 38.0586L60.3982 38.0563L59.4086 38.2ZM61.0086 44.9L60.1142 45.3472L60.1142 45.3472L61.0086 44.9ZM63.8086 47.7C66.4966 47.7 68.4396 45.9281 69.7242 43.002L67.893 42.198C66.7776 44.7386 65.3873 45.7 63.8086 45.7V47.7ZM69.7197 43.0122C71.0623 40.0444 71.7086 36.3931 71.7086 32.1H69.7086C69.7086 36.2069 69.0882 39.5556 67.8975 42.1878L69.7197 43.0122ZM71.7086 32.1C71.7086 26.3029 70.482 21.6026 67.9145 18.1079L66.3027 19.2921C68.5352 22.3308 69.7086 26.5638 69.7086 32.1H71.7086ZM67.8826 18.0668L66.9826 16.9668L65.4346 18.2332L66.3346 19.3332L67.8826 18.0668ZM66.9157 18.3071L67.7157 17.5071L66.3015 16.0929L65.5015 16.8929L66.9157 18.3071ZM67.1268 17.793L75.5268 16.793L75.2904 14.807L66.8904 15.807L67.1268 17.793ZM74.411 15.8696C74.6103 18.726 74.7086 21 74.7086 22.7H76.7086C76.7086 20.9334 76.6069 18.6073 76.4062 15.7304L74.411 15.8696ZM74.7086 22.7C74.7086 31.1519 73.4177 37.6298 70.9293 42.2237L72.6879 43.1763C75.3995 38.1702 76.7086 31.3148 76.7086 22.7H74.7086ZM70.9293 42.2237C68.4544 46.7928 65.2478 48.9 61.3086 48.9V50.9C66.1694 50.9 69.9628 48.2072 72.6879 43.1763L70.9293 42.2237ZM61.3086 48.9C58.0487 48.9 55.7246 47.9365 54.1627 46.1432L52.6545 47.4568C54.6926 49.7968 57.6352 50.9 61.3086 50.9V48.9ZM54.1748 46.1574C52.6183 44.3015 51.421 41.121 50.6968 36.4469L48.7204 36.7531C49.4629 41.5456 50.7323 45.1651 52.6424 47.4426L54.1748 46.1574ZM50.6981 36.4557L48.5981 22.0557L46.6191 22.3443L48.7191 36.7443L50.6981 36.4557ZM48.6009 22.076C48.528 21.493 48.3622 20.8394 47.9157 20.3929L46.5015 21.8071C46.4667 21.7724 46.4843 21.7717 46.5188 21.8667C46.5523 21.9589 46.5891 22.106 46.6163 22.324L48.6009 22.076ZM47.9157 20.3929C47.462 19.9392 46.8627 19.8 46.3086 19.8V21.8C46.4282 21.8 46.4922 21.8153 46.5174 21.8237C46.5377 21.8304 46.5237 21.8293 46.5015 21.8071L47.9157 20.3929ZM46.3086 19.8H43.6086V21.8H46.3086V19.8ZM44.5734 20.5369L44.2734 19.4369L42.3438 19.9631L42.6438 21.0631L44.5734 20.5369ZM43.9776 20.4433C45.2043 19.3392 46.6881 18.4692 48.4449 17.8417L47.7723 15.9583C45.7958 16.6641 44.0795 17.6608 42.6396 18.9567L43.9776 20.4433ZM48.4742 17.8308C50.2377 17.138 51.9472 16.8 53.6086 16.8V14.8C51.6699 14.8 49.7128 15.1954 47.7429 15.9692L48.4742 17.8308ZM53.6086 16.8C54.4155 16.8 54.7286 17.0328 54.8765 17.2547L56.5406 16.1453C55.8886 15.1672 54.8017 14.8 53.6086 14.8V16.8ZM54.9192 17.3139C55.0448 17.4753 55.2094 17.7929 55.3772 18.3422C55.5411 18.8786 55.6904 19.576 55.8194 20.4465L57.7978 20.1535C57.6601 19.224 57.4927 18.4214 57.2899 17.7578C57.0911 17.1071 56.8391 16.5247 56.4979 16.0861L54.9192 17.3139ZM55.819 20.4437L58.419 38.3437L60.3982 38.0563L57.7982 20.1563L55.819 20.4437ZM58.4186 38.3414C58.8847 41.6039 59.4335 43.9859 60.1142 45.3472L61.903 44.4528C61.3837 43.4141 60.8658 41.3294 60.3985 38.0586L58.4186 38.3414ZM60.1142 45.3472C60.4777 46.0743 60.9712 46.6755 61.6178 47.0912C62.2677 47.509 63.0114 47.7 63.8086 47.7V45.7C63.3391 45.7 62.9828 45.591 62.6994 45.4088C62.4126 45.2245 62.1395 44.9257 61.903 44.4528L60.1142 45.3472ZM106.234 45.6L106.648 46.5104L106.665 46.5027L106.682 46.4944L106.234 45.6ZM110.534 42L111.134 41.2L110.377 40.6322L109.769 41.3568L110.534 42ZM111.734 42.9L112.555 43.4718L113.107 42.6795L112.334 42.1L111.734 42.9ZM105.834 48.1L106.292 48.9893L106.301 48.9844L105.834 48.1ZM89.8344 47.7L89.3129 48.5533L89.3233 48.5595L89.8344 47.7ZM84.1344 41.7L83.2539 42.1741L83.2591 42.1837L84.1344 41.7ZM86.7344 20.5L87.4338 21.2147L87.434 21.2145L86.7344 20.5ZM108.534 18.5L107.924 19.2918L107.936 19.3014L107.949 19.3107L108.534 18.5ZM108.034 33L108.608 33.8192L108.612 33.8164L108.034 33ZM91.9344 35.4L92.1057 34.4148L90.8134 34.19L90.939 35.4957L91.9344 35.4ZM94.9344 43.6L95.7026 42.9598L95.7026 42.9598L94.9344 43.6ZM93.4344 22L92.5306 21.5719L92.5257 21.5825L93.4344 22ZM91.7344 34H90.7344V35H91.7344V34ZM94.4344 33.8L94.3162 32.807L94.3103 32.8077L94.4344 33.8ZM101.734 20.2L100.896 20.745L100.912 20.7696L100.929 20.7932L101.734 20.2ZM101.134 47.6C103.182 47.6 105.028 47.2467 106.648 46.5104L105.821 44.6896C104.507 45.2866 102.953 45.6 101.134 45.6V47.6ZM106.682 46.4944C108.303 45.6835 109.839 44.382 111.3 42.6432L109.769 41.3568C108.429 42.9514 107.099 44.0498 105.787 44.7056L106.682 46.4944ZM109.934 42.8L111.134 43.7L112.334 42.1L111.134 41.2L109.934 42.8ZM110.914 42.3282C109.473 44.3957 107.628 46.0225 105.368 47.2156L106.301 48.9844C108.841 47.6442 110.929 45.8043 112.555 43.4718L110.914 42.3282ZM105.377 47.2107C103.195 48.3331 100.786 48.9 98.1344 48.9V50.9C101.082 50.9 103.807 50.2669 106.292 48.9893L105.377 47.2107ZM98.1344 48.9C95.2348 48.9 92.6468 48.2089 90.3455 46.8405L89.3233 48.5595C91.9552 50.1245 94.9006 50.9 98.1344 50.9V48.9ZM90.3558 46.8467C88.1082 45.4732 86.3283 43.6025 85.0096 41.2163L83.2591 42.1837C84.7405 44.8642 86.7605 46.9935 89.3129 48.5533L90.3558 46.8467ZM85.0148 41.2259C83.7014 38.7866 83.0344 36.0191 83.0344 32.9H81.0344C81.0344 36.3142 81.7674 39.4134 83.2539 42.1741L85.0148 41.2259ZM83.0344 32.9C83.0344 27.915 84.5281 24.0586 87.4338 21.2147L86.0349 19.7853C82.674 23.0748 81.0344 27.485 81.0344 32.9H83.0344ZM87.434 21.2145C90.4145 18.2961 94.3799 16.8 99.4344 16.8V14.8C93.9556 14.8 89.4542 16.4373 86.0348 19.7855L87.434 21.2145ZM99.4344 16.8C103.007 16.8 105.807 17.6592 107.924 19.2918L109.145 17.7082C106.595 15.7407 103.329 14.8 99.4344 14.8V16.8ZM107.949 19.3107C110.106 20.8687 111.134 22.8421 111.134 25.3H113.134C113.134 22.1579 111.763 19.598 109.12 17.6893L107.949 19.3107ZM111.134 25.3C111.134 28.1581 109.94 30.4274 107.457 32.1836L108.612 33.8164C111.596 31.7059 113.134 28.8419 113.134 25.3H111.134ZM107.461 32.1808C105.021 33.8888 101.581 34.8 97.0344 34.8V36.8C101.821 36.8 105.715 35.8445 108.608 33.8192L107.461 32.1808ZM97.0344 34.8C95.2142 34.8 93.5726 34.6699 92.1057 34.4148L91.763 36.3852C93.3628 36.6634 95.1212 36.8 97.0344 36.8V34.8ZM90.939 35.4957C91.2852 39.0962 92.3338 42.0414 94.1662 44.2402L95.7026 42.9598C94.2016 41.1586 93.2502 38.6371 92.9298 35.3043L90.939 35.4957ZM94.1662 44.2402C96.0107 46.4537 98.3526 47.6 101.134 47.6V45.6C98.9828 45.6 97.1913 44.7463 95.7026 42.9598L94.1662 44.2402ZM98.3344 17.2C95.7423 17.2 93.8269 18.8354 92.5306 21.5719L94.3381 22.4281C95.4419 20.0979 96.7931 19.2 98.3344 19.2V17.2ZM92.5257 21.5825C91.3055 24.2382 90.7344 27.8708 90.7344 32.4H92.7344C92.7344 27.9959 93.2966 24.6952 94.3431 22.4175L92.5257 21.5825ZM90.7344 32.4V34H92.7344V32.4H90.7344ZM91.7344 35C92.5234 35 93.4677 34.9286 94.5584 34.7923L94.3103 32.8077C93.2678 32.938 92.412 33 91.7344 33V35ZM94.5526 34.793C97.4959 34.4426 99.8676 33.481 101.541 31.8071L100.127 30.3929C98.8678 31.6523 96.9728 32.4907 94.3162 32.807L94.5526 34.793ZM101.541 31.8071C103.289 30.0599 104.134 27.7922 104.134 25.1H102.134C102.134 27.3411 101.447 29.0734 100.127 30.3929L101.541 31.8071ZM104.134 25.1C104.134 22.9448 103.63 21.087 102.539 19.6068L100.929 20.7932C101.705 21.8464 102.134 23.2552 102.134 25.1H104.134ZM102.573 19.655C101.551 18.0832 100.124 17.2 98.3344 17.2V19.2C99.3452 19.2 100.184 19.6502 100.896 20.745L102.573 19.655ZM156.907 44.8L157.688 44.1753L157.051 43.3787L156.267 44.0318L156.907 44.8ZM157.707 45.8L158.449 46.47L159.019 45.839L158.488 45.1753L157.707 45.8ZM143.807 48.1L143.022 48.7196L143.04 48.7426L143.06 48.7644L143.807 48.1ZM132.707 25.8L131.802 25.3751L131.798 25.3827L131.795 25.3904L132.707 25.8ZM131.007 43.5L130.04 43.7545L130.044 43.7676L131.007 43.5ZM132.607 47L131.767 47.5433L131.795 47.5854L131.826 47.6247L132.607 47ZM133.407 48L134.188 48.6247L134.688 48L134.188 47.3753L133.407 48ZM132.607 49V50H133.088L133.388 49.6247L132.607 49ZM118.107 49L117.164 49.3328L117.4 50H118.107V49ZM117.507 47.3L117.298 46.3222L116.186 46.5605L116.564 47.6328L117.507 47.3ZM118.907 47L119.117 47.9778L119.133 47.9743L119.15 47.9701L118.907 47ZM121.007 45.8L121.855 46.33L121.869 46.3082L121.881 46.2856L121.007 45.8ZM117.007 21L116.042 21.2631L116.243 22H117.007V21ZM116.707 19.9L116.059 19.1381L115.575 19.5498L115.742 20.1631L116.707 19.9ZM121.707 17.1L122.051 18.0389L122.051 18.0389L121.707 17.1ZM129.707 16.6L129.056 17.3593L129.081 17.3805L129.107 17.4L129.707 16.6ZM130.507 26.8H129.507L131.465 27.0855L130.507 26.8ZM135.507 19L136.16 19.7578L136.166 19.7526L136.171 19.7474L135.507 19ZM149.307 18.6L148.48 19.1615L148.486 19.1715L148.493 19.1812L149.307 18.6ZM150.307 43.3C150.307 44.3733 150.471 45.3492 150.937 46.0851C151.452 46.8981 152.26 47.3 153.207 47.3V45.3C152.888 45.3 152.745 45.2019 152.627 45.0149C152.46 44.7508 152.307 44.2267 152.307 43.3H150.307ZM153.207 47.3C154.758 47.3 156.211 46.6819 157.547 45.5682L156.267 44.0318C155.203 44.9181 154.189 45.3 153.207 45.3V47.3ZM156.126 45.4247L156.926 46.4247L158.488 45.1753L157.688 44.1753L156.126 45.4247ZM156.965 45.13C154.665 47.6778 152.026 48.9 149.007 48.9V50.9C152.655 50.9 155.815 49.3889 158.449 46.47L156.965 45.13ZM149.007 48.9C146.75 48.9 145.354 48.3348 144.554 47.4356L143.06 48.7644C144.394 50.2652 146.464 50.9 149.007 50.9V48.9ZM144.592 47.4804C143.802 46.4793 143.307 44.7238 143.307 42H141.307C141.307 44.8762 141.812 47.1874 143.022 48.7196L144.592 47.4804ZM143.307 42V26.7H141.307V42H143.307ZM143.307 26.7C143.307 24.6925 142.993 23.0154 142.225 21.8122C141.409 20.5325 140.151 19.9 138.607 19.9V21.9C139.53 21.9 140.122 22.2342 140.539 22.8878C141.005 23.6179 141.307 24.8408 141.307 26.7H143.307ZM138.607 19.9C135.639 19.9 133.406 21.9569 131.802 25.3751L133.612 26.2249C135.074 23.1098 136.775 21.9 138.607 21.9V19.9ZM131.795 25.3904C130.25 28.8318 129.507 33.253 129.507 38.6H131.507C131.507 33.4136 132.231 29.3016 133.619 26.2096L131.795 25.3904ZM129.507 38.6C129.507 40.6459 129.676 42.3734 130.04 43.7545L131.974 43.2455C131.671 42.0933 131.507 40.5541 131.507 38.6H129.507ZM130.044 43.7676C130.406 45.0731 130.984 46.332 131.767 47.5433L133.447 46.4567C132.764 45.4014 132.275 44.3269 131.971 43.2324L130.044 43.7676ZM131.826 47.6247L132.626 48.6247L134.188 47.3753L133.388 46.3753L131.826 47.6247ZM132.626 47.3753L131.826 48.3753L133.388 49.6247L134.188 48.6247L132.626 47.3753ZM132.607 48H118.107V50H132.607V48ZM119.05 48.6672L118.45 46.9672L116.564 47.6328L117.164 49.3328L119.05 48.6672ZM117.717 48.2778L119.117 47.9778L118.698 46.0222L117.298 46.3222L117.717 48.2778ZM119.15 47.9701C120.294 47.6839 121.313 47.198 121.855 46.33L120.159 45.27C120.035 45.4687 119.653 45.7827 118.664 46.0299L119.15 47.9701ZM121.881 46.2856C122.133 45.8328 122.281 45.2626 122.371 44.6455C122.464 44.0144 122.507 43.2622 122.507 42.4H120.507C120.507 43.2044 120.467 43.8523 120.393 44.3545C120.317 44.8707 120.215 45.1672 120.133 45.3144L121.881 46.2856ZM122.507 42.4V22.9H120.507V42.4H122.507ZM122.507 22.9C122.507 22.1838 122.39 21.4698 122.007 20.9103C121.578 20.2826 120.921 20 120.207 20V22C120.302 22 120.336 22.017 120.338 22.0177C120.339 22.0185 120.339 22.0186 120.34 22.019C120.341 22.0198 120.347 22.0251 120.357 22.0397C120.407 22.1135 120.507 22.3496 120.507 22.9H122.507ZM120.207 20H117.007V22H120.207V20ZM117.972 20.7369L117.672 19.6369L115.742 20.1631L116.042 21.2631L117.972 20.7369ZM117.355 20.6619C118.581 19.6196 120.139 18.7401 122.051 18.0389L121.363 16.1611C119.275 16.9265 117.5 17.9137 116.059 19.1381L117.355 20.6619ZM122.051 18.0389C123.948 17.3433 125.832 17 127.707 17V15C125.582 15 123.466 15.39 121.363 16.1611L122.051 18.0389ZM127.707 17C128.432 17 128.833 17.1678 129.056 17.3593L130.358 15.8407C129.648 15.2322 128.716 15 127.707 15V17ZM129.107 17.4C129.389 17.6111 129.507 17.8481 129.507 18.2H131.507C131.507 17.2186 131.092 16.3889 130.307 15.8L129.107 17.4ZM129.507 18.2V26.8H131.507V18.2H129.507ZM131.465 27.0855C132.346 24.1294 133.909 21.6953 136.16 19.7578L134.855 18.2422C132.305 20.438 130.535 23.204 129.549 26.5145L131.465 27.0855ZM136.171 19.7474C138.428 17.7419 140.733 16.8 143.107 16.8V14.8C140.148 14.8 137.386 15.9914 134.843 18.2526L136.171 19.7474ZM143.107 16.8C145.743 16.8 147.449 17.6432 148.48 19.1615L150.135 18.0385C148.631 15.8235 146.204 14.8 143.107 14.8V16.8ZM148.493 19.1812C149.643 20.791 150.307 23.4999 150.307 27.5H152.307C152.307 23.3668 151.638 20.1423 150.121 18.0188L148.493 19.1812ZM150.307 27.5V43.3H152.307V27.5H150.307ZM165.848 48.1L165.122 48.7877L165.131 48.7976L165.141 48.8071L165.848 48.1ZM164.048 20.8H165.048V19.8H164.048V20.8ZM159.048 20.8H158.048V21.8H159.048V20.8ZM160.448 17.8L160.185 16.8352L160.172 16.8386L160.16 16.8422L160.448 17.8ZM165.648 15L166.355 15.7071L166.355 15.7071L165.648 15ZM168.748 9.5L169.696 9.81623L169.705 9.78989L169.712 9.76312L168.748 9.5ZM169.748 8.2L170.022 9.16152L170.083 9.14411L170.142 9.11914L169.748 8.2ZM173.148 7.9H174.148V6.9H173.148V7.9ZM173.148 16.9H172.148V17.9H173.148V16.9ZM181.348 16.9H182.348V15.9H181.348V16.9ZM180.948 19.3L181.876 19.6714L181.882 19.6567L181.887 19.6417L180.948 19.3ZM179.848 20.8V21.8H180.168L180.429 21.6137L179.848 20.8ZM173.148 20.8V19.8H172.148V20.8H173.148ZM178.048 45.6L177.6 44.7056L177.587 44.7123L177.574 44.7195L178.048 45.6ZM180.548 43.7L181.329 43.0753L180.599 42.1638L179.811 43.0243L180.548 43.7ZM181.348 44.7L182.118 45.3373L182.637 44.7104L182.129 44.0753L181.348 44.7ZM171.748 48.9C169.124 48.9 167.48 48.3184 166.555 47.3929L165.141 48.8071C166.615 50.2816 168.905 50.9 171.748 50.9V48.9ZM166.574 47.4123C165.63 46.4162 165.048 44.6917 165.048 42H163.048C163.048 44.9083 163.665 47.2505 165.122 48.7877L166.574 47.4123ZM165.048 42V20.8H163.048V42H165.048ZM164.048 19.8H159.048V21.8H164.048V19.8ZM160.048 20.8C160.048 20.2493 160.064 19.8157 160.094 19.4905C160.108 19.3284 160.125 19.2029 160.143 19.1093C160.152 19.063 160.16 19.0284 160.166 19.0037C160.173 18.9785 160.177 18.969 160.176 18.9714L158.319 18.2286C158.196 18.5371 158.137 18.9254 158.102 19.3095C158.065 19.7177 158.048 20.2173 158.048 20.8H160.048ZM160.176 18.9714C160.146 19.0466 160.115 19.0405 160.202 18.982C160.292 18.9222 160.458 18.8409 160.735 18.7578L160.16 16.8422C159.452 17.0547 158.636 17.4362 158.319 18.2286L160.176 18.9714ZM160.711 18.7648C163.034 18.1312 164.936 17.1261 166.355 15.7071L164.941 14.2929C163.826 15.4073 162.262 16.2688 160.185 16.8352L160.711 18.7648ZM166.355 15.7071C167.767 14.2949 168.866 12.3066 169.696 9.81623L167.799 9.18377C167.029 11.4934 166.062 13.1717 164.941 14.2929L166.355 15.7071ZM169.712 9.76312C169.791 9.47644 169.878 9.31631 169.94 9.23471C169.994 9.16527 170.021 9.16204 170.022 9.16152L169.473 7.23847C168.508 7.51407 168.02 8.36825 167.783 9.23688L169.712 9.76312ZM170.142 9.11914C170.216 9.08711 170.476 9.02046 171.036 8.97113C171.561 8.92474 172.262 8.9 173.148 8.9V6.9C172.233 6.9 171.467 6.92526 170.86 6.97887C170.285 7.02954 169.746 7.11289 169.354 7.28085L170.142 9.11914ZM172.148 7.9V16.9H174.148V7.9H172.148ZM173.148 17.9H181.348V15.9H173.148V17.9ZM180.348 16.9C180.348 17.6629 180.231 18.3459 180.008 18.9583L181.887 19.6417C182.198 18.7874 182.348 17.8704 182.348 16.9H180.348ZM180.019 18.9286C179.806 19.4623 179.542 19.7891 179.266 19.9863L180.429 21.6137C181.086 21.1442 181.556 20.471 181.876 19.6714L180.019 18.9286ZM179.848 19.8H173.148V21.8H179.848V19.8ZM172.148 20.8V43.3H174.148V20.8H172.148ZM172.148 43.3C172.148 44.4142 172.376 45.4361 173.004 46.1902C173.662 46.9792 174.607 47.3 175.648 47.3V45.3C175.021 45.3 174.717 45.1208 174.541 44.9098C174.336 44.6639 174.148 44.1858 174.148 43.3H172.148ZM175.648 47.3C176.593 47.3 177.557 46.9998 178.522 46.4805L177.574 44.7195C176.805 45.1335 176.169 45.3 175.648 45.3V47.3ZM178.495 46.4944C179.542 45.971 180.472 45.2621 181.285 44.3757L179.811 43.0243C179.156 43.7379 178.42 44.2957 177.6 44.7056L178.495 46.4944ZM179.767 44.3247L180.567 45.3247L182.129 44.0753L181.329 43.0753L179.767 44.3247ZM180.577 44.0627C177.844 47.3676 174.905 48.9 171.748 48.9V50.9C175.657 50.9 179.118 48.9657 182.118 45.3373L180.577 44.0627ZM224.075 44.2L223.126 44.5162L223.143 44.566L223.165 44.6138L224.075 44.2ZM225.675 45.9L226.154 45.0221L226.154 45.0221L225.675 45.9ZM229.275 47.2L230.207 47.5624L230.607 46.5344L229.545 46.237L229.275 47.2ZM228.575 49V50H229.259L229.507 49.3624L228.575 49ZM211.175 49L210.394 49.6247L210.694 50H211.175V49ZM210.375 48L209.543 47.4453L209.137 48.0537L209.594 48.6247L210.375 48ZM211.175 46.8L210.371 46.2056L210.356 46.2251L210.343 46.2453L211.175 46.8ZM213.475 42.2L212.515 41.92L212.511 41.9337L212.507 41.9476L213.475 42.2ZM214.075 35.9H213.075V35.9128L213.075 35.9256L214.075 35.9ZM213.575 5.7L212.661 6.10613L212.69 6.17038L212.727 6.23L213.575 5.7ZM205.675 6.9L206.437 7.54764L206.445 7.53851L206.452 7.52919L205.675 6.9ZM202.175 14.2L201.845 15.1439L202.797 15.4773L203.122 14.5216L202.175 14.2ZM200.175 13.5H199.175V14.2095L199.845 14.4439L200.175 13.5ZM200.175 0.999998L199.506 0.256704L199.175 0.554636V0.999998H200.175ZM201.175 0.0999978L201.775 -0.700002L201.117 -1.19335L200.506 -0.643296L201.175 0.0999978ZM202.375 0.999998L201.775 1.8L201.792 1.81304L201.81 1.82531L202.375 0.999998ZM235.475 0.999998L236.04 1.82531L236.058 1.81304L236.075 1.8L235.475 0.999998ZM236.675 0.0999978L237.308 -0.67396L236.702 -1.17012L236.075 -0.700002L236.675 0.0999978ZM237.775 0.999998H238.775V0.526119L238.408 0.226041L237.775 0.999998ZM237.775 13.5L238.091 14.4487L238.775 14.2208V13.5H237.775ZM235.675 14.2L234.73 14.5265L235.053 15.4615L235.991 15.1487L235.675 14.2ZM232.075 6.8L231.294 7.42469L231.311 7.44623L231.33 7.46679L232.075 6.8ZM224.075 5.7L223.201 5.21435L223.19 5.23335L223.181 5.25278L224.075 5.7ZM222.675 40.7C222.675 42.268 222.808 43.5627 223.126 44.5162L225.024 43.8838C224.808 43.2373 224.675 42.1987 224.675 40.7H222.675ZM223.165 44.6138C223.591 45.5522 224.28 46.2782 225.196 46.7779L226.154 45.0221C225.603 44.7218 225.225 44.3145 224.985 43.7862L223.165 44.6138ZM225.196 46.7779C226.034 47.2351 227.326 47.6928 229.005 48.163L229.545 46.237C227.891 45.7739 226.782 45.3649 226.154 45.0221L225.196 46.7779ZM228.343 46.8376L227.643 48.6376L229.507 49.3624L230.207 47.5624L228.343 46.8376ZM228.575 48H211.175V50H228.575V48ZM211.956 48.3753L211.156 47.3753L209.594 48.6247L210.394 49.6247L211.956 48.3753ZM211.207 48.5547L212.007 47.3547L210.343 46.2453L209.543 47.4453L211.207 48.5547ZM211.979 47.3944C213.173 45.7789 214.005 44.1314 214.443 42.4524L212.507 41.9476C212.145 43.3352 211.443 44.7545 210.371 46.2056L211.979 47.3944ZM214.435 42.48C214.942 40.7414 215.143 38.5266 215.075 35.8744L213.075 35.9256C213.141 38.4734 212.941 40.4586 212.515 41.92L214.435 42.48ZM215.075 35.9V9H213.075V35.9H215.075ZM215.075 9C215.075 8.1386 215.032 7.39265 214.939 6.77519C214.848 6.17816 214.698 5.60953 214.423 5.17L212.727 6.23C212.786 6.3238 212.885 6.57183 212.961 7.0748C213.034 7.55735 213.075 8.19473 213.075 9H215.075ZM214.489 5.29386C214.267 4.79452 213.904 4.39869 213.418 4.14121C212.949 3.89282 212.417 3.8 211.875 3.8V5.8C212.2 5.8 212.385 5.85718 212.482 5.90878C212.562 5.9513 212.616 6.00547 212.661 6.10613L214.489 5.29386ZM211.875 3.8H210.775V5.8H211.875V3.8ZM210.775 3.8C208.292 3.8 206.269 4.57725 204.898 6.2708L206.452 7.52919C207.348 6.42274 208.725 5.8 210.775 5.8V3.8ZM204.913 6.25235C203.649 7.74007 202.433 10.3301 201.228 13.8784L203.122 14.5216C204.317 11.0032 205.435 8.7266 206.437 7.54764L204.913 6.25235ZM202.505 13.2561L200.505 12.5561L199.845 14.4439L201.845 15.1439L202.505 13.2561ZM201.175 13.5V0.999998H199.175V13.5H201.175ZM200.844 1.74329L201.844 0.843292L200.506 -0.643296L199.506 0.256704L200.844 1.74329ZM200.575 0.899998L201.775 1.8L202.975 0.199998L201.775 -0.700002L200.575 0.899998ZM201.81 1.82531C202.613 2.37432 203.706 2.73229 205.002 2.95992C206.312 3.19006 207.908 3.3 209.775 3.3V1.3C207.976 1.3 206.505 1.19327 205.348 0.990082C204.177 0.784375 203.404 0.492343 202.94 0.174691L201.81 1.82531ZM209.775 3.3H228.075V1.3H209.775V3.3ZM228.075 3.3C229.942 3.3 231.538 3.19006 232.848 2.95992C234.144 2.73229 235.237 2.37432 236.04 1.82531L234.91 0.174691C234.446 0.492343 233.673 0.784375 232.502 0.990082C231.345 1.19327 229.874 1.3 228.075 1.3V3.3ZM236.075 1.8L237.275 0.899998L236.075 -0.700002L234.875 0.199998L236.075 1.8ZM236.042 0.873955L237.142 1.77396L238.408 0.226041L237.308 -0.67396L236.042 0.873955ZM236.775 0.999998V13.5H238.775V0.999998H236.775ZM237.459 12.5513L235.359 13.2513L235.991 15.1487L238.091 14.4487L237.459 12.5513ZM236.62 13.8735C235.352 10.2017 234.099 7.56285 232.82 6.1332L231.33 7.46679C232.317 8.57048 233.465 10.865 234.73 14.5265L236.62 13.8735ZM232.856 6.1753C231.547 4.5393 229.584 3.8 227.175 3.8V5.8C229.166 5.8 230.47 6.39403 231.294 7.42469L232.856 6.1753ZM227.175 3.8H225.875V5.8H227.175V3.8ZM225.875 3.8C224.757 3.8 223.759 4.21007 223.201 5.21435L224.949 6.18564C225.058 5.98992 225.26 5.8 225.875 5.8V3.8ZM223.181 5.25278C222.969 5.67541 222.853 6.22112 222.782 6.80467C222.709 7.40909 222.675 8.14432 222.675 9H224.675C224.675 8.18901 224.708 7.54091 224.768 7.04533C224.83 6.52887 224.914 6.25792 224.969 6.14721L223.181 5.25278ZM222.675 9V40.7H224.675V9H222.675ZM257.168 44.8L257.949 44.1753L257.312 43.3787L256.528 44.0318L257.168 44.8ZM257.968 45.8L258.71 46.47L259.28 45.839L258.749 45.1753L257.968 45.8ZM244.068 48.1L243.303 48.7441L243.312 48.7544L243.321 48.7644L244.068 48.1ZM238.068 20.8L237.103 21.0631L237.304 21.8H238.068V20.8ZM237.768 19.7L237.12 18.9381L236.636 19.3498L236.803 19.9631L237.768 19.7ZM242.768 16.9L243.112 17.8389L243.112 17.8389L242.768 16.9ZM250.768 16.4L250.168 17.2L250.168 17.2L250.768 16.4ZM243.468 2.2L242.728 1.52732L242.728 1.52732L243.468 2.2ZM250.968 2.2L250.228 2.87267L250.236 2.88167L250.245 2.89047L250.968 2.2ZM250.968 10.3L250.245 9.60952L250.244 9.61034L250.968 10.3ZM243.468 10.3L242.728 10.9727L242.736 10.9813L242.744 10.9897L243.468 10.3ZM250.568 43.3C250.568 44.3733 250.732 45.3492 251.198 46.0851C251.713 46.8981 252.521 47.3 253.468 47.3V45.3C253.148 45.3 253.006 45.2019 252.888 45.0149C252.721 44.7508 252.568 44.2267 252.568 43.3H250.568ZM253.468 47.3C255.019 47.3 256.472 46.6819 257.808 45.5682L256.528 44.0318C255.464 44.9181 254.45 45.3 253.468 45.3V47.3ZM256.387 45.4247L257.187 46.4247L258.749 45.1753L257.949 44.1753L256.387 45.4247ZM257.226 45.13C254.926 47.6778 252.287 48.9 249.268 48.9V50.9C252.916 50.9 256.076 49.3889 258.71 46.47L257.226 45.13ZM249.268 48.9C247.011 48.9 245.615 48.3348 244.815 47.4356L243.321 48.7644C244.655 50.2652 246.725 50.9 249.268 50.9V48.9ZM244.833 47.4559C243.992 46.4578 243.468 44.7137 243.468 42H241.468C241.468 44.8863 242.01 47.2089 243.303 48.7441L244.833 47.4559ZM243.468 42V22.2H241.468V42H243.468ZM243.468 22.2C243.468 21.5968 243.329 20.9582 242.876 20.4695C242.409 19.967 241.775 19.8 241.168 19.8V21.8C241.427 21.8 241.444 21.8664 241.41 21.8305C241.39 21.8085 241.468 21.8698 241.468 22.2H243.468ZM241.168 19.8H238.068V21.8H241.168V19.8ZM239.033 20.5369L238.733 19.4369L236.803 19.9631L237.103 21.0631L239.033 20.5369ZM238.416 20.4619C239.642 19.4196 241.2 18.5401 243.112 17.8389L242.424 15.9611C240.336 16.7265 238.561 17.7137 237.12 18.9381L238.416 20.4619ZM243.112 17.8389C245.009 17.1433 246.893 16.8 248.768 16.8V14.8C246.643 14.8 244.527 15.19 242.424 15.9611L243.112 17.8389ZM248.768 16.8C249.396 16.8 249.84 16.9542 250.168 17.2L251.368 15.6C250.629 15.0458 249.74 14.8 248.768 14.8V16.8ZM250.168 17.2C250.449 17.4111 250.568 17.6481 250.568 18H252.568C252.568 17.0186 252.153 16.1889 251.368 15.6L250.168 17.2ZM250.568 18V43.3H252.568V18H250.568ZM242.468 6.2C242.468 5.36741 242.94 4.2676 244.208 2.87267L242.728 1.52732C241.329 3.06573 240.468 4.63258 240.468 6.2H242.468ZM244.208 2.87267C245.485 1.46787 246.467 0.999999 247.168 0.999999V-1C245.602 -1 244.118 -0.00120654 242.728 1.52732L244.208 2.87267ZM247.168 0.999999C247.948 0.999999 248.965 1.48358 250.228 2.87267L251.708 1.52732C250.304 -0.0169143 248.788 -1 247.168 -1V0.999999ZM250.245 2.89047C251.581 4.29088 252.068 5.38519 252.068 6.2H254.068C254.068 4.61481 253.155 3.04246 251.691 1.50952L250.245 2.89047ZM252.068 6.2C252.068 7.09239 251.569 8.2221 250.245 9.60952L251.691 10.9905C253.167 9.44456 254.068 7.84094 254.068 6.2H252.068ZM250.244 9.61034C248.988 10.9292 247.966 11.4 247.168 11.4V13.4C248.77 13.4 250.282 12.4708 251.692 10.9897L250.244 9.61034ZM247.168 11.4C246.449 11.4 245.462 10.9441 244.192 9.61034L242.744 10.9897C244.14 12.4559 245.621 13.4 247.168 13.4V11.4ZM244.208 9.62732C242.951 8.24513 242.468 7.10996 242.468 6.2H240.468C240.468 7.82337 241.318 9.42153 242.728 10.9727L244.208 9.62732ZM293.559 26.8L292.56 26.8175L292.577 27.8H293.559V26.8ZM291.559 18.5L290.742 19.0755L290.747 19.0828L290.752 19.09L291.559 18.5ZM278.559 19L279.278 19.6958L279.278 19.6958L278.559 19ZM274.159 26.8H273.159L275.122 27.072L274.159 26.8ZM273.359 17.1L272.709 17.8593L272.766 17.9082L272.829 17.948L273.359 17.1ZM260.359 20.4L259.712 19.6381L259.214 20.0613L259.402 20.6873L260.359 20.4ZM260.659 21.4L259.702 21.6873L259.915 22.4H260.659V21.4ZM264.659 45.8L265.507 46.33L265.521 46.3082L265.534 46.2856L264.659 45.8ZM262.559 47L262.769 47.9778L262.785 47.9743L262.802 47.9701L262.559 47ZM261.159 47.3L260.95 46.3222L259.838 46.5605L260.216 47.6328L261.159 47.3ZM261.759 49L260.816 49.3328L261.052 50H261.759V49ZM276.259 49V50H276.74L277.04 49.6247L276.259 49ZM277.059 48L277.84 48.6247L278.34 48L277.84 47.3753L277.059 48ZM276.259 47L275.442 47.5767L275.46 47.6012L275.479 47.6247L276.259 47ZM274.559 43.5L273.583 43.7169L273.589 43.7425L273.596 43.7676L274.559 43.5ZM275.959 26.3L276.906 26.6216L276.908 26.6162L275.959 26.3ZM284.759 49H283.759V50H284.759V49ZM295.859 49V50H296.34L296.64 49.6247L295.859 49ZM296.659 48L297.44 48.6247L297.94 48L297.44 47.3753L296.659 48ZM295.859 47L295.02 47.5433L295.047 47.5854L295.079 47.6247L295.859 47ZM294.259 43.5L293.283 43.7169L293.289 43.7425L293.296 43.7676L294.259 43.5ZM293.759 38.6H292.759V38.6161L292.76 38.6322L293.759 38.6ZM295.559 26.3L296.506 26.6216L296.508 26.6162L295.559 26.3ZM305.859 48L305.059 48.6L305.067 48.6099L305.074 48.6196L305.859 48ZM319.759 45.8L320.502 46.47L321.071 45.839L320.54 45.1753L319.759 45.8ZM318.959 44.8L319.74 44.1753L319.103 43.3787L318.319 44.0318L318.959 44.8ZM311.359 18.7L310.523 19.248L310.534 19.2649L310.546 19.2812L311.359 18.7ZM298.359 18.9L297.664 18.1818L298.359 18.9ZM293.759 26.8V27.8H294.509L294.719 27.08L293.759 26.8ZM294.559 26.7825C294.491 22.9161 293.817 19.8951 292.367 17.91L290.752 19.09C291.835 20.5716 292.494 23.0839 292.56 26.8175L294.559 26.7825ZM292.377 17.9245C290.877 15.7934 288.53 14.8 285.559 14.8V16.8C288.056 16.8 289.708 17.6066 290.742 19.0755L292.377 17.9245ZM285.559 14.8C282.649 14.8 280.067 16.0067 277.841 18.3042L279.278 19.6958C281.185 17.7267 283.269 16.8 285.559 16.8V14.8ZM277.841 18.3042C275.651 20.565 274.105 23.314 273.197 26.528L275.122 27.072C275.947 24.1526 277.334 21.7016 279.278 19.6958L277.841 18.3042ZM275.159 26.8V18.6H273.159V26.8H275.159ZM275.159 18.6C275.159 17.6135 274.736 16.7809 273.889 16.252L272.829 17.948C273.05 18.0857 273.159 18.2532 273.159 18.6H275.159ZM274.01 16.3407C273.3 15.7322 272.368 15.5 271.359 15.5V17.5C272.084 17.5 272.485 17.6678 272.709 17.8593L274.01 16.3407ZM271.359 15.5C269.234 15.5 267.118 15.89 265.015 16.6611L265.704 18.5389C267.601 17.8433 269.484 17.5 271.359 17.5V15.5ZM265.015 16.6611C262.928 17.4265 261.152 18.4137 259.712 19.6381L261.007 21.1619C262.233 20.1196 263.791 19.2401 265.704 18.5389L265.015 16.6611ZM259.402 20.6873L259.702 21.6873L261.617 21.1126L261.317 20.1127L259.402 20.6873ZM260.659 22.4H263.859V20.4H260.659V22.4ZM263.859 22.4C263.982 22.4 264.045 22.418 264.069 22.4271C264.08 22.4314 264.084 22.434 264.082 22.4331C264.082 22.4328 264.081 22.4322 264.08 22.4313C264.08 22.431 264.079 22.4306 264.079 22.4303C264.079 22.43 264.079 22.4299 264.079 22.4299C264.079 22.4299 264.08 22.431 264.081 22.4336C264.083 22.4361 264.086 22.4405 264.089 22.4473C264.096 22.4608 264.107 22.4843 264.117 22.5213C264.139 22.5974 264.159 22.719 264.159 22.9H266.159C266.159 22.2782 266.028 21.6251 265.59 21.1201C265.129 20.5877 264.487 20.4 263.859 20.4V22.4ZM264.159 22.9V42.4H266.159V22.9H264.159ZM264.159 42.4C264.159 43.2044 264.119 43.8523 264.045 44.3545C263.969 44.8707 263.867 45.1672 263.785 45.3144L265.534 46.2856C265.785 45.8328 265.933 45.2626 266.024 44.6455C266.117 44.0144 266.159 43.2622 266.159 42.4H264.159ZM263.811 45.27C263.687 45.4687 263.305 45.7827 262.317 46.0299L262.802 47.9701C263.947 47.6839 264.965 47.198 265.507 46.33L263.811 45.27ZM262.35 46.0222L260.95 46.3222L261.369 48.2778L262.769 47.9778L262.35 46.0222ZM260.216 47.6328L260.816 49.3328L262.702 48.6672L262.102 46.9672L260.216 47.6328ZM261.759 50H276.259V48H261.759V50ZM277.04 49.6247L277.84 48.6247L276.279 47.3753L275.479 48.3753L277.04 49.6247ZM277.84 47.3753L277.04 46.3753L275.479 47.6247L276.279 48.6247L277.84 47.3753ZM277.076 46.4233C276.335 45.3732 275.822 44.3098 275.523 43.2324L273.596 43.7676C273.963 45.0902 274.584 46.3601 275.442 47.5767L277.076 46.4233ZM275.536 43.2831C275.292 42.1862 275.159 40.6358 275.159 38.6H273.159C273.159 40.6975 273.294 42.4138 273.583 43.7169L275.536 43.2831ZM275.159 38.6C275.159 34.0165 275.749 30.0291 276.906 26.6216L275.012 25.9784C273.77 29.6375 273.159 33.8502 273.159 38.6H275.159ZM276.908 26.6162C278.089 23.073 279.537 21.9 280.959 21.9V19.9C278.115 19.9 276.23 22.327 275.011 25.9838L276.908 26.6162ZM280.959 21.9C281.927 21.9 282.544 22.2441 282.973 22.898C283.45 23.6256 283.759 24.844 283.759 26.7H285.759C285.759 24.6893 285.436 23.0077 284.646 21.802C283.808 20.5226 282.525 19.9 280.959 19.9V21.9ZM283.759 26.7V49H285.759V26.7H283.759ZM284.759 50H295.859V48H284.759V50ZM296.64 49.6247L297.44 48.6247L295.879 47.3753L295.079 48.3753L296.64 49.6247ZM297.44 47.3753L296.64 46.3753L295.079 47.6247L295.879 48.6247L297.44 47.3753ZM296.699 46.4567C296.016 45.4014 295.527 44.3269 295.223 43.2324L293.296 43.7676C293.658 45.0731 294.236 46.332 295.02 47.5433L296.699 46.4567ZM295.236 43.2831C294.988 42.1709 294.825 40.6081 294.759 38.5678L292.76 38.6322C292.827 40.7252 292.997 42.4291 293.283 43.7169L295.236 43.2831ZM294.759 38.6C294.759 34.0165 295.349 30.0291 296.506 26.6216L294.612 25.9784C293.37 29.6375 292.759 33.8502 292.759 38.6H294.759ZM296.508 26.6162C297.689 23.073 299.137 21.9 300.559 21.9V19.9C297.715 19.9 295.83 22.327 294.611 25.9838L296.508 26.6162ZM300.559 21.9C301.527 21.9 302.144 22.2441 302.573 22.898C303.05 23.6256 303.359 24.844 303.359 26.7H305.359C305.359 24.6893 305.036 23.0077 304.246 21.802C303.408 20.5226 302.125 19.9 300.559 19.9V21.9ZM303.359 26.7V41.1H305.359V26.7H303.359ZM303.359 41.1C303.359 44.4076 303.854 46.9923 305.059 48.6L306.659 47.4C305.865 46.3411 305.359 44.3258 305.359 41.1H303.359ZM305.074 48.6196C306.347 50.2315 308.452 50.9 311.059 50.9V48.9C308.734 48.9 307.372 48.3018 306.644 47.3804L305.074 48.6196ZM311.059 50.9C314.707 50.9 317.868 49.3889 320.502 46.47L319.017 45.13C316.718 47.6778 314.078 48.9 311.059 48.9V50.9ZM320.54 45.1753L319.74 44.1753L318.179 45.4247L318.979 46.4247L320.54 45.1753ZM318.319 44.0318C317.256 44.9181 316.241 45.3 315.259 45.3V47.3C316.811 47.3 318.263 46.6819 319.6 45.5682L318.319 44.0318ZM315.259 45.3C314.94 45.3 314.798 45.2019 314.679 45.0149C314.512 44.7508 314.359 44.2267 314.359 43.3H312.359C312.359 44.3733 312.523 45.3492 312.99 46.0851C313.504 46.8981 314.312 47.3 315.259 47.3V45.3ZM314.359 43.3V27.5H312.359V43.3H314.359ZM314.359 27.5C314.359 23.4291 313.688 20.2403 312.173 18.1188L310.546 19.2812C311.697 20.893 312.359 23.5709 312.359 27.5H314.359ZM312.196 18.152C310.699 15.8672 308.271 14.8 305.159 14.8V16.8C307.781 16.8 309.487 17.6661 310.523 19.248L312.196 18.152ZM305.159 14.8C302.441 14.8 299.937 15.9797 297.664 18.1818L299.055 19.6182C301.049 17.687 303.078 16.8 305.159 16.8V14.8ZM297.664 18.1818C295.391 20.3833 293.775 23.1742 292.799 26.52L294.719 27.08C295.61 24.0258 297.061 21.55 299.055 19.6182L297.664 18.1818ZM293.759 25.8H293.559V27.8H293.759V25.8ZM346.859 45.6L347.273 46.5104L347.29 46.5027L347.307 46.4944L346.859 45.6ZM351.159 42L351.759 41.2L351.002 40.6322L350.394 41.3568L351.159 42ZM352.359 42.9L353.18 43.4718L353.732 42.6795L352.959 42.1L352.359 42.9ZM346.459 48.1L346.917 48.9893L346.926 48.9844L346.459 48.1ZM330.459 47.7L329.938 48.5533L329.948 48.5595L330.459 47.7ZM324.759 41.7L323.879 42.1741L323.884 42.1837L324.759 41.7ZM327.359 20.5L328.059 21.2147L328.059 21.2145L327.359 20.5ZM349.159 18.5L348.549 19.2918L348.561 19.3014L348.574 19.3107L349.159 18.5ZM348.659 33L349.233 33.8192L349.237 33.8164L348.659 33ZM332.559 35.4L332.731 34.4148L331.438 34.19L331.564 35.4957L332.559 35.4ZM335.559 43.6L336.328 42.9598L336.328 42.9598L335.559 43.6ZM334.059 22L333.156 21.5719L333.151 21.5825L334.059 22ZM332.359 34H331.359V35H332.359V34ZM335.059 33.8L334.941 32.807L334.935 32.8077L335.059 33.8ZM342.359 20.2L341.521 20.745L341.537 20.7696L341.554 20.7932L342.359 20.2ZM341.759 47.6C343.807 47.6 345.653 47.2467 347.273 46.5104L346.446 44.6896C345.132 45.2866 343.578 45.6 341.759 45.6V47.6ZM347.307 46.4944C348.928 45.6835 350.464 44.382 351.925 42.6432L350.394 41.3568C349.054 42.9514 347.724 44.0498 346.412 44.7056L347.307 46.4944ZM350.559 42.8L351.759 43.7L352.959 42.1L351.759 41.2L350.559 42.8ZM351.539 42.3282C350.098 44.3957 348.253 46.0225 345.993 47.2156L346.926 48.9844C349.466 47.6442 351.554 45.8043 353.18 43.4718L351.539 42.3282ZM346.002 47.2107C343.82 48.3331 341.411 48.9 338.759 48.9V50.9C341.707 50.9 344.432 50.2669 346.917 48.9893L346.002 47.2107ZM338.759 48.9C335.86 48.9 333.272 48.2089 330.97 46.8405L329.948 48.5595C332.58 50.1245 335.526 50.9 338.759 50.9V48.9ZM330.981 46.8467C328.733 45.4732 326.953 43.6025 325.635 41.2163L323.884 42.1837C325.365 44.8642 327.386 46.9935 329.938 48.5533L330.981 46.8467ZM325.64 41.2259C324.326 38.7866 323.659 36.0191 323.659 32.9H321.659C321.659 36.3142 322.392 39.4134 323.879 42.1741L325.64 41.2259ZM323.659 32.9C323.659 27.915 325.153 24.0586 328.059 21.2147L326.66 19.7853C323.299 23.0748 321.659 27.485 321.659 32.9H323.659ZM328.059 21.2145C331.04 18.2961 335.005 16.8 340.059 16.8V14.8C334.581 14.8 330.079 16.4373 326.66 19.7855L328.059 21.2145ZM340.059 16.8C343.632 16.8 346.432 17.6592 348.549 19.2918L349.77 17.7082C347.22 15.7407 343.954 14.8 340.059 14.8V16.8ZM348.574 19.3107C350.731 20.8687 351.759 22.8421 351.759 25.3H353.759C353.759 22.1579 352.388 19.598 349.745 17.6893L348.574 19.3107ZM351.759 25.3C351.759 28.1581 350.565 30.4274 348.082 32.1836L349.237 33.8164C352.221 31.7059 353.759 28.8419 353.759 25.3H351.759ZM348.086 32.1808C345.646 33.8888 342.206 34.8 337.659 34.8V36.8C342.446 36.8 346.34 35.8445 349.233 33.8192L348.086 32.1808ZM337.659 34.8C335.839 34.8 334.198 34.6699 332.731 34.4148L332.388 36.3852C333.988 36.6634 335.746 36.8 337.659 36.8V34.8ZM331.564 35.4957C331.91 39.0962 332.959 42.0414 334.791 44.2402L336.328 42.9598C334.827 41.1586 333.875 38.6371 333.555 35.3043L331.564 35.4957ZM334.791 44.2402C336.636 46.4537 338.978 47.6 341.759 47.6V45.6C339.608 45.6 337.816 44.7463 336.328 42.9598L334.791 44.2402ZM338.959 17.2C336.367 17.2 334.452 18.8354 333.156 21.5719L334.963 22.4281C336.067 20.0979 337.418 19.2 338.959 19.2V17.2ZM333.151 21.5825C331.931 24.2382 331.359 27.8708 331.359 32.4H333.359C333.359 27.9959 333.922 24.6952 334.968 22.4175L333.151 21.5825ZM331.359 32.4V34H333.359V32.4H331.359ZM332.359 35C333.148 35 334.093 34.9286 335.183 34.7923L334.935 32.8077C333.893 32.938 333.037 33 332.359 33V35ZM335.178 34.793C338.121 34.4426 340.493 33.481 342.166 31.8071L340.752 30.3929C339.493 31.6523 337.598 32.4907 334.941 32.807L335.178 34.793ZM342.166 31.8071C343.914 30.0599 344.759 27.7922 344.759 25.1H342.759C342.759 27.3411 342.072 29.0734 340.752 30.3929L342.166 31.8071ZM344.759 25.1C344.759 22.9448 344.255 21.087 343.164 19.6068L341.554 20.7932C342.33 21.8464 342.759 23.2552 342.759 25.1H344.759ZM343.198 19.655C342.176 18.0832 340.749 17.2 338.959 17.2V19.2C339.97 19.2 340.809 19.6502 341.521 20.745L343.198 19.655ZM374.632 44.8L375.413 44.1753L374.776 43.3787L373.992 44.0318L374.632 44.8ZM375.432 45.8L376.193 46.4493L376.729 45.8207L376.213 45.1753L375.432 45.8ZM361.632 48.3L360.904 48.9854L360.914 48.9964L360.925 49.0071L361.632 48.3ZM355.532 4.9L354.574 5.18735L354.788 5.9H355.532V4.9ZM355.232 3.9L354.544 3.17404L354.097 3.59754L354.274 4.18734L355.232 3.9ZM360.132 1.1L360.448 2.04868L360.457 2.04564L360.466 2.04242L360.132 1.1ZM368.232 0.599997L367.581 1.35925L367.638 1.40816L367.702 1.448L368.232 0.599997ZM368.032 43.3C368.032 44.3733 368.196 45.3492 368.662 46.0851C369.177 46.8981 369.985 47.3 370.932 47.3V45.3C370.613 45.3 370.47 45.2019 370.352 45.0149C370.185 44.7508 370.032 44.2267 370.032 43.3H368.032ZM370.932 47.3C372.483 47.3 373.936 46.6819 375.272 45.5682L373.992 44.0318C372.928 44.9181 371.914 45.3 370.932 45.3V47.3ZM373.851 45.4247L374.651 46.4247L376.213 45.1753L375.413 44.1753L373.851 45.4247ZM374.671 45.1507C372.52 47.6709 369.894 48.9 366.732 48.9V50.9C370.503 50.9 373.677 49.3958 376.193 46.4493L374.671 45.1507ZM366.732 48.9C364.522 48.9 363.138 48.3913 362.339 47.5929L360.925 49.0071C362.26 50.342 364.275 50.9 366.732 50.9V48.9ZM362.36 47.6146C361.542 46.7454 361.032 45.279 361.032 43H359.032C359.032 45.521 359.589 47.5879 360.904 48.9854L362.36 47.6146ZM361.032 43V6.3H359.032V43H361.032ZM361.032 6.3C361.032 5.69684 360.894 5.05815 360.44 4.56955C359.973 4.06696 359.339 3.9 358.732 3.9V5.9C358.991 5.9 359.008 5.96637 358.974 5.93045C358.954 5.90851 359.032 5.96983 359.032 6.3H361.032ZM358.732 3.9H355.532V5.9H358.732V3.9ZM356.49 4.61265L356.19 3.61265L354.274 4.18734L354.574 5.18735L356.49 4.61265ZM355.92 4.62595C357.061 3.54517 358.559 2.6786 360.448 2.04868L359.816 0.151314C357.706 0.85473 355.937 1.85483 354.544 3.17404L355.92 4.62595ZM360.466 2.04242C362.436 1.34353 364.356 0.999999 366.232 0.999999V-1C364.108 -1 361.961 -0.610198 359.798 0.157569L360.466 2.04242ZM366.232 0.999999C366.957 0.999999 367.358 1.16778 367.581 1.35925L368.883 -0.15926C368.173 -0.767786 367.241 -1 366.232 -1V0.999999ZM367.702 1.448C367.922 1.58574 368.032 1.75316 368.032 2.1H370.032C370.032 1.1135 369.608 0.280921 368.762 -0.248001L367.702 1.448ZM368.032 2.1V43.3H370.032V2.1H368.032ZM395.84 44.8L396.621 44.1753L395.983 43.3787L395.2 44.0318L395.84 44.8ZM396.64 45.8L397.382 46.47L397.952 45.839L397.421 45.1753L396.64 45.8ZM382.74 48.1L381.975 48.7441L381.984 48.7544L381.992 48.7644L382.74 48.1ZM376.74 20.8L375.775 21.0631L375.976 21.8H376.74V20.8ZM376.44 19.7L375.792 18.9381L375.308 19.3498L375.475 19.9631L376.44 19.7ZM381.44 16.9L381.784 17.8389L381.784 17.8389L381.44 16.9ZM389.44 16.4L388.84 17.2L388.84 17.2L389.44 16.4ZM382.14 2.2L381.4 1.52732L381.4 1.52732L382.14 2.2ZM389.64 2.2L388.9 2.87267L388.908 2.88167L388.916 2.89047L389.64 2.2ZM389.64 10.3L388.916 9.60952L388.916 9.61034L389.64 10.3ZM382.14 10.3L381.4 10.9727L381.408 10.9813L381.416 10.9897L382.14 10.3ZM389.24 43.3C389.24 44.3733 389.404 45.3492 389.87 46.0851C390.385 46.8981 391.193 47.3 392.14 47.3V45.3C391.82 45.3 391.678 45.2019 391.56 45.0149C391.392 44.7508 391.24 44.2267 391.24 43.3H389.24ZM392.14 47.3C393.691 47.3 395.144 46.6819 396.48 45.5682L395.2 44.0318C394.136 44.9181 393.122 45.3 392.14 45.3V47.3ZM395.059 45.4247L395.859 46.4247L397.421 45.1753L396.621 44.1753L395.059 45.4247ZM395.897 45.13C393.598 47.6778 390.959 48.9 387.94 48.9V50.9C391.588 50.9 394.748 49.3889 397.382 46.47L395.897 45.13ZM387.94 48.9C385.683 48.9 384.287 48.3348 383.487 47.4356L381.992 48.7644C383.326 50.2652 385.397 50.9 387.94 50.9V48.9ZM383.505 47.4559C382.664 46.4578 382.14 44.7137 382.14 42H380.14C380.14 44.8863 380.682 47.2089 381.975 48.7441L383.505 47.4559ZM382.14 42V22.2H380.14V42H382.14ZM382.14 22.2C382.14 21.5968 382.001 20.9582 381.548 20.4695C381.081 19.967 380.447 19.8 379.84 19.8V21.8C380.099 21.8 380.115 21.8664 380.082 21.8305C380.062 21.8085 380.14 21.8698 380.14 22.2H382.14ZM379.84 19.8H376.74V21.8H379.84V19.8ZM377.705 20.5369L377.405 19.4369L375.475 19.9631L375.775 21.0631L377.705 20.5369ZM377.087 20.4619C378.314 19.4196 379.872 18.5401 381.784 17.8389L381.096 15.9611C379.008 16.7265 377.233 17.7137 375.792 18.9381L377.087 20.4619ZM381.784 17.8389C383.681 17.1433 385.565 16.8 387.44 16.8V14.8C385.315 14.8 383.199 15.19 381.096 15.9611L381.784 17.8389ZM387.44 16.8C388.068 16.8 388.512 16.9542 388.84 17.2L390.04 15.6C389.301 15.0458 388.412 14.8 387.44 14.8V16.8ZM388.84 17.2C389.121 17.4111 389.24 17.6481 389.24 18H391.24C391.24 17.0186 390.825 16.1889 390.04 15.6L388.84 17.2ZM389.24 18V43.3H391.24V18H389.24ZM381.14 6.2C381.14 5.36741 381.612 4.2676 382.88 2.87267L381.4 1.52732C380.001 3.06573 379.14 4.63258 379.14 6.2H381.14ZM382.88 2.87267C384.157 1.46787 385.139 0.999999 385.84 0.999999V-1C384.274 -1 382.789 -0.00120654 381.4 1.52732L382.88 2.87267ZM385.84 0.999999C386.62 0.999999 387.637 1.48358 388.9 2.87267L390.38 1.52732C388.976 -0.0169143 387.46 -1 385.84 -1V0.999999ZM388.916 2.89047C390.253 4.29088 390.74 5.38519 390.74 6.2H392.74C392.74 4.61481 391.826 3.04246 390.363 1.50952L388.916 2.89047ZM390.74 6.2C390.74 7.09239 390.241 8.2221 388.916 9.60952L390.363 10.9905C391.839 9.44456 392.74 7.84094 392.74 6.2H390.74ZM388.916 9.61034C387.66 10.9292 386.638 11.4 385.84 11.4V13.4C387.441 13.4 388.953 12.4708 390.364 10.9897L388.916 9.61034ZM385.84 11.4C385.12 11.4 384.134 10.9441 382.864 9.61034L381.416 10.9897C382.812 12.4559 384.293 13.4 385.84 13.4V11.4ZM382.88 9.62732C381.623 8.24513 381.14 7.10996 381.14 6.2H379.14C379.14 7.82337 379.99 9.42153 381.4 10.9727L382.88 9.62732ZM439.231 44.8L440.012 44.1753L439.375 43.3787L438.591 44.0318L439.231 44.8ZM440.031 45.8L440.774 46.47L441.343 45.839L440.812 45.1753L440.031 45.8ZM426.131 48.1L425.346 48.7196L425.364 48.7426L425.384 48.7644L426.131 48.1ZM415.031 25.8L414.126 25.3751L414.122 25.3827L414.119 25.3904L415.031 25.8ZM413.331 43.5L412.364 43.7545L412.368 43.7676L413.331 43.5ZM414.931 47L414.092 47.5433L414.119 47.5854L414.15 47.6247L414.931 47ZM415.731 48L416.512 48.6247L417.012 48L416.512 47.3753L415.731 48ZM414.931 49V50H415.412L415.712 49.6247L414.931 49ZM400.431 49L399.488 49.3328L399.724 50H400.431V49ZM399.831 47.3L399.622 46.3222L398.51 46.5605L398.888 47.6328L399.831 47.3ZM401.231 47L401.441 47.9778L401.457 47.9743L401.474 47.9701L401.231 47ZM403.331 45.8L404.179 46.33L404.193 46.3082L404.205 46.2856L403.331 45.8ZM399.331 21L398.366 21.2631L398.567 22H399.331V21ZM399.031 19.9L398.384 19.1381L397.899 19.5498L398.066 20.1631L399.031 19.9ZM404.031 17.1L404.376 18.0389L404.376 18.0389L404.031 17.1ZM412.031 16.6L411.38 17.3593L411.405 17.3805L411.431 17.4L412.031 16.6ZM412.831 26.8H411.831L413.79 27.0855L412.831 26.8ZM417.831 19L418.484 19.7578L418.49 19.7526L418.496 19.7474L417.831 19ZM431.631 18.6L430.804 19.1615L430.811 19.1715L430.818 19.1812L431.631 18.6ZM432.631 43.3C432.631 44.3733 432.795 45.3492 433.261 46.0851C433.776 46.8981 434.584 47.3 435.531 47.3V45.3C435.212 45.3 435.069 45.2019 434.951 45.0149C434.784 44.7508 434.631 44.2267 434.631 43.3H432.631ZM435.531 47.3C437.083 47.3 438.535 46.6819 439.871 45.5682L438.591 44.0318C437.527 44.9181 436.513 45.3 435.531 45.3V47.3ZM438.45 45.4247L439.25 46.4247L440.812 45.1753L440.012 44.1753L438.45 45.4247ZM439.289 45.13C436.99 47.6778 434.35 48.9 431.331 48.9V50.9C434.979 50.9 438.139 49.3889 440.774 46.47L439.289 45.13ZM431.331 48.9C429.074 48.9 427.678 48.3348 426.879 47.4356L425.384 48.7644C426.718 50.2652 428.788 50.9 431.331 50.9V48.9ZM426.916 47.4804C426.126 46.4793 425.631 44.7238 425.631 42H423.631C423.631 44.8762 424.137 47.1874 425.346 48.7196L426.916 47.4804ZM425.631 42V26.7H423.631V42H425.631ZM425.631 26.7C425.631 24.6925 425.317 23.0154 424.549 21.8122C423.733 20.5325 422.475 19.9 420.931 19.9V21.9C421.854 21.9 422.446 22.2342 422.863 22.8878C423.329 23.6179 423.631 24.8408 423.631 26.7H425.631ZM420.931 19.9C417.963 19.9 415.73 21.9569 414.126 25.3751L415.936 26.2249C417.399 23.1098 419.099 21.9 420.931 21.9V19.9ZM414.119 25.3904C412.574 28.8318 411.831 33.253 411.831 38.6H413.831C413.831 33.4136 414.555 29.3016 415.944 26.2096L414.119 25.3904ZM411.831 38.6C411.831 40.6459 412.001 42.3734 412.364 43.7545L414.298 43.2455C413.995 42.0933 413.831 40.5541 413.831 38.6H411.831ZM412.368 43.7676C412.73 45.0731 413.308 46.332 414.092 47.5433L415.771 46.4567C415.088 45.4014 414.599 44.3269 414.295 43.2324L412.368 43.7676ZM414.15 47.6247L414.95 48.6247L416.512 47.3753L415.712 46.3753L414.15 47.6247ZM414.95 47.3753L414.15 48.3753L415.712 49.6247L416.512 48.6247L414.95 47.3753ZM414.931 48H400.431V50H414.931V48ZM401.374 48.6672L400.774 46.9672L398.888 47.6328L399.488 49.3328L401.374 48.6672ZM400.041 48.2778L401.441 47.9778L401.022 46.0222L399.622 46.3222L400.041 48.2778ZM401.474 47.9701C402.619 47.6839 403.637 47.198 404.179 46.33L402.483 45.27C402.359 45.4687 401.977 45.7827 400.989 46.0299L401.474 47.9701ZM404.205 46.2856C404.457 45.8328 404.605 45.2626 404.696 44.6455C404.788 44.0144 404.831 43.2622 404.831 42.4H402.831C402.831 43.2044 402.791 43.8523 402.717 44.3545C402.641 44.8707 402.539 45.1672 402.457 45.3144L404.205 46.2856ZM404.831 42.4V22.9H402.831V42.4H404.831ZM404.831 22.9C404.831 22.1838 404.714 21.4698 404.332 20.9103C403.902 20.2826 403.245 20 402.531 20V22C402.626 22 402.66 22.017 402.662 22.0177C402.664 22.0185 402.664 22.0186 402.664 22.019C402.665 22.0198 402.671 22.0251 402.681 22.0397C402.731 22.1135 402.831 22.3496 402.831 22.9H404.831ZM402.531 20H399.331V22H402.531V20ZM400.296 20.7369L399.996 19.6369L398.066 20.1631L398.366 21.2631L400.296 20.7369ZM399.679 20.6619C400.905 19.6196 402.463 18.7401 404.376 18.0389L403.687 16.1611C401.6 16.9265 399.824 17.9137 398.384 19.1381L399.679 20.6619ZM404.376 18.0389C406.272 17.3433 408.156 17 410.031 17V15C407.906 15 405.79 15.39 403.687 16.1611L404.376 18.0389ZM410.031 17C410.756 17 411.157 17.1678 411.38 17.3593L412.682 15.8407C411.972 15.2322 411.04 15 410.031 15V17ZM411.431 17.4C411.713 17.6111 411.831 17.8481 411.831 18.2H413.831C413.831 17.2186 413.416 16.3889 412.631 15.8L411.431 17.4ZM411.831 18.2V26.8H413.831V18.2H411.831ZM413.79 27.0855C414.67 24.1294 416.234 21.6953 418.484 19.7578L417.179 18.2422C414.629 20.438 412.859 23.204 411.873 26.5145L413.79 27.0855ZM418.496 19.7474C420.752 17.7419 423.057 16.8 425.431 16.8V14.8C422.472 14.8 419.711 15.9914 417.167 18.2526L418.496 19.7474ZM425.431 16.8C428.067 16.8 429.773 17.6432 430.804 19.1615L432.459 18.0385C430.956 15.8235 428.529 14.8 425.431 14.8V16.8ZM430.818 19.1812C431.967 20.791 432.631 23.4999 432.631 27.5H434.631C434.631 23.3668 433.962 20.1423 432.445 18.0188L430.818 19.1812ZM432.631 27.5V43.3H434.631V27.5H432.631ZM467.172 45.6L467.586 46.5104L467.603 46.5027L467.619 46.4944L467.172 45.6ZM471.472 42L472.072 41.2L471.315 40.6322L470.706 41.3568L471.472 42ZM472.672 42.9L473.492 43.4718L474.045 42.6795L473.272 42.1L472.672 42.9ZM466.772 48.1L467.229 48.9893L467.239 48.9844L466.772 48.1ZM450.772 47.7L450.25 48.5533L450.261 48.5595L450.772 47.7ZM445.072 41.7L444.191 42.1741L444.197 42.1837L445.072 41.7ZM447.672 20.5L448.371 21.2147L448.371 21.2145L447.672 20.5ZM469.472 18.5L468.861 19.2918L468.874 19.3014L468.886 19.3107L469.472 18.5ZM468.972 33L469.545 33.8192L469.549 33.8164L468.972 33ZM452.872 35.4L453.043 34.4148L451.751 34.19L451.876 35.4957L452.872 35.4ZM455.872 43.6L456.64 42.9598L456.64 42.9598L455.872 43.6ZM454.372 22L453.468 21.5719L453.463 21.5825L454.372 22ZM452.672 34H451.672V35H452.672V34ZM455.372 33.8L455.254 32.807L455.248 32.8077L455.372 33.8ZM462.672 20.2L461.833 20.745L461.849 20.7696L461.867 20.7932L462.672 20.2ZM462.072 47.6C464.12 47.6 465.966 47.2467 467.586 46.5104L466.758 44.6896C465.445 45.2866 463.891 45.6 462.072 45.6V47.6ZM467.619 46.4944C469.241 45.6835 470.777 44.382 472.238 42.6432L470.706 41.3568C469.367 42.9514 468.036 44.0498 466.725 44.7056L467.619 46.4944ZM470.872 42.8L472.072 43.7L473.272 42.1L472.072 41.2L470.872 42.8ZM471.851 42.3282C470.411 44.3957 468.566 46.0225 466.305 47.2156L467.239 48.9844C469.778 47.6442 471.867 45.8043 473.492 43.4718L471.851 42.3282ZM466.315 47.2107C464.132 48.3331 461.724 48.9 459.072 48.9V50.9C462.02 50.9 464.745 50.2669 467.229 48.9893L466.315 47.2107ZM459.072 48.9C456.172 48.9 453.584 48.2089 451.283 46.8405L450.261 48.5595C452.893 50.1245 455.838 50.9 459.072 50.9V48.9ZM451.293 46.8467C449.046 45.4732 447.266 43.6025 445.947 41.2163L444.197 42.1837C445.678 44.8642 447.698 46.9935 450.25 48.5533L451.293 46.8467ZM445.952 41.2259C444.639 38.7866 443.972 36.0191 443.972 32.9H441.972C441.972 36.3142 442.705 39.4134 444.191 42.1741L445.952 41.2259ZM443.972 32.9C443.972 27.915 445.466 24.0586 448.371 21.2147L446.972 19.7853C443.611 23.0748 441.972 27.485 441.972 32.9H443.972ZM448.371 21.2145C451.352 18.2961 455.317 16.8 460.372 16.8V14.8C454.893 14.8 450.392 16.4373 446.972 19.7855L448.371 21.2145ZM460.372 16.8C463.944 16.8 466.745 17.6592 468.861 19.2918L470.083 17.7082C467.532 15.7407 464.266 14.8 460.372 14.8V16.8ZM468.886 19.3107C471.044 20.8687 472.072 22.8421 472.072 25.3H474.072C474.072 22.1579 472.7 19.598 470.057 17.6893L468.886 19.3107ZM472.072 25.3C472.072 28.1581 470.877 30.4274 468.394 32.1836L469.549 33.8164C472.533 31.7059 474.072 28.8419 474.072 25.3H472.072ZM468.398 32.1808C465.958 33.8888 462.519 34.8 457.972 34.8V36.8C462.758 36.8 466.652 35.8445 469.545 33.8192L468.398 32.1808ZM457.972 34.8C456.152 34.8 454.51 34.6699 453.043 34.4148L452.701 36.3852C454.3 36.6634 456.059 36.8 457.972 36.8V34.8ZM451.876 35.4957C452.223 39.0962 453.271 42.0414 455.104 44.2402L456.64 42.9598C455.139 41.1586 454.188 38.6371 453.867 35.3043L451.876 35.4957ZM455.104 44.2402C456.948 46.4537 459.29 47.6 462.072 47.6V45.6C459.92 45.6 458.129 44.7463 456.64 42.9598L455.104 44.2402ZM459.272 17.2C456.68 17.2 454.764 18.8354 453.468 21.5719L455.276 22.4281C456.379 20.0979 457.731 19.2 459.272 19.2V17.2ZM453.463 21.5825C452.243 24.2382 451.672 27.8708 451.672 32.4H453.672C453.672 27.9959 454.234 24.6952 455.281 22.4175L453.463 21.5825ZM451.672 32.4V34H453.672V32.4H451.672ZM452.672 35C453.461 35 454.405 34.9286 455.496 34.7923L455.248 32.8077C454.205 32.938 453.35 33 452.672 33V35ZM455.49 34.793C458.433 34.4426 460.805 33.481 462.479 31.8071L461.065 30.3929C459.805 31.6523 457.91 32.4907 455.254 32.807L455.49 34.793ZM462.479 31.8071C464.226 30.0599 465.072 27.7922 465.072 25.1H463.072C463.072 27.3411 462.384 29.0734 461.065 30.3929L462.479 31.8071ZM465.072 25.1C465.072 22.9448 464.568 21.087 463.477 19.6068L461.867 20.7932C462.643 21.8464 463.072 23.2552 463.072 25.1H465.072ZM463.51 19.655C462.489 18.0832 461.061 17.2 459.272 17.2V19.2C460.283 19.2 461.122 19.6502 461.833 20.745L463.51 19.655Z" fill="#FBBC04"/>
</g>
<defs>
<filter id="filter0_d_161_179" x="0.5" y="0" width="476.572" height="58.7" filterUnits="userSpaceOnUse" color-interpolation-filters="sRGB">
<feFlood flood-opacity="0" result="BackgroundImageFix"/>
<feColorMatrix in="SourceAlpha" type="matrix" values="0 0 0 0 0 0 0 0 0 0 0 0 0 0 0 0 0 0 127 0" result="hardAlpha"/>
<feOffset dy="4"/>
<feGaussianBlur stdDeviation="2"/>
<feComposite in2="hardAlpha" operator="out"/>
<feColorMatrix type="matrix" values="0 0 0 0 0 0 0 0 0 0 0 0 0 0 0 0 0 0 0.25 0"/>
<feBlend mode="normal" in2="BackgroundImageFix" result="effect1_dropShadow_161_179"/>
<feBlend mode="normal" in="SourceGraphic" in2="effect1_dropShadow_161_179" result="shape"/>
</filter>
</defs>
</svg>
